<?xml version="1.0" encoding="utf-8"?>
<!-- Generator: Adobe Illustrator 26.4.1, SVG Export Plug-In . SVG Version: 6.00 Build 0)  -->
<svg version="1.1" id="Layer_1" xmlns="http://www.w3.org/2000/svg" xmlns:xlink="http://www.w3.org/1999/xlink" x="0px" y="0px"
	 viewBox="0 0 455 455" style="enable-background:new 0 0 455 455;" xml:space="preserve">
<style type="text/css">
	.st0{fill-rule:evenodd;clip-rule:evenodd;fill:#FFFFFF;}
</style>
<g>
	<path class="st0" d="M254.4,194.6v-1c-0.1,0.3-0.4,0.6-0.6,1H254.4z"/>
	<path class="st0" d="M104.9,442H8.7V152.5h96.2V442z M56.9,113.1h-0.6c-32.2,0-53.2-22.2-53.2-50C3,34.7,24.5,13,57.4,13
		s53.2,21.7,53.9,50C111.3,90.8,90.3,113.1,56.9,113.1z M451.9,442h-96.2V287.1c0-38.9-14-65.4-48.7-65.4
		c-26.7,0-42.5,17.8-49.3,35.2c-2.6,6.1-3.1,14.8-3.1,23.5V442h-96.2c0,0,1.3-262.2,0-289.5h96.2v41c12.8-19.7,35.6-47.7,86.8-47.7
		c63.3,0,110.7,41.3,110.7,130.3V442H451.9z"/>
</g>
</svg>
