<?xml version="1.0" encoding="utf-8"?>
<!-- Generator: Adobe Illustrator 26.4.1, SVG Export Plug-In . SVG Version: 6.00 Build 0)  -->
<svg version="1.1" id="Twitter_Logo" xmlns="http://www.w3.org/2000/svg" xmlns:xlink="http://www.w3.org/1999/xlink" x="0px"
	 y="0px" viewBox="0 0 30 30" style="enable-background:new 0 0 30 30;" xml:space="preserve">
<style type="text/css">
	.st0{fill:#FFFFFF;}
</style>
<g>
	<path id="XMLID_1_" class="st0" d="M9.6,27c9.6,0,17.3-7.5,17.3-17.1V9.8c0-0.3,0-0.5,0-0.8c1.2-0.8,2.2-2,3-3.2
		c-1.2,0.5-2.3,0.8-3.5,1c1.3-0.8,2.2-2,2.7-3.4c-1.2,0.7-2.5,1.2-3.9,1.5c-2.3-2.5-6.2-2.5-8.6-0.3c-1.2,1.2-1.8,2.7-1.8,4.4
		c0,0.5,0,1,0.2,1.3c-4.9-0.2-9.4-2.5-12.6-6.4c-1.7,2.9-0.8,6.4,1.8,8c-1,0-1.8-0.3-2.7-0.8l0,0c0,2.9,2,5.4,4.9,6
		c-0.5,0.2-1,0.2-1.7,0.2c-0.3,0-0.8,0-1.2-0.2c0.8,3,3,4.7,5.7,4.7c-2.2,1.7-4.9,2.7-7.5,2.5c-0.5,0-1,0-1.5-0.2
		C3,26.2,6.2,27,9.6,27"/>
</g>
</svg>
