<?xml version="1.0" encoding="utf-8"?>
<!-- Generator: Adobe Illustrator 26.5.2, SVG Export Plug-In . SVG Version: 6.00 Build 0)  -->
<svg version="1.1" id="Discord_Logo" xmlns="http://www.w3.org/2000/svg" xmlns:xlink="http://www.w3.org/1999/xlink" x="0px"
	 y="0px" viewBox="0 0 30 30" style="enable-background:new 0 0 30 30;" xml:space="preserve">
<style type="text/css">
	.st0{fill:#D30A5D;}
</style>
<g>
	<path id="Trazado_114" class="st0" d="M26,7.1c-2-1.5-4.5-2.5-7-2.7l-0.3,0.4c2.1,0.7,4.2,1.8,6.1,3.2C19.1,5,12.1,4.7,6.1,7.4
		C5.3,7.8,4.7,8.1,4.7,8.1c2-1.5,4.2-2.7,6.6-3.2L11,4.6C8.5,4.7,6,5.7,4,7.3c-2.2,4.5-3.5,9.5-3.6,14.5c1.8,2.5,4.6,3.9,7.7,3.8
		c0,0,0.8-1.1,1.7-2.1C8,23,6.4,22,5.3,20.6c0.3,0.3,0.7,0.4,1,0.6c4.7,2.7,10.5,2.9,15.6,0.8c1-0.4,2-0.8,2.8-1.4
		c-1.1,1.5-2.7,2.5-4.5,2.9c0.7,1,1.7,2,1.7,2c3.1,0.1,5.9-1.4,7.7-3.8C29.4,16.7,28.2,11.7,26,7.1z M10.3,19.4
		c-1.5-0.1-2.7-1.3-2.5-2.8c-0.1-1.4,1-2.7,2.4-2.8s2.7,1,2.8,2.4c0,0.1,0,0.3,0,0.4C12.8,18,11.7,19.2,10.3,19.4z M19.4,19.4
		c-1.5-0.1-2.7-1.3-2.5-2.8c0.1-1.4,1.4-2.5,2.8-2.4s2.5,1.4,2.4,2.8C21.8,18.3,20.6,19.4,19.4,19.4z"/>
</g>
</svg>
