<?xml version="1.0" encoding="utf-8"?>
<!-- Generator: Adobe Illustrator 26.5.2, SVG Export Plug-In . SVG Version: 6.00 Build 0)  -->
<svg version="1.1" id="Instagram_Logo" xmlns="http://www.w3.org/2000/svg" xmlns:xlink="http://www.w3.org/1999/xlink" x="0px"
	 y="0px" viewBox="0 0 30 30" style="enable-background:new 0 0 30 30;" xml:space="preserve">
<style type="text/css">
	.st0{fill:#D30A5D;}
</style>
<g>
	<g>
		<path id="Trazado_124_00000168803068454471269700000006441140975880379564_" class="st0" d="M23.1,29.8H6.9
			c-3.7,0-6.6-3.1-6.6-6.6V6.9c0-3.7,3.1-6.6,6.6-6.6H23c3.7,0,6.6,3.1,6.6,6.6V23C29.7,26.7,26.6,29.8,23.1,29.8z M6.8,3.1
			C4.7,3.1,3,4.6,3,6.9V23c0,2,1.7,3.7,3.7,3.7h16.1c2,0,3.7-1.7,3.7-3.7V6.9c0-2-1.7-3.7-3.7-3.7C22.9,3.1,6.8,3.1,6.8,3.1z
			 M14.9,22.6c-4.2,0-7.6-3.4-7.6-7.6s3.4-7.6,7.6-7.6s7.6,3.4,7.6,7.6l0,0C22.6,19.2,19.2,22.6,14.9,22.6L14.9,22.6z M14.9,10.2
			c-2.5,0-4.8,2-4.8,4.8s2,4.8,4.8,4.8s4.8-2,4.8-4.8l0,0C19.7,12.5,17.5,10.2,14.9,10.2L14.9,10.2z M22.9,5.5c-1,0-1.9,0.8-1.9,1.9
			s0.8,1.9,1.9,1.9l0,0c1,0,1.9-0.8,1.9-1.9S23.9,5.5,22.9,5.5L22.9,5.5z"/>
	</g>
</g>
</svg>
