<?xml version="1.0" encoding="utf-8"?>
<!-- Generator: Adobe Illustrator 26.4.1, SVG Export Plug-In . SVG Version: 6.00 Build 0)  -->
<svg version="1.1" id="Medium_Logo" xmlns="http://www.w3.org/2000/svg" xmlns:xlink="http://www.w3.org/1999/xlink" x="0px"
	 y="0px" viewBox="0 0 30 30" style="enable-background:new 0 0 30 30;" xml:space="preserve">
<style type="text/css">
	.st0{fill:#FFFFFF;}
</style>
<g id="Grupo_154" transform="translate(6.476 7.664)">
	<path id="Trazado_119" class="st0" d="M22.8-0.6l-9.2-4.6h-0.2l0,0c-0.2,0-0.2,0-0.3,0.2L7.4,4.2l6.3,10.3L23-0.2
		C23-0.4,23-0.4,22.8-0.6L22.8-0.6z"/>
	<path id="Trazado_120" class="st0" d="M4.5,1v9.9l8.9,4.4L4.5,1z"/>
	<path id="Trazado_121" class="st0" d="M14.1,15.7l8.2,4.1c0.2,0.2,0.5,0.2,0.7-0.2c0-0.2,0.2-0.2,0.2-0.3V1.1L14.1,15.7z"/>
	<path id="Trazado_122" class="st0" d="M3.5-0.6l-8.6-4.3L-5.6-5h-0.2c-0.2,0-0.2,0-0.2,0.2c-0.2,0-0.2,0-0.2,0.2v19.5
		c0,0.3,0.2,0.7,0.5,0.9l8.4,4.1c0.2,0,0.2,0,0.3,0c0.3,0,0.5-0.2,0.5-0.5V-0.2C3.6-0.4,3.6-0.4,3.5-0.6z"/>
</g>
</svg>
