<?xml version="1.0" encoding="utf-8"?>
<!-- Generator: Adobe Illustrator 26.5.2, SVG Export Plug-In . SVG Version: 6.00 Build 0)  -->
<svg version="1.1" id="Layer_1" xmlns="http://www.w3.org/2000/svg" xmlns:xlink="http://www.w3.org/1999/xlink" x="0px" y="0px"
	 viewBox="0 0 1043.6 592.7" style="enable-background:new 0 0 1043.6 592.7;" xml:space="preserve">
<style type="text/css">
	.st0{fill:#D30A5D;}
</style>
<g id="Layer_2_00000040561167553670094510000013518024023864253586_">
	<g id="Layer_1-2">
		<path class="st0" d="M588.7,296.4c0,163.7-131.8,296.3-294.3,296.3S0,460,0,296.4S131.8,0,294.3,0S588.7,132.7,588.7,296.4"/>
		<path class="st0" d="M911.6,296.4c0,154.1-65.9,279-147.2,279s-147.2-124.9-147.2-279s65.9-279,147.2-279S911.5,142.3,911.6,296.4
			"/>
		<path class="st0" d="M1043.6,296.4c0,138-23.2,249.9-51.8,249.9S940,434.4,940,296.4s23.2-249.9,51.8-249.9
			S1043.6,158.3,1043.6,296.4"/>
	</g>
</g>
</svg>
