<?xml version="1.0" encoding="utf-8"?>
<!-- Generator: Adobe Illustrator 26.5.2, SVG Export Plug-In . SVG Version: 6.00 Build 0)  -->
<svg version="1.1" id="Layer_1" xmlns="http://www.w3.org/2000/svg" xmlns:xlink="http://www.w3.org/1999/xlink" x="0px" y="0px"
	 viewBox="0 0 30 30" style="enable-background:new 0 0 30 30;" xml:space="preserve">
<style type="text/css">
	.st0{fill:#D30A5D;}
</style>
<g id="YouTube_Logo" transform="translate(-1649.428 -3918)">
	<g id="g5355" transform="translate(1649.428 3918)">
		<g id="g4167" transform="translate(6 7.999)">
			<path id="path4156" class="st0" d="M9-3.4c-3.9,0-7.8,0.2-11.5,0.6c-1.2,0.3-2.3,1.4-2.6,2.6C-5.6,2.2-5.7,4.5-5.7,7
				c0,2.3,0.2,4.8,0.6,7.1c0.3,1.2,1.4,2.3,2.6,2.6c3.9,0.5,7.6,0.6,11.5,0.6s7.8-0.2,11.5-0.6c1.2-0.3,2.3-1.4,2.6-2.6
				c0.5-2.3,0.6-4.7,0.6-7.1c0-2.3-0.2-4.8-0.6-7.1c-0.3-1.2-1.4-2.3-2.6-2.6C18.1-3.4,9-3.4,9-3.4z M6.1,2.5L13.7,7l-7.6,4.3V2.5
				L6.1,2.5z"/>
		</g>
	</g>
</g>
</svg>
