<svg width="10" height="10" viewBox="0 0 10 10" fill="none" xmlns="http://www.w3.org/2000/svg">
<path d="M5 0C2.2445 0 0 2.2445 0 5C0 7.7555 2.2445 10 5 10C7.7555 10 10 7.7555 10 5C10 2.2445 7.7555 0 5 0ZM5 1C7.21506 1 9 2.78494 9 5C9 7.21506 7.21506 9 5 9C2.78494 9 1 7.21506 1 5C1 2.78494 2.78494 1 5 1ZM5 2.50293C4.35913 2.50293 3.71848 2.74637 3.23242 3.23242C2.26031 4.20454 2.26031 5.79547 3.23242 6.76758C4.20453 7.73969 5.79547 7.73969 6.76758 6.76758L6.06055 6.06055C5.47066 6.65044 4.52934 6.65044 3.93945 6.06055C3.34957 5.47066 3.34957 4.52934 3.93945 3.93945C4.52934 3.34957 5.47066 3.34957 6.06055 3.93945L6.76758 3.23242C6.28152 2.74637 5.64087 2.50293 5 2.50293Z" fill="#888888"/>
</svg>