<svg width="12" height="8" viewBox="0 0 12 8" fill="none" xmlns="http://www.w3.org/2000/svg">
<path d="M1.33464 0.5C0.692969 0.5 0.167969 1.025 0.167969 1.66667V6.33333C0.167969 6.975 0.692969 7.5 1.33464 7.5H7.86751C8.15918 7.5 8.45107 7.38356 8.68441 7.15023L11.8346 4L8.68441 0.849772C8.45107 0.616439 8.15918 0.5 7.86751 0.5H1.33464ZM1.33464 1.66667H7.86751L7.85954 1.67464L10.1872 4.00228L7.86751 6.33333H1.33464V1.66667ZM7.7513 3.41667C7.4293 3.41667 7.16797 3.678 7.16797 4C7.16797 4.322 7.4293 4.58333 7.7513 4.58333C8.0733 4.58333 8.33464 4.322 8.33464 4C8.33464 3.678 8.0733 3.41667 7.7513 3.41667Z" fill="#888888"/>
</svg>
