<svg xmlns="http://www.w3.org/2000/svg" xmlns:xlink="http://www.w3.org/1999/xlink" width="30.669" height="30.662" viewBox="0 0 30.669 30.662">
  <defs>
    <clipPath id="clip-path">
      <rect id="Rectangle_972" data-name="Rectangle 972" width="30.669" height="30.662" fill="#fff"/>
    </clipPath>
  </defs>
  <g id="Group_1697" data-name="Group 1697" transform="translate(-15)">
    <g id="Group_1696" data-name="Group 1696" transform="translate(15)" clip-path="url(#clip-path)">
      <path id="Path_39351" data-name="Path 39351" d="M136.376,16.625a8.07,8.07,0,0,0,.838-13.762c.5-.387.957-.793,1.461-1.131A10.225,10.225,0,0,1,154.411,8.4a10.092,10.092,0,0,1-1.176,6.892.963.963,0,0,0-.084.573c.068.46.188.913.278,1.37a2.175,2.175,0,0,1-2.636,2.555c-.487-.112-.962-.278-1.45-.381a1.024,1.024,0,0,0-.606.051,10.23,10.23,0,0,1-12.2-2.625c-.051-.06-.1-.124-.164-.211m9.455-2v-4.4l.316-.014A.738.738,0,0,0,146.9,9.5a.728.728,0,0,0-.722-.722c-.74-.018-1.481-.02-2.221,0A.719.719,0,0,0,144,10.214c.11.005.22.013.337.02v4.389c-.272,0-.523-.017-.77,0a.686.686,0,0,0-.663.69.668.668,0,0,0,.66.724q1.519.032,3.04,0a.659.659,0,0,0,.647-.7.676.676,0,0,0-.639-.708c-.247-.024-.5,0-.785,0m.33-8.058a1.081,1.081,0,1,0-1.071,1.1,1.093,1.093,0,0,0,1.071-1.1" transform="translate(-123.913 0)" fill="#fff"/>
      <path id="Path_39352" data-name="Path 39352" d="M8.745,204.1q-3.233,0-6.466,0A2.171,2.171,0,0,1,0,201.828c0-.992,0-1.984,0-2.976A7.929,7.929,0,0,1,6.164,191.2a10.188,10.188,0,0,1,6.849.589,7.814,7.814,0,0,1,4.5,7.157c.03.98.007,1.961,0,2.941a2.166,2.166,0,0,1-2.2,2.21q-3.284.006-6.568,0" transform="translate(0 -173.442)" fill="#fff"/>
      <path id="Path_39353" data-name="Path 39353" d="M30.564,32.017a6.576,6.576,0,1,1-6.58,6.44,6.558,6.558,0,0,1,6.58-6.44" transform="translate(-21.792 -29.091)" fill="#fff"/>
    </g>
  </g>
</svg>
