<svg id="Group_1739" data-name="Group 1739" xmlns="http://www.w3.org/2000/svg" xmlns:xlink="http://www.w3.org/1999/xlink" width="26.442" height="26" viewBox="0 0 26.442 26">
  <defs>
    <clipPath id="clip-path">
      <rect id="Rectangle_1012" data-name="Rectangle 1012" width="26.442" height="26" fill="none"/>
    </clipPath>
  </defs>
  <g id="Group_1738" data-name="Group 1738" clip-path="url(#clip-path)">
    <path id="Path_39360" data-name="Path 39360" d="M26.442,32.9V54.027a4.833,4.833,0,0,1-.327.662,1.784,1.784,0,0,1-1.6.718q-11.3,0-22.594,0c-.052,0-.1,0-.155,0A1.709,1.709,0,0,1,0,53.576Q0,43.467,0,33.358a1.689,1.689,0,0,1,1.791-1.8q1.265,0,2.531,0c.082,0,.164.009.262.014,0,.127,0,.229,0,.331,0,.886,0,1.773.01,2.659a1.669,1.669,0,0,0,.387,1.018,2.085,2.085,0,0,0,2.067.708,1.763,1.763,0,0,0,1.634-1.652c.069-.916.033-1.84.043-2.76,0-.1,0-.2,0-.3h9.2c0,.912-.006,1.807,0,2.7a1.894,1.894,0,0,0,1.13,1.842,2.672,2.672,0,0,0,1.5.134,1.578,1.578,0,0,0,1.517-1.64c-.01-.921,0-1.842,0-2.763v-.283c.989,0,1.945-.026,2.9.016a1.879,1.879,0,0,1,.817.338,1.845,1.845,0,0,1,.661.978M1.708,53.682H24.725V38.287H1.708Z" transform="translate(0 -29.407)" fill="#fff"/>
    <path id="Path_39361" data-name="Path 39361" d="M79.394,3.523c0-.637,0-1.274,0-1.911A1.031,1.031,0,0,1,80.479.528a2.759,2.759,0,0,1,.54.02,1.032,1.032,0,0,1,.838,1.037c.013,1.308.018,2.616,0,3.924a1.035,1.035,0,0,1-1.1,1.052,2.507,2.507,0,0,1-.563-.041.994.994,0,0,1-.792-.982c-.007-.671,0-1.343,0-2.014Z" transform="translate(-73.972 -0.489)" fill="#fff"/>
    <path id="Path_39362" data-name="Path 39362" d="M277.172,3.05c0,.62,0,1.239,0,1.859a1.031,1.031,0,0,1-1.115,1.13A2.3,2.3,0,0,1,275.468,6a1.032,1.032,0,0,1-.763-1.068q-.013-1.9,0-3.795A1.065,1.065,0,0,1,275.817,0c.712-.032,1.15.216,1.307.756a1.613,1.613,0,0,1,.046.432c0,.62,0,1.239,0,1.859" transform="translate(-255.942 0)" fill="#fff"/>
    <path id="Path_39363" data-name="Path 39363" d="M277.546,289.693c-.465,0-.929-.005-1.394,0-.231,0-.328-.1-.327-.324q.005-1.226,0-2.452c0-.218.1-.313.314-.312q1.42,0,2.839,0c.222,0,.327.092.326.327-.007.817-.006,1.635,0,2.452,0,.222-.1.31-.313.308-.482,0-.964,0-1.445,0" transform="translate(-256.993 -267.038)" fill="#fff"/>
    <path id="Path_39364" data-name="Path 39364" d="M59.623,289.692c-.465,0-.929-.005-1.394,0-.231,0-.331-.1-.33-.324q0-1.226,0-2.452c0-.215.1-.313.317-.312q1.42,0,2.84,0c.222,0,.328.092.326.327-.007.817-.005,1.635,0,2.452,0,.222-.1.31-.314.308-.482,0-.964,0-1.446,0" transform="translate(-53.946 -267.038)" fill="#fff"/>
    <path id="Path_39365" data-name="Path 39365" d="M132.277,289.693c-.465,0-.929-.005-1.394,0-.231,0-.329-.1-.328-.324q0-1.226,0-2.452c0-.217.1-.312.315-.312q1.42,0,2.839,0c.222,0,.328.092.327.327-.007.817-.005,1.635,0,2.452,0,.222-.1.31-.314.308-.482,0-.964,0-1.445,0" transform="translate(-121.641 -267.038)" fill="#fff"/>
    <path id="Path_39366" data-name="Path 39366" d="M204.9,289.683c-.465,0-.929-.007-1.394,0-.243,0-.344-.1-.343-.336q.006-1.213,0-2.426c0-.228.1-.327.329-.327q1.407,0,2.814,0c.235,0,.343.091.34.339-.009.809-.007,1.618,0,2.426,0,.234-.1.325-.326.322-.473-.006-.946,0-1.42,0" transform="translate(-189.293 -267.029)" fill="#fff"/>
    <path id="Path_39367" data-name="Path 39367" d="M204.9,163.545c-.464,0-.929-.007-1.393,0-.23.005-.334-.085-.333-.315q0-1.225,0-2.451c0-.218.1-.313.314-.313h2.864c.212,0,.306.1.3.32q-.01,1.225,0,2.451c0,.221-.092.309-.31.306-.481-.007-.963,0-1.445,0" transform="translate(-189.3 -149.513)" fill="#fff"/>
    <path id="Path_39368" data-name="Path 39368" d="M277.57,163.549c-.473,0-.946-.006-1.419,0-.219,0-.316-.086-.316-.3q0-1.238,0-2.477a.261.261,0,0,1,.3-.3q1.445,0,2.889,0c.2,0,.29.1.289.308q-.009,1.238,0,2.477c0,.209-.093.293-.3.291-.482-.005-.963,0-1.445,0" transform="translate(-257.002 -149.517)" fill="#fff"/>
    <path id="Path_39369" data-name="Path 39369" d="M59.616,226.771c-.456,0-.912,0-1.368,0-.3,0-.36-.063-.361-.368q0-1.174,0-2.348c0-.307.057-.358.363-.359q1.38,0,2.761,0c.317,0,.356.04.356.359,0,.791-.005,1.583,0,2.374,0,.246-.1.345-.336.343-.473,0-.946,0-1.419,0" transform="translate(-53.933 -208.422)" fill="#fff"/>
    <path id="Path_39370" data-name="Path 39370" d="M132.283,223.656c.464,0,.929.007,1.393,0,.239-.005.344.079.342.329q-.012,1.212,0,2.425c0,.237-.108.325-.327.325-.937,0-1.875,0-2.812,0-.234,0-.346-.091-.344-.337.006-.808,0-1.617,0-2.425,0-.228.1-.324.329-.319.473.01.946,0,1.419,0" transform="translate(-121.622 -208.383)" fill="#fff"/>
    <path id="Path_39371" data-name="Path 39371" d="M204.925,223.656c.473,0,.946,0,1.419,0,.22,0,.31.088.308.308q-.008,1.225,0,2.451c0,.221-.1.318-.306.318h-2.864a.273.273,0,0,1-.312-.315q0-1.225,0-2.451c0-.231.107-.318.335-.313.473.01.946,0,1.419,0" transform="translate(-189.299 -208.383)" fill="#fff"/>
    <path id="Path_39372" data-name="Path 39372" d="M277.55,223.663c.482,0,.963,0,1.445,0,.2,0,.3.081.3.29,0,.825-.005,1.651,0,2.477,0,.226-.109.31-.314.31-.946,0-1.892,0-2.838,0-.222,0-.329-.092-.328-.325.006-.817,0-1.634,0-2.451,0-.217.1-.308.315-.3.473.009.946,0,1.419,0" transform="translate(-256.982 -208.389)" fill="#fff"/>
  </g>
</svg>
