<svg width="42" height="42" viewBox="0 0 42 42" fill="none" xmlns="http://www.w3.org/2000/svg">
<rect width="42" height="42" fill="#E5E5E5"/>
<g clip-path="url(#clip0_0_1)">
<rect width="1440" height="3357" transform="translate(-1143 -490)" fill="white"/>
<rect width="1440" height="3357" transform="translate(-1143 -490)" fill="#0D0D0D"/>
<rect width="42" height="42" rx="4" fill="#2D2D2D"/>
<path d="M24.2989 14C22.6475 14 21.6051 14.862 21 15.6414C20.3951 14.862 19.3528 14 17.7009 14C14.8889 14 13 16.7939 13 19.4032C13 23.2019 19.8029 28.2928 20.5786 28.8607C20.7056 28.9536 20.8528 29 21 29C21.1472 29 21.2944 28.9534 21.4214 28.8607C22.1971 28.2928 29 23.2019 29 19.4032C29 16.7939 27.1108 14 24.2989 14ZM20.9997 27.2209C18.3208 25.1774 14.4951 21.5198 14.4951 19.4032C14.4951 17.8102 15.6092 15.6033 17.7009 15.6033C19.6035 15.6033 20.2753 17.3657 20.3012 17.4356C20.4105 17.7452 20.6871 17.9477 20.9957 17.9505H21.001C21.3077 17.9505 21.5844 17.7467 21.6973 17.441C21.7249 17.3658 22.3968 15.6034 24.2989 15.6034C26.3907 15.6034 27.5052 17.8099 27.5052 19.4033C27.5049 21.5174 23.6789 25.1761 20.9997 27.221L20.9997 27.2209Z" fill="white"/>
</g>
<defs>
<clipPath id="clip0_0_1">
<rect width="1440" height="3357" fill="white" transform="translate(-1143 -490)"/>
</clipPath>
</defs>
</svg>
