<svg xmlns="http://www.w3.org/2000/svg" id="Layer_2" data-name="Layer 2" viewBox="0 0 167.06 167.06"><defs><style>      .cls-1 {        fill: #fff;      }      .cls-1, .cls-2, .cls-3 {        stroke-width: 0px;      }      .cls-2 {        fill: #603192;      }      .cls-3 {        fill: #ed1b68;      }    </style></defs><g id="Layer_1-2" data-name="Layer 1"><g><rect class="cls-1" x="0" y="0" width="167.06" height="167.06" rx="83.53" ry="83.53"></rect><g><path class="cls-3" d="m72.17,97.44l-15.15,14.05h-22.57s17.41-56.22,17.41-56.22l64.52-.04,1.7-8.86H42.35l-21.9,70.73c-.55,1.77.77,3.56,2.63,3.56h35.43l19.32-17.91-5.67-5.31Z"></path><path class="cls-2" d="m123.86,49.1c-.52-1.62-2.03-2.72-3.73-2.72H42.35s9.48,8.91,9.48,8.91h64.5l18.45,57.65-21.67-.03-16.85-15.84-6.13,5.71,18.84,17.92,37.77-.11-22.88-71.48Z"></path><path class="cls-2" d="m112.5,66.61c-1.33-2.73-4.4-2.65-5.78-1.23l-22.21,20.63-23.13-21.75c-1.25-1.2-3.33-.69-3.89.95l-12.66,35.46h7.96s8.24-22.45,8.24-22.45c.58-1.62.78-2.03,2.02-.85l15.28,14.37-.02.02,5.68,5.3,21.1-19.57c1.27-1.18,1.94-1,2.48.64l7.2,22.53h8.41s-10.68-34.05-10.68-34.05Z"></path></g></g></g></svg>