<?xml version="1.0" encoding="UTF-8"?><svg id="Layer_2" xmlns="http://www.w3.org/2000/svg" viewBox="0 0 21.24 21.24"><defs><style>.cls-1{fill:#9e9e9e;}</style></defs><g id="Layer_1-2"><path class="cls-1" d="M16.68,0H4.55C2.04,0,0,2.04,0,4.55v12.13c0,2.51,2.04,4.55,4.55,4.55h12.13c2.51,0,4.55-2.04,4.55-4.55V4.55c0-2.51-2.04-4.55-4.55-4.55ZM7.03,15.29c-2.56,0-4.64-2.09-4.64-4.67s2.08-4.67,4.64-4.67,4.64,2.09,4.64,4.67-2.08,4.67-4.64,4.67Zm7.4-.27c-1.28,0-2.32-1.97-2.32-4.39s1.04-4.39,2.32-4.39,2.32,1.97,2.32,4.39-1.04,4.39-2.32,4.39Zm3.58-.46c-.45,0-.82-1.76-.82-3.94s.36-3.94,.82-3.94,.82,1.76,.82,3.94-.37,3.94-.82,3.94Z"/></g></svg>