<svg width="412" height="410" viewBox="0 0 412 410" fill="none" xmlns="http://www.w3.org/2000/svg">
<path fill-rule="evenodd" clip-rule="evenodd" d="M10 0C4.47715 0 0 4.47714 0 9.99999V189.166C5.67543 190.118 10 195.054 10 201C10 206.946 5.67543 211.882 0 212.834V400C0 405.523 4.47715 410 10 410H402C407.523 410 412 405.523 412 400V212.834C406.325 211.882 402 206.946 402 201C402 195.054 406.325 190.118 412 189.166V10C412 4.47715 407.523 0 402 0H10ZM14 201H17.0078V199H14V201ZM23.0234 201H29.0391V199H23.0234V201ZM35.0547 201H41.0703V199H35.0547V201ZM47.0859 201H53.1016V199H47.0859V201ZM59.1172 201H65.1328V199H59.1172V201ZM71.1484 201H77.1641V199H71.1484V201ZM83.1797 201H89.1953V199H83.1797V201ZM95.2109 201H101.227V199H95.2109V201ZM107.242 201H113.258V199H107.242V201ZM119.273 201H125.289V199H119.273V201ZM131.305 201H137.32V199H131.305V201ZM143.336 201H149.352V199H143.336V201ZM155.367 201H161.383V199H155.367V201ZM167.398 201H173.414V199H167.398V201ZM179.43 201H185.445V199H179.43V201ZM191.461 201H197.477V199H191.461V201ZM203.492 201H209.508V199H203.492V201ZM215.523 201H221.539V199H215.523V201ZM227.555 201H233.57V199H227.555V201ZM239.586 201H245.602V199H239.586V201ZM251.617 201H257.633V199H251.617V201ZM263.648 201H269.664V199H263.648V201ZM275.68 201H281.695V199H275.68V201ZM287.711 201H293.727V199H287.711V201ZM299.742 201H305.758V199H299.742V201ZM311.773 201H317.789V199H311.773V201ZM323.805 201H329.82V199H323.805V201ZM335.836 201H341.852V199H335.836V201ZM347.867 201H353.883V199H347.867V201ZM359.898 201H365.914V199H359.898V201ZM371.93 201H377.945V199H371.93V201ZM383.961 201H389.977V199H383.961V201ZM395.992 201H399V199H395.992V201Z" fill="#202020"/>
</svg>
