<svg xmlns="http://www.w3.org/2000/svg" xmlns:xlink="http://www.w3.org/1999/xlink" width="35" height="26.907" viewBox="0 0 35 26.907">
  <defs>
    <clipPath id="clip-path">
      <rect id="Rectangle_975" data-name="Rectangle 975" width="35" height="26.907" fill="#fff"/>
    </clipPath>
  </defs>
  <g id="Group_1700" data-name="Group 1700" clip-path="url(#clip-path)">
    <path id="Path_39355" data-name="Path 39355" d="M301.656,211.635c-.784.268-1.57.529-2.349.811a.708.708,0,0,0-.34.29c-.4.7-.79,1.4-1.209,2.155-.483-.644-.944-1.246-1.388-1.86a.9.9,0,0,0-.63-.4c-.749-.125-1.492-.291-2.289-.45l.91-1.3a2.025,2.025,0,0,0,.5-2.186c-.073-.469-.116-.942-.177-1.455.75.23,1.46.426,2.154.668a1.07,1.07,0,0,0,.9-.067c.648-.325,1.313-.616,2.057-.961,0,.712.03,1.362-.009,2.008a1.448,1.448,0,0,0,.489,1.263c.485.444.917.944,1.373,1.42Z" transform="translate(-266.656 -187.986)" fill="#fff"/>
    <path id="Path_39356" data-name="Path 39356" d="M108.765,115.724c-.512-.194-.988-.372-1.462-.554-1.251-.481-2.5-.97-3.755-1.439a.786.786,0,0,0-.508,0c-1.615.608-3.224,1.232-4.835,1.852-.115.044-.233.083-.386.136-.005-.114-.016-.2-.011-.282.091-1.754.189-3.507.266-5.262a.893.893,0,0,0-.174-.549c-1.147-1.446-2.31-2.878-3.5-4.35.147-.049.267-.1.39-.128,1.656-.443,3.315-.877,4.967-1.335a.942.942,0,0,0,.489-.363c1.01-1.53,2-3.072,3.029-4.658.087.124.157.218.221.316.924,1.424,1.852,2.845,2.765,4.276a.976.976,0,0,0,.626.459c1.745.455,3.486.927,5.267,1.4-.06.093-.1.167-.151.231-1.1,1.366-2.2,2.734-3.312,4.092a.864.864,0,0,0-.208.65c.1,1.753.189,3.507.281,5.261,0,.066,0,.131,0,.244" transform="translate(-85.782 -89.769)" fill="#fff"/>
    <path id="Path_39357" data-name="Path 39357" d="M8.215,212.16c-.82.164-1.6.308-2.373.482a.878.878,0,0,0-.466.28c-.494.623-.962,1.267-1.472,1.948-.339-.608-.69-1.165-.966-1.757a1.527,1.527,0,0,0-1.069-.885c-.621-.17-1.224-.407-1.869-.627.56-.606,1.084-1.191,1.629-1.755a.777.777,0,0,0,.231-.605c-.012-.773,0-1.546,0-2.39.8.367,1.5.708,2.214,1.01a1.052,1.052,0,0,0,.638.043c.743-.2,1.475-.445,2.259-.688-.052.472-.1.907-.148,1.342-.04.351-.066.7-.133,1.05a.709.709,0,0,0,.151.6c.459.635.9,1.28,1.378,1.956" transform="translate(0 -187.963)" fill="#fff"/>
    <path id="Path_39358" data-name="Path 39358" d="M76.329,65.263l-3.956-3.817L73.74,60.02,77.7,63.839l-1.372,1.424" transform="translate(-65.765 -54.54)" fill="#fff"/>
    <path id="Path_39359" data-name="Path 39359" d="M254.494,65.532l-1.342-1.386,3.94-3.814,1.339,1.4-3.936,3.8" transform="translate(-230.037 -54.823)" fill="#fff"/>
    <rect id="Rectangle_974" data-name="Rectangle 974" width="2.016" height="5.214" transform="translate(16.495 0)" fill="#fff"/>
  </g>
</svg>
