<svg width="42" height="42" viewBox="0 0 42 42" fill="none" xmlns="http://www.w3.org/2000/svg">
<rect width="42" height="42" fill="#E5E5E5"/>
<g clip-path="url(#clip0_0_1)">
<rect width="1440" height="3357" transform="translate(-1200 -490)" fill="white"/>
<rect width="1440" height="3357" transform="translate(-1200 -490)" fill="#0D0D0D"/>
<rect width="42" height="42" rx="4" fill="#2D2D2D"/>
<path d="M25.3236 13.0001C23.8528 13.0001 22.6472 14.2013 22.6472 15.6668C22.6472 15.9508 22.6921 16.23 22.7758 16.4872L18.3557 18.9358C17.8951 18.5632 17.3118 18.3333 16.6765 18.3333C15.2056 18.3333 14 19.5345 14 21C14 22.4654 15.2056 23.6666 16.6765 23.6666C17.3116 23.6666 17.8951 23.4431 18.3557 23.0706L22.7821 25.5193C22.6979 25.7772 22.6471 26.0484 22.6471 26.3333C22.6471 27.7988 23.8527 29 25.3235 29C26.7944 29 28 27.7988 28 26.3333C28 24.8679 26.7944 23.6667 25.3235 23.6667C24.5848 23.6667 23.9114 23.9743 23.4256 24.4615L19.1213 22.0768C19.2683 21.7475 19.3529 21.3817 19.3529 21C19.3529 20.6161 19.2699 20.2538 19.1213 19.9232L23.419 17.5385C23.9053 18.0296 24.5813 18.3333 25.3234 18.3333C26.7942 18.3333 27.9999 17.1321 27.9999 15.6667C27.9999 14.2012 26.7942 13 25.3234 13L25.3236 13.0001ZM25.3236 14.2309C26.1268 14.2309 26.7647 14.8665 26.7647 15.6668C26.7647 16.467 26.1268 17.1026 25.3236 17.1026C24.5204 17.1026 23.8825 16.467 23.8825 15.6668C23.8825 14.8665 24.5204 14.2309 25.3236 14.2309ZM16.6767 19.5642C17.4799 19.5642 18.1178 20.1998 18.1178 21C18.1178 21.8003 17.4799 22.4359 16.6767 22.4359C15.8735 22.4359 15.2356 21.8003 15.2356 21C15.2356 20.1998 15.8735 19.5642 16.6767 19.5642ZM25.3236 24.8975C26.1268 24.8975 26.7647 25.5331 26.7647 26.3333C26.7647 27.1336 26.1268 27.7691 25.3236 27.7691C24.5204 27.7691 23.8825 27.1335 23.8825 26.3333C23.8825 25.533 24.5204 24.8975 25.3236 24.8975Z" fill="white" stroke="white" stroke-width="0.5"/>
</g>
<defs>
<clipPath id="clip0_0_1">
<rect width="1440" height="3357" fill="white" transform="translate(-1200 -490)"/>
</clipPath>
</defs>
</svg>
