<svg xmlns="http://www.w3.org/2000/svg" xmlns:xlink="http://www.w3.org/1999/xlink" width="32.358" height="22.602" viewBox="0 0 32.358 22.602">
  <defs>
    <clipPath id="clip-path">
      <rect id="Rectangle_973" data-name="Rectangle 973" width="32.358" height="22.602" fill="#fff"/>
    </clipPath>
  </defs>
  <g id="Group_1698" data-name="Group 1698" clip-path="url(#clip-path)">
    <path id="Path_39354" data-name="Path 39354" d="M0,12.666V9.942c.022-.272.041-.544.066-.815C.214,7.5.339,5.872.522,4.25a4.21,4.21,0,0,1,1.67-2.978A4.689,4.689,0,0,1,4.827.4C7.215.244,9.606.054,12,.023c3.6-.048,7.2-.017,10.791.067,1.831.043,3.662.232,5.484.433a3.985,3.985,0,0,1,3.525,3.2,22.928,22.928,0,0,1,.544,4.959c.032,2.087.017,4.178-.069,6.263a26.7,26.7,0,0,1-.44,3.733,3.837,3.837,0,0,1-3.392,3.358,40.607,40.607,0,0,1-4.69.42q-4.491.15-8.987.146A83.985,83.985,0,0,1,4.339,22.1,4.068,4.068,0,0,1,.6,18.665C.363,17.4.268,16.116.138,14.838.064,14.117.044,13.39,0,12.666M12.995,6.423v9.729l8.446-4.865L12.995,6.423" transform="translate(0 0)" fill="#fff"/>
  </g>
</svg>
