<svg width="25" height="23" viewBox="0 0 25 23" fill="none" xmlns="http://www.w3.org/2000/svg">
<path d="M14.6153 15.7243C13.6662 15.7243 12.8959 14.9828 12.8959 14.0692V12.414C12.8959 11.4996 13.6662 10.7588 14.6153 10.7588H24.932V15.7243H14.6153ZM15.9049 12.0689C15.1932 12.0689 14.6153 12.6251 14.6153 13.3103C14.6153 13.9964 15.1932 14.5517 15.9049 14.5517C16.6177 14.5517 17.1945 13.9964 17.1945 13.3103C17.1945 12.6251 16.6177 12.0689 15.9049 12.0689ZM12.0362 12.414V14.0692C12.0362 15.4396 13.1916 16.5519 14.6153 16.5519H23.2126V19.8623C23.2126 21.2327 22.0579 22.345 20.6334 22.345H2.57918C1.15547 22.345 0 21.2327 0 19.8623V4.13812C0 2.76688 1.15547 1.65536 2.57918 1.65536H10.8601L8.84048 2.46559H2.15035C1.43859 2.46559 0.860757 3.02182 0.860757 3.70697C0.860757 4.39212 1.43859 4.94835 2.15035 4.94835H23.2126V9.93137H14.6154C13.1917 9.93137 12.0362 11.0429 12.0362 12.4141L12.0362 12.414ZM3.43988 6.62088H1.72043V8.27605H2.58016V7.44846H3.43988V6.62088ZM3.43988 9.10364H1.72043V10.7588H2.61548L2.58017 9.93122L3.4399 9.94859L3.43988 9.10364ZM3.43988 11.5864H1.72043V13.2416H2.59819L2.58015 12.414H3.43988L3.43988 11.5864ZM3.43988 14.0692H1.72043V15.7243H2.59819L2.58015 14.8967L3.43988 14.9141L3.43988 14.0692ZM3.43988 16.5519H1.72043V18.2071H2.58016V17.3795H3.43988V16.5519ZM3.43988 19.0347H1.72043V20.6898H2.59819L2.58015 19.8796H3.43988L3.43988 19.0347ZM6.87879 4.08657L16.9803 0L18.9147 4.08657H6.87879ZM18.6099 1.65517H20.6337C21.3867 1.65517 22.0574 1.97051 22.5293 2.4654H19.0207L18.6099 1.65517Z" fill="black"/>
<path d="M14.6153 15.7243C13.6662 15.7243 12.8959 14.9828 12.8959 14.0692V12.414C12.8959 11.4996 13.6662 10.7588 14.6153 10.7588H24.932V15.7243H14.6153ZM15.9049 12.0689C15.1932 12.0689 14.6153 12.6251 14.6153 13.3103C14.6153 13.9964 15.1932 14.5517 15.9049 14.5517C16.6177 14.5517 17.1945 13.9964 17.1945 13.3103C17.1945 12.6251 16.6177 12.0689 15.9049 12.0689ZM12.0362 12.414V14.0692C12.0362 15.4396 13.1916 16.5519 14.6153 16.5519H23.2126V19.8623C23.2126 21.2327 22.0579 22.345 20.6334 22.345H2.57918C1.15547 22.345 0 21.2327 0 19.8623V4.13812C0 2.76688 1.15547 1.65536 2.57918 1.65536H10.8601L8.84048 2.46559H2.15035C1.43859 2.46559 0.860757 3.02182 0.860757 3.70697C0.860757 4.39212 1.43859 4.94835 2.15035 4.94835H23.2126V9.93137H14.6154C13.1917 9.93137 12.0362 11.0429 12.0362 12.4141L12.0362 12.414ZM3.43988 6.62088H1.72043V8.27605H2.58016V7.44846H3.43988V6.62088ZM3.43988 9.10364H1.72043V10.7588H2.61548L2.58017 9.93122L3.4399 9.94859L3.43988 9.10364ZM3.43988 11.5864H1.72043V13.2416H2.59819L2.58015 12.414H3.43988L3.43988 11.5864ZM3.43988 14.0692H1.72043V15.7243H2.59819L2.58015 14.8967L3.43988 14.9141L3.43988 14.0692ZM3.43988 16.5519H1.72043V18.2071H2.58016V17.3795H3.43988V16.5519ZM3.43988 19.0347H1.72043V20.6898H2.59819L2.58015 19.8796H3.43988L3.43988 19.0347ZM6.87879 4.08657L16.9803 0L18.9147 4.08657H6.87879ZM18.6099 1.65517H20.6337C21.3867 1.65517 22.0574 1.97051 22.5293 2.4654H19.0207L18.6099 1.65517Z" fill="url(#paint0_linear_983_2538)"/>
<defs>
<linearGradient id="paint0_linear_983_2538" x1="-1.85758e-07" y1="11.1725" x2="24.932" y2="11.1725" gradientUnits="userSpaceOnUse">
<stop stop-color="#F2B01C"/>
<stop offset="1" stop-color="#EBCE2C"/>
</linearGradient>
</defs>
</svg>
