<svg width="95" height="95" viewBox="0 0 95 95" fill="none" xmlns="http://www.w3.org/2000/svg">
<g opacity="1">
<path d="M47.5129 95C38.1172 95.0026 28.9318 92.2186 21.1185 87.0002C13.3052 81.7818 7.21499 74.3635 3.61822 65.6834C0.0214537 57.0034 -0.920296 47.4517 0.912089 38.2364C2.74447 29.0211 7.26867 20.5562 13.9124 13.9124C20.5562 7.26867 29.0211 2.74447 38.2364 0.912089C47.4517 -0.920296 57.0034 0.0214537 65.6834 3.61822C74.3635 7.21499 81.7818 13.3052 87.0002 21.1185C92.2186 28.9318 95.0026 38.1172 95 47.5129C94.9829 60.102 89.9743 72.1706 81.0724 81.0724C72.1706 89.9743 60.102 94.9829 47.5129 95ZM47.5129 3.85802C38.8783 3.85546 30.4368 6.4136 23.256 11.2089C16.0753 16.0042 10.4779 22.8213 7.17182 30.798C3.8657 38.7746 2.99934 47.5526 4.68231 56.0217C6.36528 64.4907 10.522 72.2705 16.6267 78.3771C22.7315 84.4836 30.51 88.6426 38.9786 90.3281C47.4472 92.0136 56.2254 91.1498 64.203 87.8461C72.1807 84.5423 78.9994 78.947 83.7969 71.7677C88.5943 64.5884 91.1549 56.1476 91.1549 47.5129C91.131 35.9481 86.5245 24.8642 78.3445 16.689C70.1644 8.51388 59.0778 3.91396 47.5129 3.89686V3.85802Z" fill="white"/>
</g>
</svg>
