<svg id="Group_1607" data-name="Group 1607" xmlns="http://www.w3.org/2000/svg" xmlns:xlink="http://www.w3.org/1999/xlink" width="25.49" height="18.667" viewBox="0 0 25.49 18.667">
  <defs>
    <clipPath id="clip-path">
      <rect id="Rectangle_942" data-name="Rectangle 942" width="25.49" height="18.666" fill="none"/>
    </clipPath>
  </defs>
  <g id="Group_1606" data-name="Group 1606" clip-path="url(#clip-path)">
    <path id="Path_39326" data-name="Path 39326" d="M0,4.882V4.528a.677.677,0,0,1,.76-.31,12.653,12.653,0,0,0,6.357-.677c1.723-.628,3.408-1.358,5.11-2.041A18.863,18.863,0,0,1,17.239.1c.2-.022.406-.065.609-.1h1.629c.2.033.4.082.609.1A2.21,2.21,0,0,1,22.1,1.619c.2.491.412.976.617,1.464.863,2.05,1.731,4.1,2.587,6.15.383.918.179,1.178-.8,1.063-.339-.04-.68-.082-1.021-.1a15.575,15.575,0,0,0-6.532,1.307c-1.891.754-3.763,1.56-5.676,2.251a12.571,12.571,0,0,1-6.058.668,2.077,2.077,0,0,1-1.694-1.232c-.453-.983-.849-1.991-1.271-2.988Q1.129,7.543,0,4.882M12.618,3.293A3.952,3.952,0,0,0,8.831,7.071,4.126,4.126,0,0,0,12.9,11.25a3.933,3.933,0,0,0,3.773-3.865,4.119,4.119,0,0,0-4.058-4.092" fill="#fff"/>
    <path id="Path_39327" data-name="Path 39327" d="M0,117.74a2.122,2.122,0,0,1,.47-.271c.222-.062.379.023.484.276.82,1.977,1.665,3.944,2.491,5.919a2.333,2.333,0,0,0,2.111,1.5,15.145,15.145,0,0,0,7.141-1.21c1.915-.758,3.806-1.579,5.739-2.288a13.177,13.177,0,0,1,5.7-.738c.365.031.631.11.751.523.127.437.355.845.52,1.272.231.6-.02.875-.666.847a27.576,27.576,0,0,0-3.207-.039,15.868,15.868,0,0,0-4.789,1.3c-1.515.618-3.013,1.277-4.54,1.862A14.233,14.233,0,0,1,6.3,127.757c-.353-.019-.705-.046-1.056-.087a2.1,2.1,0,0,1-1.78-1.368Q1.778,122.322.1,118.338a1.528,1.528,0,0,0-.1-.173v-.424" transform="translate(0 -109.108)" fill="#fff"/>
    <path id="Path_39328" data-name="Path 39328" d="M152.655,61.8a7.3,7.3,0,0,0-.762.144,2.035,2.035,0,0,0-.567.27.412.412,0,0,0-.154.316c.006.072.156.168.255.187a3.49,3.49,0,0,0,.559.03,6.715,6.715,0,0,1,.913.033,1.374,1.374,0,0,1,.736,2.343c-.269.268-.409.481-.208.871.192.373-.254.331-.416.458a.221.221,0,0,1-.383-.128c-.089-.332-.283-.436-.6-.274a.4.4,0,0,1-.1.025c-.758.154-1.012-.059-.96-.833,0-.073.153-.171.25-.2.329-.085.668-.129,1-.216a.942.942,0,0,0,.36-.212.3.3,0,0,0-.132-.55,2.02,2.02,0,0,0-.491-.025c-.259,0-.52.039-.776.017a1.292,1.292,0,0,1-1.228-.8,1.361,1.361,0,0,1,.342-1.556.518.518,0,0,0,.15-.7.363.363,0,0,1,.116-.329c.376-.257.479-.215.776.16a.382.382,0,0,0,.326.074c.854-.22.917-.181,1,.688.005.057,0,.115,0,.2" transform="translate(-139.193 -56.214)" fill="#fff"/>
  </g>
</svg>
