<svg id="Group_1653" data-name="Group 1653" xmlns="http://www.w3.org/2000/svg" xmlns:xlink="http://www.w3.org/1999/xlink" width="30.793" height="32.205" viewBox="0 0 30.793 32.205">
  <defs>
    <clipPath id="clip-path">
      <rect id="Rectangle_952" data-name="Rectangle 952" width="30.793" height="32.205" fill="none"/>
    </clipPath>
  </defs>
  <g id="Group_1657" data-name="Group 1657" clip-path="url(#clip-path)">
    <path id="Path_39340" data-name="Path 39340" d="M19.156.042c.275,4.791.332,9.545-1.428,14.124C20.7,9.889,21.366,5.12,20.7.011c.447.041.885.077,1.323.121s.879.1,1.376.152c-.3.523-.546,1.024-.867,1.473-.109.152-.4.172-.729.3.625-.148.714.14.767.584a2.024,2.024,0,0,0,.849,1.388,3.825,3.825,0,0,1,2.226-2.311c3.286-1.38,5.24,1.425,5.141,3.691A5.571,5.571,0,0,1,29.222,8.8a27.307,27.307,0,0,1-4.378,3.766c-1.1.838-2.2,1.685-3.222,2.609a7.571,7.571,0,0,0-1.431,1.788,1.649,1.649,0,0,0,.937,2.637.777.777,0,0,1,.144.112c-.167.319-.443.2-.657.153A2.051,2.051,0,0,1,19.1,17.9c0-.18.026-.36.046-.624-.26.321-.477.6-.7.864a9.263,9.263,0,0,1-.747.8,51.048,51.048,0,0,0,4.024-8.683c-.064.137-.13.272-.191.41a53.326,53.326,0,0,1-4.3,8.322,2.384,2.384,0,0,0-.1,2.586,1.4,1.4,0,0,0,.591.515.8.8,0,0,1,.153,1.25,2.392,2.392,0,0,1-.309.181l2.222,2.843a5.242,5.242,0,0,1-2.967.678c.643.321,1.483.2,3.631-.535.226.43.462.867.684,1.311a.807.807,0,0,0,.646.52.71.71,0,0,1,.436.386,23.655,23.655,0,0,1,.908,2.249,5.359,5.359,0,0,1,.1,1.232H7.524a11.56,11.56,0,0,1,.269-1.542,14.29,14.29,0,0,1,.772-1.9c.092-.193.346-.312.531-.458.165-.13.391-.218.494-.384.277-.449.5-.929.764-1.426a5.949,5.949,0,0,0,3.613.581,5.68,5.68,0,0,1-2.96-.711L13.253,23.5a.7.7,0,0,1-.529-.922.608.608,0,0,1,.286-.421c.726-.226.837-.85.944-1.443a2.3,2.3,0,0,0-.374-1.722,52.68,52.68,0,0,1-4.358-8.432.987.987,0,0,0-.17-.287,57.462,57.462,0,0,0,4.021,8.683c-.227-.26-.458-.515-.68-.78s-.453-.56-.757-.938a2.109,2.109,0,0,1-1.1,2.5.863.863,0,0,1-1.035-.01,2.162,2.162,0,0,1,.281-.158,1.55,1.55,0,0,0,1-2.176,5.266,5.266,0,0,0-1.171-1.757C8.349,14.479,7,13.405,5.653,12.348A27.2,27.2,0,0,1,1.607,8.837a5.773,5.773,0,0,1-1.6-3.384A3.875,3.875,0,0,1,3.06,1.379a4.261,4.261,0,0,1,4.172,2.3c.044.1.083.207.136.341A1.921,1.921,0,0,0,8.229,2.6c.044-.466.2-.655.689-.621-.555.06-.753-.292-.945-.678C7.808.971,7.608.654,7.394.28L10.1,0C9.43,5.1,10.089,9.88,13.08,14.162c-.261-.829-.564-1.648-.777-2.49a32.147,32.147,0,0,1-.794-8.528c.017-.922.084-1.843.119-2.765.009-.241.05-.381.35-.379,2.307.012,4.615.006,6.922.008a2.323,2.323,0,0,1,.257.035m2.1,13.671c1.387-1.079,2.745-2.13,4.1-3.188a11.9,11.9,0,0,0,2.872-2.91,4.566,4.566,0,0,0,.771-3.384A2.274,2.274,0,0,0,26.615,2.3a2.226,2.226,0,0,0-2.369,1.719,3.959,3.959,0,0,0-.1,1.161c.023.413-.121.568-.545.5a27.48,27.48,0,0,1-2.35,8.039M7.2,5.664c-.42.076-.592-.068-.537-.467a3,3,0,0,0,.006-.544A2.315,2.315,0,0,0,4.373,2.3,2.309,2.309,0,0,0,1.791,4.377a4.652,4.652,0,0,0,.938,3.464A12.367,12.367,0,0,0,5.4,10.487q1.778,1.4,3.561,2.794c.1.078.186.169.281.252s.166.14.249.21A29.72,29.72,0,0,1,7.2,5.664" transform="translate(0 0.001)" fill="#fff"/>
  </g>
</svg>
