<svg xmlns="http://www.w3.org/2000/svg" width="37.504" height="32.205" viewBox="0 0 37.504 32.205">
  <g id="Group_1586" data-name="Group 1586" transform="translate(-368.133 -871.503)">
    <path id="Path_39311" data-name="Path 39311" d="M38.408,48.782c1.215-.456,2.324-.859,3.421-1.291.526-.207.745.19,1.02.464q6.668,6.658,13.324,13.327c.29.29.886.541.208,1.075-.433.341-.64.812-1.351.209-4.192-3.55-8.449-7.024-12.683-10.524-1.285-1.062-2.568-2.126-3.939-3.261" transform="translate(336.285 829.67)" fill="#fff"/>
    <path id="Path_39312" data-name="Path 39312" d="M65.475,21.886c1.721,2.082,3.37,4.076,5.019,6.072,2.912,3.525,5.793,7.075,8.759,10.554.6.7.153.916-.2,1.357-.463.586-.709.177-1.016-.131Q71.309,33,64.566,26.278a.973.973,0,0,1-.272-1.247c.423-.994.766-2.023,1.181-3.145" transform="translate(314.921 850.852)" fill="#fff"/>
    <path id="Path_39313" data-name="Path 39313" d="M140.27,116a1.059,1.059,0,0,1-.343,1.076q-3.112,3.108-6.216,6.222a.91.91,0,0,1-1.427.036c-.025-.023-.044-.053-.069-.075-1.959-1.745-1.959-1.744-.122-3.582q2.5-2.5,4.991-4.99c.876-.873,1.111-.884,1.991.032.459.479,1.1.83,1.2,1.28" transform="translate(259.742 774.451)" fill="#fff"/>
    <path id="Path_39314" data-name="Path 39314" d="M42.6,119.887a5.246,5.246,0,0,1-1.917,2.071c-.668.478-1.041-.212-1.429-.6-1.915-1.895-3.795-3.826-5.73-5.7-.711-.689-.662-1.2.012-1.873,1.874-1.866,1.673-1.687,3.3-.054q2.6,2.607,5.208,5.21a1.411,1.411,0,0,1,.553.942" transform="translate(340.761 775.763)" fill="#fff"/>
    <path id="Path_39315" data-name="Path 39315" d="M174.409,156.031a1.548,1.548,0,0,1-.93,1.53,1.658,1.658,0,0,1-1.969-.387q-2.709-2.717-5.423-5.43c-1.284-1.285-1.285-1.285-.032-2.539,1.1-1.1,1.1-1.1,2.175-.034q2.714,2.713,5.431,5.423a1.913,1.913,0,0,1,.749,1.436" transform="translate(231.226 745.979)" fill="#fff"/>
    <path id="Path_39316" data-name="Path 39316" d="M1.748,155.634a1.548,1.548,0,0,1-1.551-.9,1.561,1.561,0,0,1,.274-1.89C2.609,150.7,4.76,148.555,6.9,146.4c.269-.272.431-.285.747-.024,2.187,1.81,2.195,1.8.224,3.772q-2.386,2.386-4.772,4.774a1.818,1.818,0,0,1-1.346.71" transform="translate(368.133 747.789)" fill="#fff"/>
    <path id="Path_39317" data-name="Path 39317" d="M136.241,47.122c-2.477,2.048-4.849,4-7.2,5.969-.356.3-.543.257-.8-.087a12.5,12.5,0,0,0-1.044-1.261c-.335-.347-.316-.575.033-.917,1.612-1.575,3.2-3.179,4.79-4.771.189-.189.339-.382.693-.241,1.129.45,2.278.851,3.524,1.31" transform="translate(262.866 831.054)" fill="#fff"/>
    <path id="Path_39318" data-name="Path 39318" d="M120.029,20.607a3.18,3.18,0,0,1,.176.318c.4,1.153,1.347,2.353,1.089,3.428-.233.97-1.471,1.7-2.277,2.531-1,1.022-2,2.032-3.054,3.094-.629-.822-1.593-1.534-1.617-2.277-.022-.673.971-1.388,1.532-2.071,1.362-1.659,2.733-3.31,4.151-5.024" transform="translate(273.323 851.912)" fill="#fff"/>
    <path id="Path_39319" data-name="Path 39319" d="M157.063,14.734c.7-.245.8.146.716.842-.193,1.525-.341,3.056-.488,4.587-.047.495-.2.7-.695.41a1.693,1.693,0,0,0-.292-.094c-3.266-1.181-3.252-1.186-4.365-4.485-.2-.594-.1-.774.524-.821,1.5-.112,2.993-.282,4.6-.439" transform="translate(242.231 856.843)" fill="#fff"/>
    <path id="Path_39320" data-name="Path 39320" d="M39,16.991c-.478,1.287-.928,2.46-1.345,3.646a.8.8,0,0,1-.551.53q-1.535.554-3.055,1.149c-.426.167-.595.051-.638-.4-.157-1.663-.334-3.324-.51-4.985-.038-.354-.018-.591.456-.538,1.856.21,3.715.4,5.644.6" transform="translate(340.859 855.415)" fill="#fff"/>
    <path id="Path_39321" data-name="Path 39321" d="M79.28,111.875c-1.216,1.01-2.4,1.928-3.507,2.938-.7.636-.9-.043-1.283-.326-.556-.407-.159-.659.127-.943.8-.793,1.627-1.556,2.372-2.395.483-.544.855-.67,1.371-.08a8.848,8.848,0,0,0,.92.805" transform="translate(306.601 777.23)" fill="#fff"/>
    <path id="Path_39322" data-name="Path 39322" d="M65.731,105.357c-.28-.345-.545-.691-.832-1.018-.253-.289.031-.43.158-.588.77-.958,1.568-1.893,2.327-2.86.312-.4.528-.361.9-.062,1.132.9,1.148.882.143,1.887q-1.051,1.051-2.1,2.1c-.144.143-.3.274-.6.541" transform="translate(314.406 785.589)" fill="#fff"/>
  </g>
</svg>
