<svg xmlns="http://www.w3.org/2000/svg" width="263" height="341" viewBox="0 0 263 341">
  <g id="Group_1594" data-name="Group 1594" transform="translate(-101 -958)">
    <g id="Group_1591" data-name="Group 1591" transform="translate(101 958)" opacity="0.25">
      <circle id="Ellipse_100" data-name="Ellipse 100" cx="5.5" cy="5.5" r="5.5" fill="#481a7f"/>
      <circle id="Ellipse_117" data-name="Ellipse 117" cx="5.5" cy="5.5" r="5.5" transform="translate(14)" fill="#481a7f"/>
      <circle id="Ellipse_125" data-name="Ellipse 125" cx="5.5" cy="5.5" r="5.5" transform="translate(28)" fill="#481a7f"/>
      <circle id="Ellipse_132" data-name="Ellipse 132" cx="5.5" cy="5.5" r="5.5" transform="translate(41)" fill="#481a7f"/>
      <circle id="Ellipse_138" data-name="Ellipse 138" cx="5.5" cy="5.5" r="5.5" transform="translate(55)" fill="#481a7f"/>
      <circle id="Ellipse_143" data-name="Ellipse 143" cx="5.5" cy="5.5" r="5.5" transform="translate(69)" fill="#481a7f"/>
      <circle id="Ellipse_147" data-name="Ellipse 147" cx="5.5" cy="5.5" r="5.5" transform="translate(83)" fill="#481a7f"/>
      <circle id="Ellipse_148" data-name="Ellipse 148" cx="5.5" cy="5.5" r="5.5" transform="translate(96)" fill="#481a7f"/>
      <circle id="Ellipse_151" data-name="Ellipse 151" cx="5.5" cy="5.5" r="5.5" transform="translate(110)" fill="#481a7f"/>
      <circle id="Ellipse_101" data-name="Ellipse 101" cx="5.5" cy="5.5" r="5.5" transform="translate(0 14)" fill="#481a7f"/>
      <circle id="Ellipse_116" data-name="Ellipse 116" cx="5.5" cy="5.5" r="5.5" transform="translate(14 14)" fill="#481a7f"/>
      <circle id="Ellipse_124" data-name="Ellipse 124" cx="5.5" cy="5.5" r="5.5" transform="translate(28 14)" fill="#481a7f"/>
      <circle id="Ellipse_131" data-name="Ellipse 131" cx="5.5" cy="5.5" r="5.5" transform="translate(41 14)" fill="#481a7f"/>
      <circle id="Ellipse_137" data-name="Ellipse 137" cx="5.5" cy="5.5" r="5.5" transform="translate(55 14)" fill="#481a7f"/>
      <circle id="Ellipse_142" data-name="Ellipse 142" cx="5.5" cy="5.5" r="5.5" transform="translate(69 14)" fill="#481a7f"/>
      <circle id="Ellipse_146" data-name="Ellipse 146" cx="5.5" cy="5.5" r="5.5" transform="translate(83 14)" fill="#481a7f"/>
      <circle id="Ellipse_149" data-name="Ellipse 149" cx="5.5" cy="5.5" r="5.5" transform="translate(96 14)" fill="#481a7f"/>
      <circle id="Ellipse_102" data-name="Ellipse 102" cx="5.5" cy="5.5" r="5.5" transform="translate(0 28)" fill="#481a7f"/>
      <circle id="Ellipse_115" data-name="Ellipse 115" cx="5.5" cy="5.5" r="5.5" transform="translate(14 28)" fill="#481a7f"/>
      <circle id="Ellipse_123" data-name="Ellipse 123" cx="5.5" cy="5.5" r="5.5" transform="translate(28 28)" fill="#481a7f"/>
      <circle id="Ellipse_130" data-name="Ellipse 130" cx="5.5" cy="5.5" r="5.5" transform="translate(41 28)" fill="#481a7f"/>
      <circle id="Ellipse_136" data-name="Ellipse 136" cx="5.5" cy="5.5" r="5.5" transform="translate(55 28)" fill="#481a7f"/>
      <circle id="Ellipse_141" data-name="Ellipse 141" cx="5.5" cy="5.5" r="5.5" transform="translate(69 28)" fill="#481a7f"/>
      <circle id="Ellipse_145" data-name="Ellipse 145" cx="5.5" cy="5.5" r="5.5" transform="translate(83 28)" fill="#481a7f"/>
      <circle id="Ellipse_103" data-name="Ellipse 103" cx="5.5" cy="5.5" r="5.5" transform="translate(0 41)" fill="#481a7f"/>
      <circle id="Ellipse_114" data-name="Ellipse 114" cx="5.5" cy="5.5" r="5.5" transform="translate(14 41)" fill="#481a7f"/>
      <circle id="Ellipse_122" data-name="Ellipse 122" cx="5.5" cy="5.5" r="5.5" transform="translate(28 41)" fill="#481a7f"/>
      <circle id="Ellipse_129" data-name="Ellipse 129" cx="5.5" cy="5.5" r="5.5" transform="translate(41 41)" fill="#481a7f"/>
      <circle id="Ellipse_135" data-name="Ellipse 135" cx="5.5" cy="5.5" r="5.5" transform="translate(55 41)" fill="#481a7f"/>
      <circle id="Ellipse_140" data-name="Ellipse 140" cx="5.5" cy="5.5" r="5.5" transform="translate(69 41)" fill="#481a7f"/>
      <circle id="Ellipse_104" data-name="Ellipse 104" cx="5.5" cy="5.5" r="5.5" transform="translate(0 55)" fill="#481a7f"/>
      <circle id="Ellipse_112" data-name="Ellipse 112" cx="5.5" cy="5.5" r="5.5" transform="translate(14 55)" fill="#481a7f"/>
      <circle id="Ellipse_121" data-name="Ellipse 121" cx="5.5" cy="5.5" r="5.5" transform="translate(28 55)" fill="#481a7f"/>
      <circle id="Ellipse_128" data-name="Ellipse 128" cx="5.5" cy="5.5" r="5.5" transform="translate(41 55)" fill="#481a7f"/>
      <circle id="Ellipse_134" data-name="Ellipse 134" cx="5.5" cy="5.5" r="5.5" transform="translate(55 55)" fill="#481a7f"/>
      <circle id="Ellipse_105" data-name="Ellipse 105" cx="5.5" cy="5.5" r="5.5" transform="translate(0 69)" fill="#481a7f"/>
      <circle id="Ellipse_113" data-name="Ellipse 113" cx="5.5" cy="5.5" r="5.5" transform="translate(14 69)" fill="#481a7f"/>
      <circle id="Ellipse_120" data-name="Ellipse 120" cx="5.5" cy="5.5" r="5.5" transform="translate(28 69)" fill="#481a7f"/>
      <circle id="Ellipse_127" data-name="Ellipse 127" cx="5.5" cy="5.5" r="5.5" transform="translate(41 69)" fill="#481a7f"/>
      <circle id="Ellipse_106" data-name="Ellipse 106" cx="5.5" cy="5.5" r="5.5" transform="translate(0 83)" fill="#481a7f"/>
      <circle id="Ellipse_111" data-name="Ellipse 111" cx="5.5" cy="5.5" r="5.5" transform="translate(14 83)" fill="#481a7f"/>
      <circle id="Ellipse_119" data-name="Ellipse 119" cx="5.5" cy="5.5" r="5.5" transform="translate(28 83)" fill="#481a7f"/>
      <circle id="Ellipse_107" data-name="Ellipse 107" cx="5.5" cy="5.5" r="5.5" transform="translate(0 96)" fill="#481a7f"/>
      <circle id="Ellipse_110" data-name="Ellipse 110" cx="5.5" cy="5.5" r="5.5" transform="translate(14 96)" fill="#481a7f"/>
      <circle id="Ellipse_108" data-name="Ellipse 108" cx="5.5" cy="5.5" r="5.5" transform="translate(0 110)" fill="#481a7f"/>
    </g>
    <g id="Group_1589" data-name="Group 1589" transform="translate(101 1116.245)">
      <circle id="Ellipse_197" data-name="Ellipse 197" cx="5.5" cy="5.5" r="5.5" transform="translate(0 -0.245)" fill="#481a7f"/>
      <line id="Line_19" data-name="Line 19" y2="173.381" transform="translate(5.504 4.816)" fill="none" stroke="#481a7f" stroke-width="3"/>
      <line id="Line_20" data-name="Line 20" x2="115.588" transform="translate(6.192 178.198)" fill="none" stroke="#481a7f" stroke-width="3"/>
      <circle id="Ellipse_198" data-name="Ellipse 198" cx="5.5" cy="5.5" r="5.5" transform="translate(127 182.755) rotate(180)" fill="#e90a63"/>
    </g>
    <g id="Group_1592" data-name="Group 1592" transform="translate(242.732 1178.167)" opacity="0.25">
      <circle id="Ellipse_152" data-name="Ellipse 152" cx="5.5" cy="5.5" r="5.5" transform="translate(121.268 120.833) rotate(180)" fill="#e90a63"/>
      <circle id="Ellipse_153" data-name="Ellipse 153" cx="5.5" cy="5.5" r="5.5" transform="translate(107.268 120.833) rotate(180)" fill="#e90a63"/>
      <circle id="Ellipse_154" data-name="Ellipse 154" cx="5.5" cy="5.5" r="5.5" transform="translate(93.268 120.833) rotate(180)" fill="#e90a63"/>
      <circle id="Ellipse_155" data-name="Ellipse 155" cx="5.5" cy="5.5" r="5.5" transform="translate(80.268 120.833) rotate(180)" fill="#e90a63"/>
      <circle id="Ellipse_156" data-name="Ellipse 156" cx="5.5" cy="5.5" r="5.5" transform="translate(66.268 120.833) rotate(180)" fill="#e90a63"/>
      <circle id="Ellipse_157" data-name="Ellipse 157" cx="5.5" cy="5.5" r="5.5" transform="translate(52.268 120.833) rotate(180)" fill="#e90a63"/>
      <circle id="Ellipse_158" data-name="Ellipse 158" cx="5.5" cy="5.5" r="5.5" transform="translate(38.268 120.833) rotate(180)" fill="#e90a63"/>
      <ellipse id="Ellipse_159" data-name="Ellipse 159" cx="6" cy="5.5" rx="6" ry="5.5" transform="translate(25.268 120.833) rotate(180)" fill="#e90a63"/>
      <circle id="Ellipse_160" data-name="Ellipse 160" cx="5.5" cy="5.5" r="5.5" transform="translate(11.268 120.833) rotate(180)" fill="#e90a63"/>
      <circle id="Ellipse_161" data-name="Ellipse 161" cx="5.5" cy="5.5" r="5.5" transform="translate(121.268 106.833) rotate(180)" fill="#e90a63"/>
      <circle id="Ellipse_162" data-name="Ellipse 162" cx="5.5" cy="5.5" r="5.5" transform="translate(107.268 106.833) rotate(180)" fill="#e90a63"/>
      <circle id="Ellipse_163" data-name="Ellipse 163" cx="5.5" cy="5.5" r="5.5" transform="translate(93.268 106.833) rotate(180)" fill="#e90a63"/>
      <circle id="Ellipse_164" data-name="Ellipse 164" cx="5.5" cy="5.5" r="5.5" transform="translate(80.268 106.833) rotate(180)" fill="#e90a63"/>
      <circle id="Ellipse_165" data-name="Ellipse 165" cx="5.5" cy="5.5" r="5.5" transform="translate(66.268 106.833) rotate(180)" fill="#e90a63"/>
      <circle id="Ellipse_166" data-name="Ellipse 166" cx="5.5" cy="5.5" r="5.5" transform="translate(52.268 106.833) rotate(180)" fill="#e90a63"/>
      <circle id="Ellipse_167" data-name="Ellipse 167" cx="5.5" cy="5.5" r="5.5" transform="translate(38.268 106.833) rotate(180)" fill="#e90a63"/>
      <ellipse id="Ellipse_168" data-name="Ellipse 168" cx="6" cy="5.5" rx="6" ry="5.5" transform="translate(25.268 106.833) rotate(180)" fill="#e90a63"/>
      <circle id="Ellipse_169" data-name="Ellipse 169" cx="5.5" cy="5.5" r="5.5" transform="translate(121.268 93.833) rotate(180)" fill="#e90a63"/>
      <circle id="Ellipse_170" data-name="Ellipse 170" cx="5.5" cy="5.5" r="5.5" transform="translate(107.268 93.833) rotate(180)" fill="#e90a63"/>
      <circle id="Ellipse_171" data-name="Ellipse 171" cx="5.5" cy="5.5" r="5.5" transform="translate(93.268 93.833) rotate(180)" fill="#e90a63"/>
      <circle id="Ellipse_172" data-name="Ellipse 172" cx="5.5" cy="5.5" r="5.5" transform="translate(80.268 93.833) rotate(180)" fill="#e90a63"/>
      <circle id="Ellipse_173" data-name="Ellipse 173" cx="5.5" cy="5.5" r="5.5" transform="translate(66.268 93.833) rotate(180)" fill="#e90a63"/>
      <circle id="Ellipse_174" data-name="Ellipse 174" cx="5.5" cy="5.5" r="5.5" transform="translate(52.268 93.833) rotate(180)" fill="#e90a63"/>
      <circle id="Ellipse_175" data-name="Ellipse 175" cx="5.5" cy="5.5" r="5.5" transform="translate(38.268 93.833) rotate(180)" fill="#e90a63"/>
      <circle id="Ellipse_176" data-name="Ellipse 176" cx="5.5" cy="5.5" r="5.5" transform="translate(121.268 79.833) rotate(180)" fill="#e90a63"/>
      <circle id="Ellipse_177" data-name="Ellipse 177" cx="5.5" cy="5.5" r="5.5" transform="translate(107.268 79.833) rotate(180)" fill="#e90a63"/>
      <circle id="Ellipse_178" data-name="Ellipse 178" cx="5.5" cy="5.5" r="5.5" transform="translate(93.268 79.833) rotate(180)" fill="#e90a63"/>
      <circle id="Ellipse_179" data-name="Ellipse 179" cx="5.5" cy="5.5" r="5.5" transform="translate(80.268 79.833) rotate(180)" fill="#e90a63"/>
      <circle id="Ellipse_180" data-name="Ellipse 180" cx="5.5" cy="5.5" r="5.5" transform="translate(66.268 79.833) rotate(180)" fill="#e90a63"/>
      <circle id="Ellipse_181" data-name="Ellipse 181" cx="5.5" cy="5.5" r="5.5" transform="translate(52.268 79.833) rotate(180)" fill="#e90a63"/>
      <circle id="Ellipse_182" data-name="Ellipse 182" cx="5.5" cy="5.5" r="5.5" transform="translate(121.268 65.833) rotate(180)" fill="#e90a63"/>
      <circle id="Ellipse_183" data-name="Ellipse 183" cx="5.5" cy="5.5" r="5.5" transform="translate(107.268 65.833) rotate(180)" fill="#e90a63"/>
      <circle id="Ellipse_184" data-name="Ellipse 184" cx="5.5" cy="5.5" r="5.5" transform="translate(93.268 65.833) rotate(180)" fill="#e90a63"/>
      <circle id="Ellipse_185" data-name="Ellipse 185" cx="5.5" cy="5.5" r="5.5" transform="translate(80.268 65.833) rotate(180)" fill="#e90a63"/>
      <circle id="Ellipse_186" data-name="Ellipse 186" cx="5.5" cy="5.5" r="5.5" transform="translate(66.268 65.833) rotate(180)" fill="#e90a63"/>
      <circle id="Ellipse_187" data-name="Ellipse 187" cx="5.5" cy="5.5" r="5.5" transform="translate(121.268 51.833) rotate(180)" fill="#e90a63"/>
      <circle id="Ellipse_188" data-name="Ellipse 188" cx="5.5" cy="5.5" r="5.5" transform="translate(107.268 51.833) rotate(180)" fill="#e90a63"/>
      <circle id="Ellipse_189" data-name="Ellipse 189" cx="5.5" cy="5.5" r="5.5" transform="translate(93.268 51.833) rotate(180)" fill="#e90a63"/>
      <circle id="Ellipse_190" data-name="Ellipse 190" cx="5.5" cy="5.5" r="5.5" transform="translate(80.268 51.833) rotate(180)" fill="#e90a63"/>
      <circle id="Ellipse_191" data-name="Ellipse 191" cx="5.5" cy="5.5" r="5.5" transform="translate(121.268 38.833) rotate(180)" fill="#e90a63"/>
      <circle id="Ellipse_192" data-name="Ellipse 192" cx="5.5" cy="5.5" r="5.5" transform="translate(107.268 38.833) rotate(180)" fill="#e90a63"/>
      <circle id="Ellipse_193" data-name="Ellipse 193" cx="5.5" cy="5.5" r="5.5" transform="translate(93.268 38.833) rotate(180)" fill="#e90a63"/>
      <circle id="Ellipse_194" data-name="Ellipse 194" cx="5.5" cy="5.5" r="5.5" transform="translate(121.268 24.833) rotate(180)" fill="#e90a63"/>
      <circle id="Ellipse_195" data-name="Ellipse 195" cx="5.5" cy="5.5" r="5.5" transform="translate(107.268 24.833) rotate(180)" fill="#e90a63"/>
      <circle id="Ellipse_196" data-name="Ellipse 196" cx="5.5" cy="5.5" r="5.5" transform="translate(121.268 10.833) rotate(180)" fill="#e90a63"/>
    </g>
    <g id="Group_1590" data-name="Group 1590" transform="translate(237.229 958)">
      <line id="Line_19-2" data-name="Line 19" y1="173.381" transform="translate(121.092 4.816)" fill="none" stroke="#481a7f" stroke-width="3"/>
      <line id="Line_20-2" data-name="Line 20" x1="115.588" transform="translate(4.816 4.816)" fill="none" stroke="#481a7f" stroke-width="3"/>
      <circle id="Ellipse_198-2" data-name="Ellipse 198" cx="5.5" cy="5.5" r="5.5" transform="translate(-0.229)" fill="#481a7f"/>
      <circle id="Ellipse_197-2" data-name="Ellipse 197" cx="5.5" cy="5.5" r="5.5" transform="translate(115.771 172)" fill="#e90a63"/>
    </g>
  </g>
</svg>
