<svg xmlns="http://www.w3.org/2000/svg" width="597" height="356" viewBox="0 0 597 356">
  <g id="Group_1650" data-name="Group 1650" transform="translate(1558.99 -111) rotate(90)">
    <g id="Group_1589" data-name="Group 1589" transform="translate(111 1335.475)">
      <circle id="Ellipse_197" data-name="Ellipse 197" cx="5.5" cy="5.5" r="5.5" transform="translate(0 -248.485)" fill="#481a7f"/>
      <line id="Line_19" data-name="Line 19" y2="460.926" transform="translate(6.711 -242.985)" fill="none" stroke="#481a7f" stroke-width="3"/>
      <line id="Line_20" data-name="Line 20" x2="216.95" transform="translate(7.55 217.939)" fill="none" stroke="#481a7f" stroke-width="3"/>
      <circle id="Ellipse_198" data-name="Ellipse 198" cx="5.5" cy="5.5" r="5.5" transform="translate(230 223.515) rotate(180)" fill="#e90a63"/>
    </g>
    <g id="Group_1592" data-name="Group 1592" transform="translate(345.948 1436.709)" opacity="0.25">
      <circle id="Ellipse_152" data-name="Ellipse 152" cx="5.5" cy="5.5" r="5.5" transform="translate(121.053 122.281) rotate(180)" fill="#e90a63"/>
      <circle id="Ellipse_153" data-name="Ellipse 153" cx="5.5" cy="5.5" r="5.5" transform="translate(107.053 122.281) rotate(180)" fill="#e90a63"/>
      <circle id="Ellipse_154" data-name="Ellipse 154" cx="5.5" cy="5.5" r="5.5" transform="translate(93.053 122.281) rotate(180)" fill="#e90a63"/>
      <circle id="Ellipse_155" data-name="Ellipse 155" cx="5.5" cy="5.5" r="5.5" transform="translate(80.053 122.281) rotate(180)" fill="#e90a63"/>
      <circle id="Ellipse_156" data-name="Ellipse 156" cx="5.5" cy="5.5" r="5.5" transform="translate(65.053 122.281) rotate(180)" fill="#e90a63"/>
      <circle id="Ellipse_157" data-name="Ellipse 157" cx="5.5" cy="5.5" r="5.5" transform="translate(51.053 122.281) rotate(180)" fill="#e90a63"/>
      <circle id="Ellipse_158" data-name="Ellipse 158" cx="5.5" cy="5.5" r="5.5" transform="translate(38.053 122.281) rotate(180)" fill="#e90a63"/>
      <circle id="Ellipse_159" data-name="Ellipse 159" cx="5.5" cy="5.5" r="5.5" transform="translate(24.053 122.281) rotate(180)" fill="#e90a63"/>
      <circle id="Ellipse_160" data-name="Ellipse 160" cx="5.5" cy="5.5" r="5.5" transform="translate(10.053 122.281) rotate(180)" fill="#e90a63"/>
      <circle id="Ellipse_161" data-name="Ellipse 161" cx="5.5" cy="5.5" r="5.5" transform="translate(121.053 108.281) rotate(180)" fill="#e90a63"/>
      <circle id="Ellipse_162" data-name="Ellipse 162" cx="5.5" cy="5.5" r="5.5" transform="translate(107.053 108.281) rotate(180)" fill="#e90a63"/>
      <circle id="Ellipse_163" data-name="Ellipse 163" cx="5.5" cy="5.5" r="5.5" transform="translate(93.053 108.281) rotate(180)" fill="#e90a63"/>
      <circle id="Ellipse_164" data-name="Ellipse 164" cx="5.5" cy="5.5" r="5.5" transform="translate(80.053 108.281) rotate(180)" fill="#e90a63"/>
      <circle id="Ellipse_165" data-name="Ellipse 165" cx="5.5" cy="5.5" r="5.5" transform="translate(65.053 108.281) rotate(180)" fill="#e90a63"/>
      <circle id="Ellipse_166" data-name="Ellipse 166" cx="5.5" cy="5.5" r="5.5" transform="translate(51.053 108.281) rotate(180)" fill="#e90a63"/>
      <circle id="Ellipse_167" data-name="Ellipse 167" cx="5.5" cy="5.5" r="5.5" transform="translate(38.053 108.281) rotate(180)" fill="#e90a63"/>
      <circle id="Ellipse_168" data-name="Ellipse 168" cx="5.5" cy="5.5" r="5.5" transform="translate(24.053 108.281) rotate(180)" fill="#e90a63"/>
      <circle id="Ellipse_169" data-name="Ellipse 169" cx="5.5" cy="5.5" r="5.5" transform="translate(121.053 95.281) rotate(180)" fill="#e90a63"/>
      <circle id="Ellipse_170" data-name="Ellipse 170" cx="5.5" cy="5.5" r="5.5" transform="translate(107.053 95.281) rotate(180)" fill="#e90a63"/>
      <circle id="Ellipse_171" data-name="Ellipse 171" cx="5.5" cy="5.5" r="5.5" transform="translate(93.053 95.281) rotate(180)" fill="#e90a63"/>
      <circle id="Ellipse_172" data-name="Ellipse 172" cx="5.5" cy="5.5" r="5.5" transform="translate(80.053 95.281) rotate(180)" fill="#e90a63"/>
      <circle id="Ellipse_173" data-name="Ellipse 173" cx="5.5" cy="5.5" r="5.5" transform="translate(65.053 95.281) rotate(180)" fill="#e90a63"/>
      <circle id="Ellipse_174" data-name="Ellipse 174" cx="5.5" cy="5.5" r="5.5" transform="translate(51.053 95.281) rotate(180)" fill="#e90a63"/>
      <circle id="Ellipse_175" data-name="Ellipse 175" cx="5.5" cy="5.5" r="5.5" transform="translate(38.053 95.281) rotate(180)" fill="#e90a63"/>
      <circle id="Ellipse_176" data-name="Ellipse 176" cx="5.5" cy="5.5" r="5.5" transform="translate(121.053 80.281) rotate(180)" fill="#e90a63"/>
      <circle id="Ellipse_177" data-name="Ellipse 177" cx="5.5" cy="5.5" r="5.5" transform="translate(107.053 80.281) rotate(180)" fill="#e90a63"/>
      <circle id="Ellipse_178" data-name="Ellipse 178" cx="5.5" cy="5.5" r="5.5" transform="translate(93.053 80.281) rotate(180)" fill="#e90a63"/>
      <circle id="Ellipse_179" data-name="Ellipse 179" cx="5.5" cy="5.5" r="5.5" transform="translate(80.053 80.281) rotate(180)" fill="#e90a63"/>
      <circle id="Ellipse_180" data-name="Ellipse 180" cx="5.5" cy="5.5" r="5.5" transform="translate(65.053 80.281) rotate(180)" fill="#e90a63"/>
      <circle id="Ellipse_181" data-name="Ellipse 181" cx="5.5" cy="5.5" r="5.5" transform="translate(51.053 80.281) rotate(180)" fill="#e90a63"/>
      <circle id="Ellipse_182" data-name="Ellipse 182" cx="5.5" cy="5.5" r="5.5" transform="translate(121.053 66.281) rotate(180)" fill="#e90a63"/>
      <circle id="Ellipse_183" data-name="Ellipse 183" cx="5.5" cy="5.5" r="5.5" transform="translate(107.053 66.281) rotate(180)" fill="#e90a63"/>
      <circle id="Ellipse_184" data-name="Ellipse 184" cx="5.5" cy="5.5" r="5.5" transform="translate(93.053 66.281) rotate(180)" fill="#e90a63"/>
      <circle id="Ellipse_185" data-name="Ellipse 185" cx="5.5" cy="5.5" r="5.5" transform="translate(80.053 66.281) rotate(180)" fill="#e90a63"/>
      <circle id="Ellipse_186" data-name="Ellipse 186" cx="5.5" cy="5.5" r="5.5" transform="translate(65.053 66.281) rotate(180)" fill="#e90a63"/>
      <circle id="Ellipse_187" data-name="Ellipse 187" cx="5.5" cy="5.5" r="5.5" transform="translate(121.053 52.281) rotate(180)" fill="#e90a63"/>
      <circle id="Ellipse_188" data-name="Ellipse 188" cx="5.5" cy="5.5" r="5.5" transform="translate(107.053 52.281) rotate(180)" fill="#e90a63"/>
      <circle id="Ellipse_189" data-name="Ellipse 189" cx="5.5" cy="5.5" r="5.5" transform="translate(93.053 52.281) rotate(180)" fill="#e90a63"/>
      <circle id="Ellipse_190" data-name="Ellipse 190" cx="5.5" cy="5.5" r="5.5" transform="translate(80.053 52.281) rotate(180)" fill="#e90a63"/>
      <circle id="Ellipse_191" data-name="Ellipse 191" cx="5.5" cy="5.5" r="5.5" transform="translate(121.053 40.281) rotate(180)" fill="#e90a63"/>
      <circle id="Ellipse_192" data-name="Ellipse 192" cx="5.5" cy="5.5" r="5.5" transform="translate(107.053 40.281) rotate(180)" fill="#e90a63"/>
      <circle id="Ellipse_193" data-name="Ellipse 193" cx="5.5" cy="5.5" r="5.5" transform="translate(93.053 40.281) rotate(180)" fill="#e90a63"/>
      <circle id="Ellipse_194" data-name="Ellipse 194" cx="5.5" cy="5.5" r="5.5" transform="translate(121.053 25.281) rotate(180)" fill="#e90a63"/>
      <circle id="Ellipse_195" data-name="Ellipse 195" cx="5.5" cy="5.5" r="5.5" transform="translate(107.053 25.281) rotate(180)" fill="#e90a63"/>
      <circle id="Ellipse_196" data-name="Ellipse 196" cx="5.5" cy="5.5" r="5.5" transform="translate(121.053 11.281) rotate(180)" fill="#e90a63"/>
    </g>
    <g id="Group_1651" data-name="Group 1651" transform="translate(232.053 1084.271) rotate(180)" opacity="0.25">
      <circle id="Ellipse_152-2" data-name="Ellipse 152" cx="5.5" cy="5.5" r="5.5" transform="translate(121.053 122.281) rotate(180)" fill="#481a7f"/>
      <circle id="Ellipse_153-2" data-name="Ellipse 153" cx="5.5" cy="5.5" r="5.5" transform="translate(107.053 122.281) rotate(180)" fill="#481a7f"/>
      <circle id="Ellipse_154-2" data-name="Ellipse 154" cx="5.5" cy="5.5" r="5.5" transform="translate(93.053 122.281) rotate(180)" fill="#481a7f"/>
      <circle id="Ellipse_155-2" data-name="Ellipse 155" cx="5.5" cy="5.5" r="5.5" transform="translate(80.053 122.281) rotate(180)" fill="#481a7f"/>
      <circle id="Ellipse_156-2" data-name="Ellipse 156" cx="5.5" cy="5.5" r="5.5" transform="translate(65.053 122.281) rotate(180)" fill="#481a7f"/>
      <circle id="Ellipse_157-2" data-name="Ellipse 157" cx="5.5" cy="5.5" r="5.5" transform="translate(51.053 122.281) rotate(180)" fill="#481a7f"/>
      <circle id="Ellipse_158-2" data-name="Ellipse 158" cx="5.5" cy="5.5" r="5.5" transform="translate(38.053 122.281) rotate(180)" fill="#481a7f"/>
      <circle id="Ellipse_159-2" data-name="Ellipse 159" cx="5.5" cy="5.5" r="5.5" transform="translate(24.053 122.281) rotate(180)" fill="#481a7f"/>
      <circle id="Ellipse_160-2" data-name="Ellipse 160" cx="5.5" cy="5.5" r="5.5" transform="translate(10.053 122.281) rotate(180)" fill="#481a7f"/>
      <circle id="Ellipse_161-2" data-name="Ellipse 161" cx="5.5" cy="5.5" r="5.5" transform="translate(121.053 108.281) rotate(180)" fill="#481a7f"/>
      <circle id="Ellipse_162-2" data-name="Ellipse 162" cx="5.5" cy="5.5" r="5.5" transform="translate(107.053 108.281) rotate(180)" fill="#481a7f"/>
      <circle id="Ellipse_163-2" data-name="Ellipse 163" cx="5.5" cy="5.5" r="5.5" transform="translate(93.053 108.281) rotate(180)" fill="#481a7f"/>
      <circle id="Ellipse_164-2" data-name="Ellipse 164" cx="5.5" cy="5.5" r="5.5" transform="translate(80.053 108.281) rotate(180)" fill="#481a7f"/>
      <circle id="Ellipse_165-2" data-name="Ellipse 165" cx="5.5" cy="5.5" r="5.5" transform="translate(65.053 108.281) rotate(180)" fill="#481a7f"/>
      <circle id="Ellipse_166-2" data-name="Ellipse 166" cx="5.5" cy="5.5" r="5.5" transform="translate(51.053 108.281) rotate(180)" fill="#481a7f"/>
      <circle id="Ellipse_167-2" data-name="Ellipse 167" cx="5.5" cy="5.5" r="5.5" transform="translate(38.053 108.281) rotate(180)" fill="#481a7f"/>
      <circle id="Ellipse_168-2" data-name="Ellipse 168" cx="5.5" cy="5.5" r="5.5" transform="translate(24.053 108.281) rotate(180)" fill="#481a7f"/>
      <circle id="Ellipse_169-2" data-name="Ellipse 169" cx="5.5" cy="5.5" r="5.5" transform="translate(121.053 95.281) rotate(180)" fill="#481a7f"/>
      <circle id="Ellipse_170-2" data-name="Ellipse 170" cx="5.5" cy="5.5" r="5.5" transform="translate(107.053 95.281) rotate(180)" fill="#481a7f"/>
      <circle id="Ellipse_171-2" data-name="Ellipse 171" cx="5.5" cy="5.5" r="5.5" transform="translate(93.053 95.281) rotate(180)" fill="#481a7f"/>
      <circle id="Ellipse_172-2" data-name="Ellipse 172" cx="5.5" cy="5.5" r="5.5" transform="translate(80.053 95.281) rotate(180)" fill="#481a7f"/>
      <circle id="Ellipse_173-2" data-name="Ellipse 173" cx="5.5" cy="5.5" r="5.5" transform="translate(65.053 95.281) rotate(180)" fill="#481a7f"/>
      <circle id="Ellipse_174-2" data-name="Ellipse 174" cx="5.5" cy="5.5" r="5.5" transform="translate(51.053 95.281) rotate(180)" fill="#481a7f"/>
      <circle id="Ellipse_175-2" data-name="Ellipse 175" cx="5.5" cy="5.5" r="5.5" transform="translate(38.053 95.281) rotate(180)" fill="#481a7f"/>
      <circle id="Ellipse_176-2" data-name="Ellipse 176" cx="5.5" cy="5.5" r="5.5" transform="translate(121.053 80.281) rotate(180)" fill="#481a7f"/>
      <circle id="Ellipse_177-2" data-name="Ellipse 177" cx="5.5" cy="5.5" r="5.5" transform="translate(107.053 80.281) rotate(180)" fill="#481a7f"/>
      <circle id="Ellipse_178-2" data-name="Ellipse 178" cx="5.5" cy="5.5" r="5.5" transform="translate(93.053 80.281) rotate(180)" fill="#481a7f"/>
      <circle id="Ellipse_179-2" data-name="Ellipse 179" cx="5.5" cy="5.5" r="5.5" transform="translate(80.053 80.281) rotate(180)" fill="#481a7f"/>
      <circle id="Ellipse_180-2" data-name="Ellipse 180" cx="5.5" cy="5.5" r="5.5" transform="translate(65.053 80.281) rotate(180)" fill="#481a7f"/>
      <circle id="Ellipse_181-2" data-name="Ellipse 181" cx="5.5" cy="5.5" r="5.5" transform="translate(51.053 80.281) rotate(180)" fill="#481a7f"/>
      <circle id="Ellipse_182-2" data-name="Ellipse 182" cx="5.5" cy="5.5" r="5.5" transform="translate(121.053 66.281) rotate(180)" fill="#481a7f"/>
      <circle id="Ellipse_183-2" data-name="Ellipse 183" cx="5.5" cy="5.5" r="5.5" transform="translate(107.053 66.281) rotate(180)" fill="#481a7f"/>
      <circle id="Ellipse_184-2" data-name="Ellipse 184" cx="5.5" cy="5.5" r="5.5" transform="translate(93.053 66.281) rotate(180)" fill="#481a7f"/>
      <circle id="Ellipse_185-2" data-name="Ellipse 185" cx="5.5" cy="5.5" r="5.5" transform="translate(80.053 66.281) rotate(180)" fill="#481a7f"/>
      <circle id="Ellipse_186-2" data-name="Ellipse 186" cx="5.5" cy="5.5" r="5.5" transform="translate(65.053 66.281) rotate(180)" fill="#481a7f"/>
      <circle id="Ellipse_187-2" data-name="Ellipse 187" cx="5.5" cy="5.5" r="5.5" transform="translate(121.053 52.281) rotate(180)" fill="#481a7f"/>
      <circle id="Ellipse_188-2" data-name="Ellipse 188" cx="5.5" cy="5.5" r="5.5" transform="translate(107.053 52.281) rotate(180)" fill="#481a7f"/>
      <circle id="Ellipse_189-2" data-name="Ellipse 189" cx="5.5" cy="5.5" r="5.5" transform="translate(93.053 52.281) rotate(180)" fill="#481a7f"/>
      <circle id="Ellipse_190-2" data-name="Ellipse 190" cx="5.5" cy="5.5" r="5.5" transform="translate(80.053 52.281) rotate(180)" fill="#481a7f"/>
      <circle id="Ellipse_191-2" data-name="Ellipse 191" cx="5.5" cy="5.5" r="5.5" transform="translate(121.053 40.281) rotate(180)" fill="#481a7f"/>
      <circle id="Ellipse_192-2" data-name="Ellipse 192" cx="5.5" cy="5.5" r="5.5" transform="translate(107.053 40.281) rotate(180)" fill="#481a7f"/>
      <circle id="Ellipse_193-2" data-name="Ellipse 193" cx="5.5" cy="5.5" r="5.5" transform="translate(93.053 40.281) rotate(180)" fill="#481a7f"/>
      <circle id="Ellipse_194-2" data-name="Ellipse 194" cx="5.5" cy="5.5" r="5.5" transform="translate(121.053 25.281) rotate(180)" fill="#481a7f"/>
      <circle id="Ellipse_195-2" data-name="Ellipse 195" cx="5.5" cy="5.5" r="5.5" transform="translate(107.053 25.281) rotate(180)" fill="#481a7f"/>
      <circle id="Ellipse_196-2" data-name="Ellipse 196" cx="5.5" cy="5.5" r="5.5" transform="translate(121.053 11.281) rotate(180)" fill="#481a7f"/>
    </g>
    <g id="Group_1652" data-name="Group 1652" transform="translate(467 1182.505) rotate(180)">
      <circle id="Ellipse_197-2" data-name="Ellipse 197" cx="5.5" cy="5.5" r="5.5" transform="translate(0 -251.485)" fill="#481a7f"/>
      <line id="Line_19-2" data-name="Line 19" y2="459" transform="translate(5.5 -242.985)" fill="none" stroke="#481a7f" stroke-width="3"/>
      <line id="Line_20-2" data-name="Line 20" x2="217.161" transform="translate(6.339 215.015)" fill="none" stroke="#481a7f" stroke-width="3"/>
      <circle id="Ellipse_198-2" data-name="Ellipse 198" cx="5.5" cy="5.5" r="5.5" transform="translate(230 220.515) rotate(180)" fill="#e90a63"/>
    </g>
  </g>
</svg>
