<svg xmlns="http://www.w3.org/2000/svg" width="33.004" height="32.205" viewBox="0 0 33.004 32.205">
  <g id="Group_1587" data-name="Group 1587" transform="translate(-522.558 -885.254)">
    <path id="Path_39303" data-name="Path 39303" d="M601.5,101.265,586.938,80h8.7c.385,0,.72-.074.865.512,1.657,6.72,3.353,13.43,5.034,20.144a3.116,3.116,0,0,1-.043.614" transform="translate(-64.346 816.193)" fill="#fff"/>
    <path id="Path_39304" data-name="Path 39304" d="M686.354,100.891q1.029-4.144,2.058-8.289c.984-3.946,1.986-7.888,2.945-11.841.153-.631.378-.874,1.073-.862,2.8.047,5.6.019,8.589.019l-14.435,21.094-.23-.122" transform="translate(-145.492 816.27)" fill="#fff"/>
    <path id="Path_39305" data-name="Path 39305" d="M656.79,97.7c-1.437-5.727-2.858-11.408-4.291-17.087-.121-.478-.082-.686.511-.679,2.588.032,5.177.026,7.765,0,.517,0,.608.144.487.623q-2.161,8.517-4.3,17.04c0,.018-.045.027-.174.1" transform="translate(-117.815 816.244)" fill="#fff"/>
    <path id="Path_39306" data-name="Path 39306" d="M618.23,20.5h9.25l-4.62,7.4-4.629-7.4" transform="translate(-89.887 864.751)" fill="#fff"/>
    <path id="Path_39307" data-name="Path 39307" d="M684.515,20.515h9.247l-4.612,7.4-4.635-7.4" transform="translate(-143.992 864.741)" fill="#fff"/>
    <path id="Path_39308" data-name="Path 39308" d="M586.753,35.994l3.9-6.827,4.272,6.827Z" transform="translate(-64.195 857.679)" fill="#fff"/>
    <path id="Path_39309" data-name="Path 39309" d="M721.953,35.981l4.254-6.819,3.9,6.819Z" transform="translate(-174.55 857.683)" fill="#fff"/>
    <path id="Path_39310" data-name="Path 39310" d="M655.626,38.968l3.843-6.147,3.85,6.147Z" transform="translate(-120.412 854.697)" fill="#fff"/>
  </g>
</svg>
