<svg id="Group_1659" data-name="Group 1659" xmlns="http://www.w3.org/2000/svg" xmlns:xlink="http://www.w3.org/1999/xlink" width="29.793" height="34.093" viewBox="0 0 29.793 34.093">
  <defs>
    <clipPath id="clip-path">
      <rect id="Rectangle_954" data-name="Rectangle 954" width="29.793" height="34.093" fill="none"/>
    </clipPath>
  </defs>
  <g id="Group_1658" data-name="Group 1658" clip-path="url(#clip-path)">
    <path id="Path_39341" data-name="Path 39341" d="M0,185.8a6.628,6.628,0,0,1,1.3-2.87A5.017,5.017,0,0,1,4.765,181c1.633-.113,3.28-.026,4.963-.026a5.658,5.658,0,0,0,1.637,3.661c-3.588,1.372-4.96,4.059-4.727,7.734a24.747,24.747,0,0,1-5.464-.919c-.39-.107-.783-.2-1.174-.3V185.8" transform="translate(0 -162.844)" fill="#fff"/>
    <path id="Path_39342" data-name="Path 39342" d="M84.011,224.324a25.31,25.31,0,0,1,3.547.439,5.465,5.465,0,0,1,3.892,5.149c.019,1.356-.022,2.713.02,4.068a.786.786,0,0,1-.608.879,17.81,17.81,0,0,1-7.347,1.1,28.32,28.32,0,0,1-6.5-1.146c-.317-.09-.477-.212-.47-.585.028-1.452-.02-2.907.031-4.358a5.524,5.524,0,0,1,5.268-5.391c.714-.042,1.433-.006,2.149-.006l.014-.146" transform="translate(-68.892 -201.885)" fill="#fff"/>
    <path id="Path_39343" data-name="Path 39343" d="M188.262,184.2a5.572,5.572,0,0,0,1.665-3.729c.716,0,1.427-.03,2.134.007a15.886,15.886,0,0,1,3.163.272,5.388,5.388,0,0,1,3.971,5.081c.048,1.471.025,2.945,0,4.418a.689.689,0,0,1-.34.5,15.907,15.907,0,0,1-5.832,1.235c.219-3.668-1.1-6.408-4.761-7.784" transform="translate(-169.43 -162.41)" fill="#fff"/>
    <path id="Path_39344" data-name="Path 39344" d="M111.588,144.033a4.362,4.362,0,1,1,4.4-4.377,4.4,4.4,0,0,1-4.4,4.377" transform="translate(-96.501 -121.773)" fill="#fff"/>
    <path id="Path_39345" data-name="Path 39345" d="M35.124,99.159a4.639,4.639,0,0,1-4.185-3.841,4.366,4.366,0,1,1,8.683-.685.818.818,0,0,1-.28.53,5.478,5.478,0,0,0-1.679,2.857.783.783,0,0,1-.4.5c-.7.247-1.422.431-2.136.638" transform="translate(-27.804 -81.274)" fill="#fff"/>
    <path id="Path_39346" data-name="Path 39346" d="M184.383,98.827c-.27-.021-.543-.026-.81-.066-.846-.125-.982-.268-1.2-1.1a5.25,5.25,0,0,0-1.952-2.94.773.773,0,0,1-.375-.8,4.353,4.353,0,0,1,8.639-.03,4.369,4.369,0,0,1-4.3,4.942" transform="translate(-162.03 -81.07)" fill="#fff"/>
    <rect id="Rectangle_953" data-name="Rectangle 953" width="0.912" height="25.16" transform="translate(14.442)" fill="#fff"/>
    <path id="Path_39347" data-name="Path 39347" d="M146.2,9.113l12.738,4-12.555,3.837Z" transform="translate(-131.572 -8.202)" fill="#fff"/>
  </g>
</svg>
