<svg xmlns="http://www.w3.org/2000/svg" xmlns:xlink="http://www.w3.org/1999/xlink" width="16.354" height="14.48" viewBox="0 0 16.354 14.48">
  <defs>
    <clipPath id="clip-path">
      <rect id="Rectangle_845" data-name="Rectangle 845" width="16.353" height="14.48" transform="translate(0 0)" fill="none"/>
    </clipPath>
  </defs>
  <g id="Group_1258" data-name="Group 1258" clip-path="url(#clip-path)" fill="#ee1133">
    <path id="Path_39270" data-name="Path 39270" d="M16.352,5.022c-.041-.021-.035-.042,0-.064q0-.383-.006-.766a2.183,2.183,0,0,1-.074-.412,4.58,4.58,0,0,0-2.133-3.2A4.048,4.048,0,0,0,11.319.061a4.09,4.09,0,0,0-2.59,1.633,6.432,6.432,0,0,0-.571.885,6.009,6.009,0,0,0-.594-.889A4.031,4.031,0,0,0,4.373.066,4.023,4.023,0,0,0,1.783.93,4.676,4.676,0,0,0,.008,4.492a5.387,5.387,0,0,0,1,3.37,13.153,13.153,0,0,0,2.073,2.332c1.549,1.429,3.193,2.748,4.792,4.118a.5.5,0,0,0,.751,0q1.4-1.216,2.79-2.433a30.767,30.767,0,0,0,3.172-3.051,7.052,7.052,0,0,0,1.657-3.059,2.261,2.261,0,0,1,.111-.549l0-.192M14.228,7.058A10.711,10.711,0,0,1,12.261,9.4c-1.275,1.211-2.63,2.332-3.947,3.5-.049.043-.081.064-.144.01C6.7,11.64,5.176,10.44,3.776,9.1A9.494,9.494,0,0,1,2.157,7.149a3.99,3.99,0,0,1-.62-2.107,3.82,3.82,0,0,1,.774-2.3,2.919,2.919,0,0,1,3.48-.875A3.284,3.284,0,0,1,7.09,3a5.389,5.389,0,0,1,.642,1.245.45.45,0,0,0,.879-.009A4.588,4.588,0,0,1,9.84,2.284a2.735,2.735,0,0,1,2.333-.691A3.158,3.158,0,0,1,14.726,4.17a3.955,3.955,0,0,1-.5,2.887" transform="translate(0 0)" fill="#fff"/>
  </g>
</svg>
