<svg xmlns="http://www.w3.org/2000/svg" xmlns:xlink="http://www.w3.org/1999/xlink" width="13.477" height="15.469" viewBox="0 0 13.477 15.469">
  <defs>
    <clipPath id="clip-path">
      <rect id="Rectangle_844" data-name="Rectangle 844" width="13.477" height="15.469" fill="none"/>
    </clipPath>
  </defs>
  <g id="Group_1256" data-name="Group 1256" clip-path="url(#clip-path)">
    <path id="Path_39269" data-name="Path 39269" d="M5,6.756q1.98-1.221,3.954-2.45c.092-.058.136-.044.211.027a2.459,2.459,0,0,0,2.254.683,2.529,2.529,0,0,0,.3-4.893C11.563.073,11.4.04,11.245,0h-.634A1.161,1.161,0,0,1,10.3.077,2.537,2.537,0,0,0,8.531,3.323c.024.076.049.127-.045.185Q6.492,4.735,4.5,5.972a.109.109,0,0,1-.164-.019A2.506,2.506,0,0,0,2.2,5.223,2.537,2.537,0,0,0,.054,8.218a2.446,2.446,0,0,0,1.762,1.936,2.437,2.437,0,0,0,2.513-.63c.065-.062.1-.076.188-.024Q6.49,10.729,8.47,11.95c.077.048.1.083.067.177A2.532,2.532,0,1,0,10.843,10.4a2.5,2.5,0,0,0-1.7.746c-.059.059-.1.076-.175.028Q6.986,9.936,4.993,8.707c-.079-.048-.082-.088-.056-.165a2.411,2.411,0,0,0,0-1.624C4.907,6.835,4.925,6.8,5,6.756M10.937.931a1.6,1.6,0,1,1-1.6,1.594,1.6,1.6,0,0,1,1.6-1.594m-8.405,8.4a1.6,1.6,0,1,1,1.616-1.6,1.6,1.6,0,0,1-1.616,1.6m8.414,1.992a1.6,1.6,0,1,1-.014,3.207,1.6,1.6,0,0,1,.014-3.207" transform="translate(0.001)" fill="#fff"/>
  </g>
</svg>
