<svg id="Group_1660" data-name="Group 1660" xmlns="http://www.w3.org/2000/svg" xmlns:xlink="http://www.w3.org/1999/xlink" width="13.636" height="19.298" viewBox="0 0 13.636 19.298">
  <defs>
    <clipPath id="clip-path">
      <rect id="Rectangle_961" data-name="Rectangle 961" width="13.636" height="19.298" fill="none"/>
    </clipPath>
  </defs>
  <g id="Group_1661" data-name="Group 1661" clip-path="url(#clip-path)">
    <path id="Path_39349" data-name="Path 39349" d="M7.455,0c.359.051.72.093,1.078.154a6.359,6.359,0,0,1,4.005,2.292,4.676,4.676,0,0,1,1.088,3.335,4.422,4.422,0,0,1-1.2,2.68,26.157,26.157,0,0,1-2.544,2.377c-.2.177-.4.365-.6.545a2.7,2.7,0,0,0-.931,1.827,1.176,1.176,0,0,1-1.316,1.149c-.27,0-.54,0-.81,0A1.179,1.179,0,0,1,5.008,13.13,4.686,4.686,0,0,1,6.474,9.584c.789-.727,1.612-1.416,2.417-2.127a3.35,3.35,0,0,0,.948-1.1,2.34,2.34,0,0,0-.66-2.82A3.349,3.349,0,0,0,6.994,2.8a3.524,3.524,0,0,0-2.37.749,3.473,3.473,0,0,0-.931,1.215c-.049.1-.089.207-.136.31A1.241,1.241,0,0,1,2.1,5.869C1.62,5.8,1.135,5.744.649,5.686a.659.659,0,0,1-.625-.868A5.847,5.847,0,0,1,3.671.551,6.936,6.936,0,0,1,5.914.036,1.565,1.565,0,0,0,6.1,0Z" transform="translate(0)" fill="#fff"/>
    <path id="Path_39350" data-name="Path 39350" d="M33.494,106.425c0-.226-.006-.452,0-.678a1.163,1.163,0,0,1,1.095-1.131,10.591,10.591,0,0,1,1.091,0,1.156,1.156,0,0,1,1.12,1.127c.017.464.018.93,0,1.393a1.177,1.177,0,0,1-1.179,1.133q-.471.008-.942,0a1.183,1.183,0,0,1-1.186-1.184c0-.22,0-.439,0-.659h0" transform="translate(-28.488 -88.973)" fill="#fff"/>
  </g>
</svg>
