<svg xmlns="http://www.w3.org/2000/svg" width="32.097" height="32.205" viewBox="0 0 32.097 32.205">
  <g id="Group_1588" data-name="Group 1588" transform="translate(-767.217 -889)">
    <path id="Path_39324" data-name="Path 39324" d="M932.1,90.359a4.484,4.484,0,0,0-.812.059V92.6h.706c.894,0,1.423-.447,1.423-1.141,0-.729-.494-1.094-1.317-1.105" transform="translate(-152.134 811.539)" fill="#fff"/>
    <path id="Path_39325" data-name="Path 39325" d="M891.943,30.47a1.379,1.379,0,0,1,.007-2.006.555.555,0,0,0-.074-.9,1.41,1.41,0,0,1-.366-2.024.552.552,0,0,0-.279-.864,1.378,1.378,0,0,1-.716-1.871.555.555,0,0,0-.4-.817,1.411,1.411,0,0,1-1.072-1.7.578.578,0,0,0-.547-.739A1.431,1.431,0,0,1,887.122,18a.506.506,0,0,0-.592-.558A1.5,1.5,0,0,1,884.8,16.1a.471.471,0,0,0-.656-.372,1.446,1.446,0,0,1-1.906-.939.547.547,0,0,0-.818-.3,1.384,1.384,0,0,1-1.942-.543.609.609,0,0,0-.969-.149,1.323,1.323,0,0,1-1.889-.164.637.637,0,0,0-1.03-.014,1.307,1.307,0,0,1-1.885.185.671.671,0,0,0-1.066.224,1.278,1.278,0,0,1-1.78.486c-.453-.205-.721-.053-.971.364-.309.515-.567,1.2-1.418.877-.716-.245-1.1.069-1.242.757-.145.712-.641.882-1.274.882-.515,0-.922.132-.92.771,0,.871-.529,1.25-1.314,1.363a.576.576,0,0,0-.567.725,1.44,1.44,0,0,1-1.113,1.748c-.384.129-.485.38-.363.774a1.38,1.38,0,0,1-.694,1.877.584.584,0,0,0-.283.92,1.363,1.363,0,0,1-.366,1.964.587.587,0,0,0-.066.96,1.352,1.352,0,0,1,0,1.948.583.583,0,0,0,.078.958,1.358,1.358,0,0,1,.354,1.966.591.591,0,0,0,.3.917,1.336,1.336,0,0,1,.7,1.82.584.584,0,0,0,.424.864,1.357,1.357,0,0,1,1.039,1.656c-.063.438.1.741.579.785a1.374,1.374,0,0,1,1.338,1.5c.019.426.243.631.629.6a1.445,1.445,0,0,1,1.682,1.3.506.506,0,0,0,.7.4,1.41,1.41,0,0,1,1.854.907.577.577,0,0,0,.867.319,1.36,1.36,0,0,1,1.887.523.642.642,0,0,0,1.022.165,1.267,1.267,0,0,1,1.831.156.671.671,0,0,0,1.086.016,1.26,1.26,0,0,1,1.827-.182.7.7,0,0,0,1.12-.234,1.255,1.255,0,0,1,1.724-.47.667.667,0,0,0,1.013-.386,1.268,1.268,0,0,1,1.638-.835c.566.16.841-.112.955-.607a1.23,1.23,0,0,1,1.43-1.054c.5.027.8-.179.811-.725a1.308,1.308,0,0,1,1.291-1.382c.513-.067.652-.384.606-.839A1.294,1.294,0,0,1,890,37.015c.538-.157.631-.484.5-1.015-.127-.509-.271-1.03.359-1.455.861-.58.851-.649.462-1.65a.852.852,0,0,1,.216-1.112c.135-.113.215-.29.349-.4a.56.56,0,0,0,.056-.908m-23.086-4.005h-3.046v1.811h2.846v1.458h-2.846V32.92h-1.8V24.994h4.845Zm5.5,6.456a9.947,9.947,0,0,1-.553-1.846c-.212-.988-.552-1.258-1.282-1.27h-.541V32.92h-1.776V25.1a15.737,15.737,0,0,1,2.387-.165,4.045,4.045,0,0,1,2.564.623,2.012,2.012,0,0,1,.729,1.658,2.1,2.1,0,0,1-1.4,1.952V29.2a2,2,0,0,1,1.058,1.482c.247.894.494,1.929.647,2.234Zm7.879,0h-5.056V24.994h4.892v1.47h-3.093v1.646H881.9v1.458h-2.916V31.45h3.258Zm6.279,0h-5.057V24.994h4.892v1.47H885.26v1.646h2.916v1.458H885.26V31.45h3.257Z" transform="translate(-92.834 875.634)" fill="#fff"/>
  </g>
</svg>
