<svg xmlns="http://www.w3.org/2000/svg" width="25.229" height="32.205" viewBox="0 0 25.229 32.205">
  <path id="Path_39323" data-name="Path 39323" d="M331.046,12.158A12.445,12.445,0,0,1,326.4,5.435,10.679,10.679,0,0,1,327.042,0a12.561,12.561,0,0,0-4.863,3.218,13.087,13.087,0,0,0-4.22,8.582,17.525,17.525,0,0,0,.715,5.936c.072.286.858,1.716-.358,2.074s-2.289-1.216-2.932-3.647a16.12,16.12,0,0,1-.071-5.721s-3.5,5.364-3.933,8.081-.429,6.151,2.074,8.8,6.365,5.435,11.872,4.792,10.084-4.506,10.942-9.869-2.861-8.3-5.221-10.084m-3.5,14.876a4.961,4.961,0,0,1-5.006,2.289,4.622,4.622,0,0,1-2.932-1.645s2.861-1.43,3.576-3.218a5.481,5.481,0,0,0-.286-3.934,9.989,9.989,0,0,1-.143-2.932c.143-.715.358-1.5.358-1.5a27.875,27.875,0,0,0,3.218,4c1.788,1.788,2.431,5.006,1.216,6.937" transform="translate(-311.165)" fill="#fff"/>
</svg>
