<svg width="108" height="124" viewBox="0 0 108 124" fill="none" xmlns="http://www.w3.org/2000/svg">
<path d="M21.544 61.136H10.068V57.336C10.068 56.348 10.068 56.348 10.296 56.12L20.936 41.984C22.76 39.628 22.76 39.628 22.76 37.12C22.76 32.332 18.808 28.38 13.944 28.38C9.156 28.38 5.204 32.332 5.204 37.12V39.78C5.204 40.388 5.736 40.996 6.42 40.996H8.852C9.536 40.996 10.068 40.388 10.068 39.78V37.12C10.068 34.992 11.816 33.244 13.944 33.244C16.148 33.244 17.896 34.992 17.896 37.12C17.896 38.108 17.896 38.108 17.668 38.412L7.028 52.472C5.204 54.904 5.204 54.904 5.204 57.336V64.784C5.204 65.392 5.736 66 6.42 66H21.544C22.228 66 22.76 65.392 22.76 64.784V62.352C22.76 61.668 22.228 61.136 21.544 61.136Z" fill="#232323"/>
<path d="M10.068 61.136H9.568V61.636H10.068V61.136ZM10.296 56.12L10.6496 56.4736L10.6744 56.4487L10.6955 56.4207L10.296 56.12ZM20.936 41.984L20.5406 41.6779L20.5365 41.6833L20.936 41.984ZM17.668 38.412L18.0667 38.7137L18.068 38.712L17.668 38.412ZM7.028 52.472L6.62929 52.1703L6.628 52.172L7.028 52.472ZM21.544 60.636H10.068V61.636H21.544V60.636ZM10.568 61.136V57.336H9.568V61.136H10.568ZM10.568 57.336C10.568 57.0863 10.568 56.9085 10.5714 56.7737C10.5749 56.6354 10.5815 56.5694 10.5879 56.5351C10.5918 56.5143 10.591 56.5286 10.5786 56.547C10.5783 56.5474 10.5828 56.5403 10.6496 56.4736L9.94245 55.7664C9.89522 55.8137 9.81417 55.8921 9.74976 55.9875C9.67322 56.1009 9.62966 56.2197 9.60506 56.3509C9.56556 56.5615 9.568 56.8729 9.568 57.336H10.568ZM10.6955 56.4207L21.3355 42.2847L20.5365 41.6833L9.89652 55.8193L10.6955 56.4207ZM21.3314 42.2901C22.2214 41.1405 22.739 40.4809 23.0002 39.7846C23.2671 39.0728 23.26 38.3409 23.26 37.12H22.26C22.26 38.4071 22.2529 38.9291 22.0638 39.4334C21.869 39.9531 21.4746 40.4715 20.5406 41.6779L21.3314 42.2901ZM23.26 37.12C23.26 32.053 19.0813 27.88 13.944 27.88V28.88C18.5347 28.88 22.26 32.611 22.26 37.12H23.26ZM13.944 27.88C8.87986 27.88 4.704 32.0559 4.704 37.12H5.704C5.704 32.6081 9.43214 28.88 13.944 28.88V27.88ZM4.704 37.12V39.78H5.704V37.12H4.704ZM4.704 39.78C4.704 40.6439 5.44002 41.496 6.42 41.496V40.496C6.03198 40.496 5.704 40.1321 5.704 39.78H4.704ZM6.42 41.496H8.852V40.496H6.42V41.496ZM8.852 41.496C9.83198 41.496 10.568 40.6439 10.568 39.78H9.568C9.568 40.1321 9.24002 40.496 8.852 40.496V41.496ZM10.568 39.78V37.12H9.568V39.78H10.568ZM10.568 37.12C10.568 35.2681 12.0921 33.744 13.944 33.744V32.744C11.5399 32.744 9.568 34.7159 9.568 37.12H10.568ZM13.944 33.744C15.8782 33.744 17.396 35.2744 17.396 37.12H18.396C18.396 34.7095 16.4178 32.744 13.944 32.744V33.744ZM17.396 37.12C17.396 37.6416 17.3939 37.8293 17.3751 37.9356C17.3693 37.9687 17.3814 37.9608 17.268 38.112L18.068 38.712C18.1826 38.5592 18.3087 38.3993 18.3599 38.1094C18.3981 37.8927 18.396 37.5864 18.396 37.12H17.396ZM17.2693 38.1103L6.6293 52.1703L7.4267 52.7737L18.0667 38.7137L17.2693 38.1103ZM6.628 52.172C5.73693 53.3601 5.22333 54.0365 4.96384 54.7284C4.69712 55.4397 4.704 56.1511 4.704 57.336H5.704C5.704 56.0889 5.71088 55.5843 5.90016 55.0796C6.09667 54.5555 6.49507 54.0159 7.428 52.772L6.628 52.172ZM4.704 57.336V64.784H5.704V57.336H4.704ZM4.704 64.784C4.704 65.6479 5.44002 66.5 6.42 66.5V65.5C6.03198 65.5 5.704 65.1361 5.704 64.784H4.704ZM6.42 66.5H21.544V65.5H6.42V66.5ZM21.544 66.5C22.524 66.5 23.26 65.6479 23.26 64.784H22.26C22.26 65.1361 21.932 65.5 21.544 65.5V66.5ZM23.26 64.784V62.352H22.26V64.784H23.26ZM23.26 62.352C23.26 61.3919 22.5041 60.636 21.544 60.636V61.636C21.9519 61.636 22.26 61.9441 22.26 62.352H23.26Z" fill="#B9B9B9"/>
<g style="mix-blend-mode:overlay" filter="url(#filter0_d_2590_13934)">
<rect x="19" y="27" width="70" height="70" rx="35" fill="#383838"/>
</g>
<path d="M53.2904 67.7651C53.2904 68.6486 51.2908 69.3657 48.8232 69.3657C46.3572 69.3657 44.3568 68.649 44.3568 67.7651V69.4388C44.3568 70.3227 46.3568 71.0394 48.8232 71.0394C51.2908 71.0394 53.2904 70.3231 53.2904 69.4388V67.7651Z" fill="url(#paint0_linear_2590_13934)"/>
<path d="M53.2904 63.8257C53.2904 64.71 51.2908 65.4267 48.8232 65.4267C46.3572 65.4267 44.3568 64.7104 44.3568 63.8257C44.3568 62.9418 46.3568 62.2251 48.8232 62.2251C51.2904 62.2251 53.2904 62.9418 53.2904 63.8257Z" fill="url(#paint1_linear_2590_13934)"/>
<path d="M53.2904 64.9585C53.2904 65.8424 51.2908 66.5591 48.8232 66.5591C46.3572 66.5591 44.3568 65.8428 44.3568 64.9585V66.6322C44.3568 67.5161 46.3568 68.2328 48.8232 68.2328C51.2908 68.2328 53.2904 67.5165 53.2904 66.6322V64.9585Z" fill="url(#paint2_linear_2590_13934)"/>
<path d="M53.2904 70.7256C53.2904 71.6095 51.2908 72.3262 48.8232 72.3262C46.3572 72.3262 44.3568 71.6099 44.3568 70.7256V72.3997C44.3568 73.2832 46.3568 73.9995 48.8232 73.9995C51.2908 73.9995 53.2904 73.2832 53.2904 72.3997V70.7256Z" fill="url(#paint3_linear_2590_13934)"/>
<path d="M63.6465 67.7651C63.6465 68.6486 61.6473 69.3657 59.1793 69.3657C56.7137 69.3657 54.7125 68.649 54.7125 67.7651V69.4388C54.7125 70.3227 56.7125 71.0394 59.1793 71.0394C61.6473 71.0394 63.6465 70.3231 63.6465 69.4388V67.7651Z" fill="url(#paint4_linear_2590_13934)"/>
<path d="M63.6465 64.9585C63.6465 65.8424 61.6473 66.5591 59.1793 66.5591C56.7137 66.5591 54.7125 65.8428 54.7125 64.9585V66.6322C54.7125 67.5161 56.7125 68.2328 59.1793 68.2328C61.6473 68.2328 63.6465 67.5165 63.6465 66.6322V64.9585Z" fill="url(#paint5_linear_2590_13934)"/>
<path d="M63.6465 62.1519C63.6465 63.0357 61.6473 63.7529 59.1793 63.7529C56.7137 63.7529 54.7125 63.0361 54.7125 62.1519V63.8255C54.7125 64.7098 56.7125 65.4266 59.1793 65.4266C61.6473 65.4266 63.6465 64.7102 63.6465 63.8255V62.1519Z" fill="url(#paint6_linear_2590_13934)"/>
<path d="M63.6465 58.2128C63.6465 59.0967 61.6473 59.8134 59.1793 59.8134C56.7137 59.8134 54.7125 59.0971 54.7125 58.2128C54.7125 57.3285 56.7125 56.6118 59.1793 56.6118C61.6473 56.6118 63.6465 57.3281 63.6465 58.2128Z" fill="url(#paint7_linear_2590_13934)"/>
<path d="M63.6465 59.3452C63.6465 60.2295 61.6473 60.9462 59.1793 60.9462C56.7137 60.9462 54.7125 60.2299 54.7125 59.3452V61.0193C54.7125 61.9028 56.7125 62.6199 59.1793 62.6199C61.6473 62.6199 63.6465 61.9032 63.6465 61.0193V59.3452Z" fill="url(#paint8_linear_2590_13934)"/>
<path d="M63.6465 70.7256C63.6465 71.6095 61.6473 72.3262 59.1793 72.3262C56.7137 72.3262 54.7125 71.6099 54.7125 70.7256V72.3997C54.7125 73.2832 56.7125 73.9995 59.1793 73.9995C61.6473 73.9995 63.6465 73.2832 63.6465 72.3997V70.7256Z" fill="url(#paint9_linear_2590_13934)"/>
<path d="M74 67.7651C74 68.6486 72.0012 69.3657 69.5336 69.3657C67.0676 69.3657 65.0664 68.649 65.0664 67.7651V69.4388C65.0664 70.3227 67.0664 71.0394 69.5336 71.0394C72.0008 71.0394 74 70.3231 74 69.4388V67.7651Z" fill="url(#paint10_linear_2590_13934)"/>
<path d="M74 64.9585C74 65.8424 72.0012 66.5591 69.5336 66.5591C67.0676 66.5591 65.0664 65.8428 65.0664 64.9585V66.6322C65.0664 67.5161 67.0664 68.2328 69.5336 68.2328C72.0008 68.2328 74 67.5165 74 66.6322V64.9585Z" fill="url(#paint11_linear_2590_13934)"/>
<path d="M74 62.1519C74 63.0357 72.0012 63.7529 69.5336 63.7529C67.0676 63.7529 65.0664 63.0361 65.0664 62.1519V63.8255C65.0664 64.7098 67.0664 65.4266 69.5336 65.4266C72.0008 65.4266 74 64.7102 74 63.8255V62.1519Z" fill="url(#paint12_linear_2590_13934)"/>
<path d="M74 59.3452C74 60.2295 72.0012 60.9462 69.5336 60.9462C67.0676 60.9462 65.0664 60.2299 65.0664 59.3452V61.0193C65.0664 61.9028 67.0664 62.6199 69.5336 62.6199C72.0008 62.6199 74 61.9032 74 61.0193V59.3452Z" fill="url(#paint13_linear_2590_13934)"/>
<path d="M74 56.54C74 57.4239 72.0012 58.1406 69.5336 58.1406C67.0676 58.1406 65.0664 57.4243 65.0664 56.54V58.2137C65.0664 59.0976 67.0664 59.8143 69.5336 59.8143C72.0008 59.8143 74 59.098 74 58.2137V56.54Z" fill="url(#paint14_linear_2590_13934)"/>
<path d="M74 52.6006C74 53.4845 72.0012 54.2012 69.5336 54.2012C67.0676 54.2012 65.0664 53.4845 65.0664 52.6006C65.0664 51.7163 67.0664 51 69.5336 51C72.0008 51 74 51.7163 74 52.6006Z" fill="url(#paint15_linear_2590_13934)"/>
<path d="M74 53.7334C74 54.6173 72.0012 55.334 69.5336 55.334C67.0676 55.334 65.0664 54.6177 65.0664 53.7334V55.4071C65.0664 56.2914 67.0664 57.0081 69.5336 57.0081C72.0008 57.0081 74 56.2918 74 55.4071V53.7334Z" fill="url(#paint16_linear_2590_13934)"/>
<path d="M74 70.7256C74 71.6095 72.0012 72.3262 69.5336 72.3262C67.0676 72.3262 65.0664 71.6099 65.0664 70.7256V72.3997C65.0664 73.2832 67.0664 73.9995 69.5336 73.9995C72.0008 73.9995 74 73.2832 74 72.3997V70.7256Z" fill="url(#paint17_linear_2590_13934)"/>
<path d="M42.9336 69.592C42.9336 70.4771 40.9336 71.1938 38.4668 71.1938C36.0004 71.1938 34 70.4775 34 69.592C34 68.7085 36.0004 67.9922 38.4668 67.9922C40.9336 67.9922 42.9336 68.7089 42.9336 69.592Z" fill="url(#paint18_linear_2590_13934)"/>
<path d="M42.9336 70.7256C42.9336 71.6091 40.9336 72.3254 38.4668 72.3254C36.0004 72.3254 34 71.6091 34 70.7256V72.3989C34 73.2832 36.0004 73.9999 38.4668 73.9999C40.9336 73.9999 42.9336 73.2836 42.9336 72.3989V70.7256Z" fill="url(#paint19_linear_2590_13934)"/>
<defs>
<filter id="filter0_d_2590_13934" x="0" y="16" width="108" height="108" filterUnits="userSpaceOnUse" color-interpolation-filters="sRGB">
<feFlood flood-opacity="0" result="BackgroundImageFix"/>
<feColorMatrix in="SourceAlpha" type="matrix" values="0 0 0 0 0 0 0 0 0 0 0 0 0 0 0 0 0 0 127 0" result="hardAlpha"/>
<feMorphology radius="5" operator="erode" in="SourceAlpha" result="effect1_dropShadow_2590_13934"/>
<feOffset dy="8"/>
<feGaussianBlur stdDeviation="12"/>
<feComposite in2="hardAlpha" operator="out"/>
<feColorMatrix type="matrix" values="0 0 0 0 1 0 0 0 0 1 0 0 0 0 1 0 0 0 0.25 0"/>
<feBlend mode="normal" in2="BackgroundImageFix" result="effect1_dropShadow_2590_13934"/>
<feBlend mode="normal" in="SourceGraphic" in2="effect1_dropShadow_2590_13934" result="shape"/>
</filter>
<linearGradient id="paint0_linear_2590_13934" x1="44.3568" y1="69.4023" x2="53.2904" y2="69.4023" gradientUnits="userSpaceOnUse">
<stop stop-color="#F2B01C"/>
<stop offset="1" stop-color="#EBCE2C"/>
</linearGradient>
<linearGradient id="paint1_linear_2590_13934" x1="44.3568" y1="63.8259" x2="53.2904" y2="63.8259" gradientUnits="userSpaceOnUse">
<stop stop-color="#F2B01C"/>
<stop offset="1" stop-color="#EBCE2C"/>
</linearGradient>
<linearGradient id="paint2_linear_2590_13934" x1="44.3568" y1="66.5956" x2="53.2904" y2="66.5956" gradientUnits="userSpaceOnUse">
<stop stop-color="#F2B01C"/>
<stop offset="1" stop-color="#EBCE2C"/>
</linearGradient>
<linearGradient id="paint3_linear_2590_13934" x1="44.3568" y1="72.3625" x2="53.2904" y2="72.3625" gradientUnits="userSpaceOnUse">
<stop stop-color="#F2B01C"/>
<stop offset="1" stop-color="#EBCE2C"/>
</linearGradient>
<linearGradient id="paint4_linear_2590_13934" x1="54.7125" y1="69.4023" x2="63.6465" y2="69.4023" gradientUnits="userSpaceOnUse">
<stop stop-color="#F2B01C"/>
<stop offset="1" stop-color="#EBCE2C"/>
</linearGradient>
<linearGradient id="paint5_linear_2590_13934" x1="54.7125" y1="66.5956" x2="63.6465" y2="66.5956" gradientUnits="userSpaceOnUse">
<stop stop-color="#F2B01C"/>
<stop offset="1" stop-color="#EBCE2C"/>
</linearGradient>
<linearGradient id="paint6_linear_2590_13934" x1="54.7125" y1="63.7892" x2="63.6465" y2="63.7892" gradientUnits="userSpaceOnUse">
<stop stop-color="#F2B01C"/>
<stop offset="1" stop-color="#EBCE2C"/>
</linearGradient>
<linearGradient id="paint7_linear_2590_13934" x1="54.7125" y1="58.2126" x2="63.6465" y2="58.2126" gradientUnits="userSpaceOnUse">
<stop stop-color="#F2B01C"/>
<stop offset="1" stop-color="#EBCE2C"/>
</linearGradient>
<linearGradient id="paint8_linear_2590_13934" x1="54.7125" y1="60.9826" x2="63.6465" y2="60.9826" gradientUnits="userSpaceOnUse">
<stop stop-color="#F2B01C"/>
<stop offset="1" stop-color="#EBCE2C"/>
</linearGradient>
<linearGradient id="paint9_linear_2590_13934" x1="54.7125" y1="72.3625" x2="63.6465" y2="72.3625" gradientUnits="userSpaceOnUse">
<stop stop-color="#F2B01C"/>
<stop offset="1" stop-color="#EBCE2C"/>
</linearGradient>
<linearGradient id="paint10_linear_2590_13934" x1="65.0664" y1="69.4023" x2="74" y2="69.4023" gradientUnits="userSpaceOnUse">
<stop stop-color="#F2B01C"/>
<stop offset="1" stop-color="#EBCE2C"/>
</linearGradient>
<linearGradient id="paint11_linear_2590_13934" x1="65.0664" y1="66.5956" x2="74" y2="66.5956" gradientUnits="userSpaceOnUse">
<stop stop-color="#F2B01C"/>
<stop offset="1" stop-color="#EBCE2C"/>
</linearGradient>
<linearGradient id="paint12_linear_2590_13934" x1="65.0664" y1="63.7892" x2="74" y2="63.7892" gradientUnits="userSpaceOnUse">
<stop stop-color="#F2B01C"/>
<stop offset="1" stop-color="#EBCE2C"/>
</linearGradient>
<linearGradient id="paint13_linear_2590_13934" x1="65.0664" y1="60.9826" x2="74" y2="60.9826" gradientUnits="userSpaceOnUse">
<stop stop-color="#F2B01C"/>
<stop offset="1" stop-color="#EBCE2C"/>
</linearGradient>
<linearGradient id="paint14_linear_2590_13934" x1="65.0664" y1="58.1772" x2="74" y2="58.1772" gradientUnits="userSpaceOnUse">
<stop stop-color="#F2B01C"/>
<stop offset="1" stop-color="#EBCE2C"/>
</linearGradient>
<linearGradient id="paint15_linear_2590_13934" x1="65.0664" y1="52.6006" x2="74" y2="52.6006" gradientUnits="userSpaceOnUse">
<stop stop-color="#F2B01C"/>
<stop offset="1" stop-color="#EBCE2C"/>
</linearGradient>
<linearGradient id="paint16_linear_2590_13934" x1="65.0664" y1="55.3707" x2="74" y2="55.3707" gradientUnits="userSpaceOnUse">
<stop stop-color="#F2B01C"/>
<stop offset="1" stop-color="#EBCE2C"/>
</linearGradient>
<linearGradient id="paint17_linear_2590_13934" x1="65.0664" y1="72.3625" x2="74" y2="72.3625" gradientUnits="userSpaceOnUse">
<stop stop-color="#F2B01C"/>
<stop offset="1" stop-color="#EBCE2C"/>
</linearGradient>
<linearGradient id="paint18_linear_2590_13934" x1="34" y1="69.593" x2="42.9336" y2="69.593" gradientUnits="userSpaceOnUse">
<stop stop-color="#F2B01C"/>
<stop offset="1" stop-color="#EBCE2C"/>
</linearGradient>
<linearGradient id="paint19_linear_2590_13934" x1="34" y1="72.3627" x2="42.9336" y2="72.3627" gradientUnits="userSpaceOnUse">
<stop stop-color="#F2B01C"/>
<stop offset="1" stop-color="#EBCE2C"/>
</linearGradient>
</defs>
</svg>
