<svg width="108" height="124" viewBox="0 0 108 124" fill="none" xmlns="http://www.w3.org/2000/svg">
<path d="M20.76 37.12C20.76 32.332 16.808 28.38 11.944 28.38C7.156 28.38 3.204 32.332 3.204 37.12V39.78C3.204 40.388 3.736 40.996 4.42 40.996H6.852C7.536 40.996 8.068 40.388 8.068 39.78V37.12C8.068 34.992 9.816 33.244 11.944 33.244C14.148 33.244 15.896 34.992 15.896 37.12V40.768C15.896 42.972 14.148 44.72 11.944 44.72C11.26 44.72 10.728 45.252 10.728 45.936V48.368C10.728 49.052 11.26 49.584 11.944 49.584C14.148 49.584 15.896 51.332 15.896 53.46V57.184C15.896 59.388 14.148 61.136 11.944 61.136C9.816 61.136 8.068 59.388 8.068 57.184V54.6C8.068 53.916 7.536 53.384 6.852 53.384H4.42C3.736 53.384 3.204 53.916 3.204 54.6V57.184C3.204 62.048 7.156 66 11.944 66C16.808 66 20.76 62.048 20.76 57.184V53.46C20.76 50.952 19.696 48.748 18.024 47.152C19.696 45.556 20.76 43.276 20.76 40.768V37.12Z" fill="#232323"/>
<path d="M18.024 47.152L17.6788 46.7903L17.2999 47.152L17.6788 47.5137L18.024 47.152ZM21.26 37.12C21.26 32.053 17.0813 27.88 11.944 27.88V28.88C16.5347 28.88 20.26 32.611 20.26 37.12H21.26ZM11.944 27.88C6.87986 27.88 2.704 32.0559 2.704 37.12H3.704C3.704 32.6081 7.43214 28.88 11.944 28.88V27.88ZM2.704 37.12V39.78H3.704V37.12H2.704ZM2.704 39.78C2.704 40.6439 3.44002 41.496 4.42 41.496V40.496C4.03198 40.496 3.704 40.1321 3.704 39.78H2.704ZM4.42 41.496H6.852V40.496H4.42V41.496ZM6.852 41.496C7.83198 41.496 8.568 40.6439 8.568 39.78H7.568C7.568 40.1321 7.24002 40.496 6.852 40.496V41.496ZM8.568 39.78V37.12H7.568V39.78H8.568ZM8.568 37.12C8.568 35.2681 10.0921 33.744 11.944 33.744V32.744C9.53986 32.744 7.568 34.7159 7.568 37.12H8.568ZM11.944 33.744C13.8782 33.744 15.396 35.2744 15.396 37.12H16.396C16.396 34.7095 14.4178 32.744 11.944 32.744V33.744ZM15.396 37.12V40.768H16.396V37.12H15.396ZM15.396 40.768C15.396 42.6959 13.8719 44.22 11.944 44.22V45.22C14.4241 45.22 16.396 43.2481 16.396 40.768H15.396ZM11.944 44.22C10.9839 44.22 10.228 44.9759 10.228 45.936H11.228C11.228 45.5281 11.5361 45.22 11.944 45.22V44.22ZM10.228 45.936V48.368H11.228V45.936H10.228ZM10.228 48.368C10.228 49.3281 10.9839 50.084 11.944 50.084V49.084C11.5361 49.084 11.228 48.7759 11.228 48.368H10.228ZM11.944 50.084C13.8782 50.084 15.396 51.6144 15.396 53.46H16.396C16.396 51.0496 14.4178 49.084 11.944 49.084V50.084ZM15.396 53.46V57.184H16.396V53.46H15.396ZM15.396 57.184C15.396 59.1119 13.8719 60.636 11.944 60.636V61.636C14.4241 61.636 16.396 59.6641 16.396 57.184H15.396ZM11.944 60.636C10.0984 60.636 8.568 59.1182 8.568 57.184H7.568C7.568 59.6578 9.53355 61.636 11.944 61.636V60.636ZM8.568 57.184V54.6H7.568V57.184H8.568ZM8.568 54.6C8.568 53.6399 7.81214 52.884 6.852 52.884V53.884C7.25986 53.884 7.568 54.1921 7.568 54.6H8.568ZM6.852 52.884H4.42V53.884H6.852V52.884ZM4.42 52.884C3.45986 52.884 2.704 53.6399 2.704 54.6H3.704C3.704 54.1921 4.01214 53.884 4.42 53.884V52.884ZM2.704 54.6V57.184H3.704V54.6H2.704ZM2.704 57.184C2.704 62.3213 6.87705 66.5 11.944 66.5V65.5C7.43495 65.5 3.704 61.7747 3.704 57.184H2.704ZM11.944 66.5C17.0841 66.5 21.26 62.3241 21.26 57.184H20.26C20.26 61.7719 16.5319 65.5 11.944 65.5V66.5ZM21.26 57.184V53.46H20.26V57.184H21.26ZM21.26 53.46C21.26 50.8043 20.1318 48.4727 18.3692 46.7903L17.6788 47.5137C19.2602 49.0233 20.26 51.0997 20.26 53.46H21.26ZM18.3692 47.5137C20.1353 45.8279 21.26 43.4191 21.26 40.768H20.26C20.26 43.1329 19.2567 45.2841 17.6788 46.7903L18.3692 47.5137ZM21.26 40.768V37.12H20.26V40.768H21.26Z" fill="#B9B9B9"/>
<g style="mix-blend-mode:overlay" filter="url(#filter0_d_2590_13935)">
<rect x="19" y="27" width="70" height="70" rx="35" fill="white"/>
</g>
<path d="M38.9801 57.3255L36.5315 56.5643C37.4235 53.6954 39.0342 51.0606 41.1899 48.9452C43.348 46.8273 46.0157 45.2657 48.9048 44.4292L49.618 46.8921C44.5296 48.3654 40.5529 52.2656 38.9801 57.3255Z" fill="#F8ED1D"/>
<path d="M38.9801 57.3255L36.5315 56.5643C37.4235 53.6954 39.0342 51.0606 41.1899 48.9452C43.348 46.8273 46.0157 45.2657 48.9048 44.4292L49.618 46.8921C44.5296 48.3654 40.5529 52.2656 38.9801 57.3255Z" fill="url(#paint0_linear_2590_13935)"/>
<path d="M48.8822 79.5644C45.9988 78.7256 43.3363 77.1638 41.1828 75.048C39.0316 72.9345 37.4235 70.3033 36.5325 67.4388L38.9809 66.6772C40.5518 71.7279 44.521 75.6251 49.5986 77.1025L48.8822 79.5644Z" fill="#F8ED1D"/>
<path d="M48.8822 79.5644C45.9988 78.7256 43.3363 77.1638 41.1828 75.048C39.0316 72.9345 37.4235 70.3033 36.5325 67.4388L38.9809 66.6772C40.5518 71.7279 44.521 75.6251 49.5986 77.1025L48.8822 79.5644Z" fill="url(#paint1_linear_2590_13935)"/>
<path d="M60.3107 79.1728L59.426 76.7661C63.9904 75.0884 67.577 71.3168 69.0201 66.6772L71.4685 67.4388C69.7901 72.8351 65.619 77.2217 60.3107 79.1728Z" fill="#F8ED1D"/>
<path d="M60.3107 79.1728L59.426 76.7661C63.9904 75.0884 67.577 71.3168 69.0201 66.6772L71.4685 67.4388C69.7901 72.8351 65.619 77.2217 60.3107 79.1728Z" fill="url(#paint2_linear_2590_13935)"/>
<path d="M68.987 57.2168C67.5242 52.6281 63.9498 48.8959 59.426 47.2331L60.3107 44.8264C62.9015 45.7787 65.2853 47.3402 67.2049 49.3422C69.1289 51.349 70.5899 53.8028 71.43 56.4381L68.987 57.2168Z" fill="#F8ED1D"/>
<path d="M68.987 57.2168C67.5242 52.6281 63.9498 48.8959 59.426 47.2331L60.3107 44.8264C62.9015 45.7787 65.2853 47.3402 67.2049 49.3422C69.1289 51.349 70.5899 53.8028 71.43 56.4381L68.987 57.2168Z" fill="url(#paint3_linear_2590_13935)"/>
<path d="M53.9998 47.983C55.6519 47.983 56.9913 46.6436 56.9913 44.9915C56.9913 43.3393 55.6519 42 53.9998 42C52.3476 42 51.0083 43.3393 51.0083 44.9915C51.0083 46.6436 52.3476 47.983 53.9998 47.983Z" fill="#F8ED1D"/>
<path d="M53.9998 47.983C55.6519 47.983 56.9913 46.6436 56.9913 44.9915C56.9913 43.3393 55.6519 42 53.9998 42C52.3476 42 51.0083 43.3393 51.0083 44.9915C51.0083 46.6436 52.3476 47.983 53.9998 47.983Z" fill="url(#paint4_linear_2590_13935)"/>
<path d="M36.9915 64.9913C38.6437 64.9913 39.983 63.6519 39.983 61.9998C39.983 60.3476 38.6437 59.0083 36.9915 59.0083C35.3393 59.0083 34 60.3476 34 61.9998C34 63.6519 35.3393 64.9913 36.9915 64.9913Z" fill="#F8ED1D"/>
<path d="M36.9915 64.9913C38.6437 64.9913 39.983 63.6519 39.983 61.9998C39.983 60.3476 38.6437 59.0083 36.9915 59.0083C35.3393 59.0083 34 60.3476 34 61.9998C34 63.6519 35.3393 64.9913 36.9915 64.9913Z" fill="url(#paint5_linear_2590_13935)"/>
<path d="M53.9998 81.9996C55.6519 81.9996 56.9913 80.6602 56.9913 79.0081C56.9913 77.3559 55.6519 76.0166 53.9998 76.0166C52.3476 76.0166 51.0083 77.3559 51.0083 79.0081C51.0083 80.6602 52.3476 81.9996 53.9998 81.9996Z" fill="#F8ED1D"/>
<path d="M53.9998 81.9996C55.6519 81.9996 56.9913 80.6602 56.9913 79.0081C56.9913 77.3559 55.6519 76.0166 53.9998 76.0166C52.3476 76.0166 51.0083 77.3559 51.0083 79.0081C51.0083 80.6602 52.3476 81.9996 53.9998 81.9996Z" fill="url(#paint6_linear_2590_13935)"/>
<path d="M71.0091 64.9913C72.6612 64.9913 74.0006 63.6519 74.0006 61.9998C74.0006 60.3476 72.6612 59.0083 71.0091 59.0083C69.3569 59.0083 68.0176 60.3476 68.0176 61.9998C68.0176 63.6519 69.3569 64.9913 71.0091 64.9913Z" fill="#F8ED1D"/>
<path d="M71.0091 64.9913C72.6612 64.9913 74.0006 63.6519 74.0006 61.9998C74.0006 60.3476 72.6612 59.0083 71.0091 59.0083C69.3569 59.0083 68.0176 60.3476 68.0176 61.9998C68.0176 63.6519 69.3569 64.9913 71.0091 64.9913Z" fill="url(#paint7_linear_2590_13935)"/>
<path d="M49.8617 63.5922C49.9532 62.7996 50.2999 62.0566 50.7799 61.4258L50.6446 61.1354C49.9364 59.6156 48.3932 58.6335 46.713 58.6335C44.3216 58.6335 42.3761 60.5791 42.3761 62.9705V64.0798H49.8057L49.8617 63.5922Z" fill="#F8ED1D"/>
<path d="M49.8617 63.5922C49.9532 62.7996 50.2999 62.0566 50.7799 61.4258L50.6446 61.1354C49.9364 59.6156 48.3932 58.6335 46.713 58.6335C44.3216 58.6335 42.3761 60.5791 42.3761 62.9705V64.0798H49.8057L49.8617 63.5922Z" fill="url(#paint8_linear_2590_13935)"/>
<path d="M46.7128 57.3045C48.0774 57.3045 49.1875 56.2174 49.1875 54.8814C49.1875 53.5453 48.0774 52.4583 46.7128 52.4583C45.3483 52.4583 44.2382 53.5453 44.2382 54.8814C44.2382 56.2174 45.3483 57.3045 46.7128 57.3045Z" fill="#F8ED1D"/>
<path d="M46.7128 57.3045C48.0774 57.3045 49.1875 56.2174 49.1875 54.8814C49.1875 53.5453 48.0774 52.4583 46.7128 52.4583C45.3483 52.4583 44.2382 53.5453 44.2382 54.8814C44.2382 56.2174 45.3483 57.3045 46.7128 57.3045Z" fill="url(#paint9_linear_2590_13935)"/>
<path d="M61.2872 58.6335C59.6071 58.6335 58.0638 59.6155 57.3557 61.1354L57.2204 61.4257C57.8345 62.1991 58.1107 63.1085 58.1946 64.0798H65.6241V62.9704C65.6241 60.5791 63.6786 58.6335 61.2872 58.6335Z" fill="#F8ED1D"/>
<path d="M61.2872 58.6335C59.6071 58.6335 58.0638 59.6155 57.3557 61.1354L57.2204 61.4257C57.8345 62.1991 58.1107 63.1085 58.1946 64.0798H65.6241V62.9704C65.6241 60.5791 63.6786 58.6335 61.2872 58.6335Z" fill="url(#paint10_linear_2590_13935)"/>
<path d="M61.287 57.3045C62.6515 57.3045 63.7616 56.2174 63.7616 54.8814C63.7616 53.5453 62.6515 52.4583 61.287 52.4583C59.9224 52.4583 58.8123 53.5453 58.8123 54.8814C58.8123 56.2174 59.9224 57.3045 61.287 57.3045Z" fill="#F8ED1D"/>
<path d="M61.287 57.3045C62.6515 57.3045 63.7616 56.2174 63.7616 54.8814C63.7616 53.5453 62.6515 52.4583 61.287 52.4583C59.9224 52.4583 58.8123 53.5453 58.8123 54.8814C58.8123 56.2174 59.9224 57.3045 61.287 57.3045Z" fill="url(#paint11_linear_2590_13935)"/>
<path d="M54.0004 66.4748C55.365 66.4748 56.4751 65.3878 56.4751 64.0517C56.4751 62.7156 55.365 61.6287 54.0004 61.6287C52.6359 61.6287 51.5258 62.7157 51.5258 64.0518C51.5258 65.3879 52.6359 66.4748 54.0004 66.4748Z" fill="#F8ED1D"/>
<path d="M54.0004 66.4748C55.365 66.4748 56.4751 65.3878 56.4751 64.0517C56.4751 62.7156 55.365 61.6287 54.0004 61.6287C52.6359 61.6287 51.5258 62.7157 51.5258 64.0518C51.5258 65.3879 52.6359 66.4748 54.0004 66.4748Z" fill="url(#paint12_linear_2590_13935)"/>
<path d="M53.9996 67.8062C51.6082 67.8062 49.6627 69.7517 49.6627 72.1431V73.2525H58.3365V72.1431C58.3365 69.7517 56.391 67.8062 53.9996 67.8062Z" fill="#F8ED1D"/>
<path d="M53.9996 67.8062C51.6082 67.8062 49.6627 69.7517 49.6627 72.1431V73.2525H58.3365V72.1431C58.3365 69.7517 56.391 67.8062 53.9996 67.8062Z" fill="url(#paint13_linear_2590_13935)"/>
<defs>
<filter id="filter0_d_2590_13935" x="0" y="16" width="108" height="108" filterUnits="userSpaceOnUse" color-interpolation-filters="sRGB">
<feFlood flood-opacity="0" result="BackgroundImageFix"/>
<feColorMatrix in="SourceAlpha" type="matrix" values="0 0 0 0 0 0 0 0 0 0 0 0 0 0 0 0 0 0 127 0" result="hardAlpha"/>
<feMorphology radius="5" operator="erode" in="SourceAlpha" result="effect1_dropShadow_2590_13935"/>
<feOffset dy="8"/>
<feGaussianBlur stdDeviation="12"/>
<feComposite in2="hardAlpha" operator="out"/>
<feColorMatrix type="matrix" values="0 0 0 0 1 0 0 0 0 1 0 0 0 0 1 0 0 0 0.25 0"/>
<feBlend mode="normal" in2="BackgroundImageFix" result="effect1_dropShadow_2590_13935"/>
<feBlend mode="normal" in="SourceGraphic" in2="effect1_dropShadow_2590_13935" result="shape"/>
</filter>
<linearGradient id="paint0_linear_2590_13935" x1="36.5315" y1="50.8774" x2="49.618" y2="50.8774" gradientUnits="userSpaceOnUse">
<stop stop-color="#F2B01C"/>
<stop offset="1" stop-color="#EBCE2C"/>
</linearGradient>
<linearGradient id="paint1_linear_2590_13935" x1="36.5325" y1="73.1208" x2="49.5986" y2="73.1208" gradientUnits="userSpaceOnUse">
<stop stop-color="#F2B01C"/>
<stop offset="1" stop-color="#EBCE2C"/>
</linearGradient>
<linearGradient id="paint2_linear_2590_13935" x1="59.426" y1="72.925" x2="71.4685" y2="72.925" gradientUnits="userSpaceOnUse">
<stop stop-color="#F2B01C"/>
<stop offset="1" stop-color="#EBCE2C"/>
</linearGradient>
<linearGradient id="paint3_linear_2590_13935" x1="59.426" y1="51.0216" x2="71.43" y2="51.0216" gradientUnits="userSpaceOnUse">
<stop stop-color="#F2B01C"/>
<stop offset="1" stop-color="#EBCE2C"/>
</linearGradient>
<linearGradient id="paint4_linear_2590_13935" x1="51.0083" y1="44.9915" x2="56.9913" y2="44.9915" gradientUnits="userSpaceOnUse">
<stop stop-color="#F2B01C"/>
<stop offset="1" stop-color="#EBCE2C"/>
</linearGradient>
<linearGradient id="paint5_linear_2590_13935" x1="34" y1="61.9998" x2="39.983" y2="61.9998" gradientUnits="userSpaceOnUse">
<stop stop-color="#F2B01C"/>
<stop offset="1" stop-color="#EBCE2C"/>
</linearGradient>
<linearGradient id="paint6_linear_2590_13935" x1="51.0083" y1="79.0081" x2="56.9913" y2="79.0081" gradientUnits="userSpaceOnUse">
<stop stop-color="#F2B01C"/>
<stop offset="1" stop-color="#EBCE2C"/>
</linearGradient>
<linearGradient id="paint7_linear_2590_13935" x1="68.0176" y1="61.9998" x2="74.0006" y2="61.9998" gradientUnits="userSpaceOnUse">
<stop stop-color="#F2B01C"/>
<stop offset="1" stop-color="#EBCE2C"/>
</linearGradient>
<linearGradient id="paint8_linear_2590_13935" x1="42.3761" y1="61.3567" x2="50.7799" y2="61.3567" gradientUnits="userSpaceOnUse">
<stop stop-color="#F2B01C"/>
<stop offset="1" stop-color="#EBCE2C"/>
</linearGradient>
<linearGradient id="paint9_linear_2590_13935" x1="44.2382" y1="54.8814" x2="49.1875" y2="54.8814" gradientUnits="userSpaceOnUse">
<stop stop-color="#F2B01C"/>
<stop offset="1" stop-color="#EBCE2C"/>
</linearGradient>
<linearGradient id="paint10_linear_2590_13935" x1="57.2204" y1="61.3567" x2="65.6241" y2="61.3567" gradientUnits="userSpaceOnUse">
<stop stop-color="#F2B01C"/>
<stop offset="1" stop-color="#EBCE2C"/>
</linearGradient>
<linearGradient id="paint11_linear_2590_13935" x1="58.8123" y1="54.8814" x2="63.7616" y2="54.8814" gradientUnits="userSpaceOnUse">
<stop stop-color="#F2B01C"/>
<stop offset="1" stop-color="#EBCE2C"/>
</linearGradient>
<linearGradient id="paint12_linear_2590_13935" x1="51.5258" y1="64.0517" x2="56.4751" y2="64.0517" gradientUnits="userSpaceOnUse">
<stop stop-color="#F2B01C"/>
<stop offset="1" stop-color="#EBCE2C"/>
</linearGradient>
<linearGradient id="paint13_linear_2590_13935" x1="49.6627" y1="70.5293" x2="58.3365" y2="70.5293" gradientUnits="userSpaceOnUse">
<stop stop-color="#F2B01C"/>
<stop offset="1" stop-color="#EBCE2C"/>
</linearGradient>
</defs>
</svg>
