<svg width="108" height="124" viewBox="0 0 108 124" fill="none" xmlns="http://www.w3.org/2000/svg">
<path d="M16.804 28.38H10.42C9.736 28.38 9.204 28.912 9.204 29.596V32.028C9.204 32.712 9.736 33.244 10.42 33.244H14.372V64.784C14.372 65.392 14.904 66 15.588 66H18.02C18.628 66 19.236 65.392 19.236 64.784V30.812C19.236 29.444 18.096 28.38 16.804 28.38Z" fill="#232323"/>
<path d="M14.372 33.244H14.872V32.744H14.372V33.244ZM16.804 27.88H10.42V28.88H16.804V27.88ZM10.42 27.88C9.45986 27.88 8.704 28.6359 8.704 29.596H9.704C9.704 29.1881 10.0121 28.88 10.42 28.88V27.88ZM8.704 29.596V32.028H9.704V29.596H8.704ZM8.704 32.028C8.704 32.9881 9.45986 33.744 10.42 33.744V32.744C10.0121 32.744 9.704 32.4359 9.704 32.028H8.704ZM10.42 33.744H14.372V32.744H10.42V33.744ZM13.872 33.244V64.784H14.872V33.244H13.872ZM13.872 64.784C13.872 65.6479 14.608 66.5 15.588 66.5V65.5C15.2 65.5 14.872 65.1361 14.872 64.784H13.872ZM15.588 66.5H18.02V65.5H15.588V66.5ZM18.02 66.5C18.4866 66.5 18.9114 66.2717 19.2096 65.9736C19.5077 65.6754 19.736 65.2506 19.736 64.784H18.736C18.736 64.9254 18.6603 65.1086 18.5024 65.2664C18.3446 65.4243 18.1614 65.5 18.02 65.5V66.5ZM19.736 64.784V30.812H18.736V64.784H19.736ZM19.736 30.812C19.736 29.1578 18.362 27.88 16.804 27.88V28.88C17.8301 28.88 18.736 29.7302 18.736 30.812H19.736Z" fill="#B9B9B9"/>
<g style="mix-blend-mode:overlay" filter="url(#filter0_d_2590_13933)">
<rect x="19" y="27" width="70" height="70" rx="35" fill="#383838"/>
</g>
<path d="M46.5304 68.9425L48.9879 66.9141C49.2225 66.7195 49.3704 66.4397 49.3991 66.1361C49.4277 65.8325 49.3348 65.5301 49.1407 65.2949C48.9466 65.0598 48.6671 64.9112 48.3637 64.8818C48.0602 64.8524 47.7574 64.9446 47.5218 65.1382L45.0647 67.1665C44.8329 67.362 44.6876 67.6411 44.6604 67.9431C44.6331 68.2451 44.7261 68.5457 44.9191 68.7795C45.1121 69.0134 45.3896 69.1617 45.6913 69.1922C45.9929 69.2227 46.2945 69.133 46.5304 68.9425Z" fill="url(#paint0_linear_2590_13933)"/>
<path d="M49.4665 67.4057L47.5437 68.9929C47.3119 69.1884 47.1667 69.4675 47.1394 69.7695C47.1121 70.0715 47.2051 70.372 47.3981 70.6059C47.5911 70.8398 47.8686 70.9881 48.1703 71.0186C48.472 71.0491 48.7735 70.9594 49.0095 70.7689L50.9322 69.1818C51.1643 68.9864 51.31 68.7073 51.3374 68.4051C51.3649 68.1029 51.2719 67.802 51.0788 67.568C50.8856 67.334 50.6079 67.1856 50.306 67.1552C50.0041 67.1248 49.7023 67.2149 49.4665 67.4057Z" fill="url(#paint1_linear_2590_13933)"/>
<path d="M66.658 50.5925L61.6017 54.127L68.9457 64.633L74.002 61.0985L66.658 50.5925Z" fill="url(#paint2_linear_2590_13933)"/>
<path d="M41.1112 50L34 61.7023L39.2702 64.9045L46.381 53.2022L41.1112 50Z" fill="url(#paint3_linear_2590_13933)"/>
<path d="M34.9382 61.4736L41.3402 50.9375L45.4442 53.4311L39.0419 63.9672L34.9382 61.4736Z" fill="url(#paint4_linear_2590_13933)"/>
<path d="M60.8159 69.6756C60.8606 70.0184 60.8075 70.3668 60.6627 70.6807C60.5179 70.9946 60.2874 71.2612 59.9977 71.4497C59.7079 71.6382 59.3708 71.7409 59.0252 71.7461C58.6796 71.7513 58.3395 71.6588 58.0442 71.4791C58.0518 71.796 57.9709 72.1088 57.8105 72.3823C57.6501 72.6557 57.4166 72.879 57.1363 73.0271C56.856 73.1751 56.5399 73.242 56.2236 73.2203C55.9074 73.1986 55.6034 73.0891 55.346 72.9041L53.0803 71.2764L51.9365 72.2205C51.7005 72.411 51.399 72.5007 51.0973 72.4702C50.7956 72.4397 50.5182 72.2914 50.3251 72.0575C50.1321 71.8237 50.0392 71.523 50.0664 71.221C50.0937 70.919 50.239 70.64 50.4707 70.4445L51.745 69.3928C51.9457 69.2273 52.1966 69.1345 52.4568 69.1298C52.7169 69.1251 52.971 69.2086 53.1776 69.3668C53.3842 69.5249 53.5311 69.7485 53.5945 70.0009C53.6578 70.2532 53.6338 70.5196 53.5263 70.7565L55.7439 72.35C55.9642 72.5046 56.2366 72.5661 56.5019 72.5211C56.7673 72.4761 57.0042 72.3283 57.1612 72.1097C57.3182 71.8912 57.3827 71.6195 57.3406 71.3537C57.2985 71.0879 57.1533 70.8493 56.9364 70.6899L53.7068 68.3691C53.635 68.3157 53.5871 68.2362 53.5734 68.1478C53.5597 68.0594 53.5813 67.9692 53.6334 67.8966C53.6856 67.8239 53.7643 67.7746 53.8524 67.7593C53.9405 67.7441 54.0312 67.7641 54.1047 67.815L58.3255 70.8476C58.5735 71.024 58.8814 71.0949 59.1816 71.0449C59.4818 70.995 59.7501 70.8282 59.9277 70.581C60.1053 70.3338 60.1778 70.0263 60.1293 69.7258C60.0809 69.4253 59.9154 69.1563 59.6691 68.9775L55.1812 65.7529C55.1077 65.7001 55.0582 65.6203 55.0436 65.531C55.029 65.4417 55.0505 65.3501 55.1033 65.2767C55.1561 65.2032 55.2359 65.1538 55.3252 65.1391C55.4145 65.1245 55.506 65.146 55.5795 65.1988L60.6648 68.8525C60.9129 69.0288 61.2207 69.0997 61.521 69.0498C61.8212 68.9998 62.0895 68.8331 62.2671 68.5859C62.4447 68.3387 62.5172 68.0311 62.4687 67.7306C62.4202 67.4301 62.2548 67.161 62.0085 66.9822L56.6215 63.1117C56.5498 63.0583 56.502 62.9788 56.4882 62.8904C56.4745 62.802 56.4961 62.7118 56.5483 62.6391C56.6005 62.5665 56.6791 62.5172 56.7672 62.5019C56.8553 62.4867 56.9459 62.5067 57.0195 62.5576L62.6002 66.5674C62.831 66.7333 63.1173 66.8028 63.3985 66.761C63.6796 66.7192 63.9334 66.5696 64.1059 66.3437C64.2785 66.1179 64.3563 65.8338 64.3227 65.5515C64.2891 65.2693 64.1469 65.0113 63.9262 64.8322L56.4658 58.7755C54.82 59.5743 52.9379 59.7399 51.1779 59.2406C50.9434 59.1738 50.7362 59.0343 50.586 58.8422C50.4358 58.6501 50.3505 58.4154 50.3424 58.1717C50.3342 57.928 50.4036 57.688 50.5406 57.4863C50.6776 57.2846 50.875 57.1315 51.1045 57.0492C52.0495 56.7096 52.9557 56.2709 53.8082 55.7402C52.7296 55.5903 51.6313 55.6807 50.5918 56.005C49.1272 56.1368 47.6564 56.1854 46.1863 56.1505L41.7197 63.5015L43.3579 64.7044L44.3993 63.8451C44.6353 63.6546 44.9368 63.5648 45.2385 63.5953C45.5402 63.6259 45.8176 63.7742 46.0107 64.008C46.2037 64.2419 46.2966 64.5424 46.2694 64.8444C46.2421 65.1464 46.0968 65.4255 45.8651 65.6211L44.5057 66.7432C44.2892 66.922 44.0148 67.0155 43.7341 67.0061C43.4535 66.9968 43.1859 66.8852 42.9818 66.6924C42.7777 66.4995 42.6511 66.2387 42.6258 65.959C42.6005 65.6794 42.6783 65.4001 42.8445 65.1737L40.8117 63.6815L45.8093 55.457C47.3607 55.5098 48.9138 55.4679 50.4601 55.3316C51.8196 54.9213 53.2634 54.877 54.6454 55.2034C55.0135 55.0053 55.419 54.8867 55.8357 54.8552C56.2525 54.8237 56.6713 54.8801 57.0649 55.0207L60.1708 56.13L61.7613 55.5482L67.2576 63.4107L65.0026 65.4802C65.032 65.7392 65.004 66.0016 64.9205 66.2485C64.837 66.4955 64.7002 66.7211 64.5196 66.9092C64.3391 67.0973 64.1193 67.2433 63.876 67.3369C63.6326 67.4304 63.3716 67.4691 63.1116 67.4504C63.1945 67.765 63.1921 68.0959 63.1049 68.4093C63.0176 68.7227 62.8485 69.0073 62.615 69.2338C62.3815 69.4603 62.0919 69.6206 61.776 69.6982C61.4601 69.7759 61.1292 69.7681 60.8173 69.6756H60.8159Z" fill="url(#paint5_linear_2590_13933)"/>
<defs>
<filter id="filter0_d_2590_13933" x="0" y="16" width="108" height="108" filterUnits="userSpaceOnUse" color-interpolation-filters="sRGB">
<feFlood flood-opacity="0" result="BackgroundImageFix"/>
<feColorMatrix in="SourceAlpha" type="matrix" values="0 0 0 0 0 0 0 0 0 0 0 0 0 0 0 0 0 0 127 0" result="hardAlpha"/>
<feMorphology radius="5" operator="erode" in="SourceAlpha" result="effect1_dropShadow_2590_13933"/>
<feOffset dy="8"/>
<feGaussianBlur stdDeviation="12"/>
<feComposite in2="hardAlpha" operator="out"/>
<feColorMatrix type="matrix" values="0 0 0 0 1 0 0 0 0 1 0 0 0 0 1 0 0 0 0.25 0"/>
<feBlend mode="normal" in2="BackgroundImageFix" result="effect1_dropShadow_2590_13933"/>
<feBlend mode="normal" in="SourceGraphic" in2="effect1_dropShadow_2590_13933" result="shape"/>
</filter>
<linearGradient id="paint0_linear_2590_13933" x1="44.6557" y1="67.0373" x2="49.4042" y2="67.0373" gradientUnits="userSpaceOnUse">
<stop stop-color="#F2B01C"/>
<stop offset="1" stop-color="#EBCE2C"/>
</linearGradient>
<linearGradient id="paint1_linear_2590_13933" x1="47.1347" y1="69.0869" x2="51.3421" y2="69.0869" gradientUnits="userSpaceOnUse">
<stop stop-color="#F2B01C"/>
<stop offset="1" stop-color="#EBCE2C"/>
</linearGradient>
<linearGradient id="paint2_linear_2590_13933" x1="61.6017" y1="57.6128" x2="74.002" y2="57.6128" gradientUnits="userSpaceOnUse">
<stop stop-color="#F2B01C"/>
<stop offset="1" stop-color="#EBCE2C"/>
</linearGradient>
<linearGradient id="paint3_linear_2590_13933" x1="34" y1="57.4523" x2="46.381" y2="57.4523" gradientUnits="userSpaceOnUse">
<stop stop-color="#F2B01C"/>
<stop offset="1" stop-color="#EBCE2C"/>
</linearGradient>
<linearGradient id="paint4_linear_2590_13933" x1="34.9382" y1="57.4524" x2="45.4442" y2="57.4524" gradientUnits="userSpaceOnUse">
<stop stop-color="#F2B01C"/>
<stop offset="1" stop-color="#EBCE2C"/>
</linearGradient>
<linearGradient id="paint5_linear_2590_13933" x1="40.8117" y1="64.0355" x2="67.2576" y2="64.0355" gradientUnits="userSpaceOnUse">
<stop stop-color="#F2B01C"/>
<stop offset="1" stop-color="#EBCE2C"/>
</linearGradient>
</defs>
</svg>
