<svg width="111" height="124" viewBox="0 0 111 124" fill="none" xmlns="http://www.w3.org/2000/svg">
<path d="M23.636 49.584H19.76V45.708C19.76 45.024 19.228 44.492 18.544 44.492H16.112C15.428 44.492 14.896 45.024 14.896 45.708V49.584H7.068C7.068 48.824 7.068 48.824 7.296 48.52L17.936 34.46C19.76 32.028 19.76 32.028 19.76 29.596C19.76 28.912 19.228 28.38 18.544 28.38H16.112C15.428 28.38 14.896 28.912 14.896 29.596C14.896 30.584 14.896 30.584 14.668 30.888L4.028 44.948C2.28 47.304 2.204 47.38 2.204 49.584V53.232C2.204 53.916 2.736 54.448 3.42 54.448H14.896V64.784C14.896 65.392 15.428 66 16.112 66H18.544C19.228 66 19.76 65.392 19.76 64.784V54.448H23.636C24.32 54.448 24.852 53.916 24.852 53.232V50.8C24.852 50.116 24.32 49.584 23.636 49.584Z" fill="#232323"/>
<path d="M19.76 49.584H19.26V50.084H19.76V49.584ZM14.896 49.584V50.084H15.396V49.584H14.896ZM7.068 49.584H6.568V50.084H7.068V49.584ZM7.296 48.52L6.89729 48.2183L6.896 48.22L7.296 48.52ZM17.936 34.46L18.3347 34.7617L18.336 34.76L17.936 34.46ZM14.668 30.888L15.0667 31.1897L15.068 31.188L14.668 30.888ZM4.028 44.948L3.62928 44.6463L3.62645 44.6501L4.028 44.948ZM14.896 54.448H15.396V53.948H14.896V54.448ZM19.76 54.448V53.948H19.26V54.448H19.76ZM23.636 49.084H19.76V50.084H23.636V49.084ZM20.26 49.584V45.708H19.26V49.584H20.26ZM20.26 45.708C20.26 44.7479 19.5041 43.992 18.544 43.992V44.992C18.9519 44.992 19.26 45.3001 19.26 45.708H20.26ZM18.544 43.992H16.112V44.992H18.544V43.992ZM16.112 43.992C15.1519 43.992 14.396 44.7479 14.396 45.708H15.396C15.396 45.3001 15.7041 44.992 16.112 44.992V43.992ZM14.396 45.708V49.584H15.396V45.708H14.396ZM14.896 49.084H7.068V50.084H14.896V49.084ZM7.568 49.584C7.568 49.3907 7.56806 49.2576 7.57131 49.1558C7.57459 49.053 7.58067 49.0079 7.5854 48.9858C7.58745 48.9762 7.57313 48.9838 7.696 48.82L6.896 48.22C6.79087 48.3602 6.66255 48.5198 6.6076 48.7762C6.56498 48.9751 6.568 49.2353 6.568 49.584H7.568ZM7.6947 48.8217L18.3347 34.7617L17.5373 34.1583L6.8973 48.2183L7.6947 48.8217ZM18.336 34.76C19.2271 33.5719 19.7407 32.8955 20.0002 32.2036C20.2669 31.4923 20.26 30.7809 20.26 29.596H19.26C19.26 30.8431 19.2531 31.3477 19.0638 31.8524C18.8673 32.3765 18.4689 32.9161 17.536 34.16L18.336 34.76ZM20.26 29.596C20.26 28.6359 19.5041 27.88 18.544 27.88V28.88C18.9519 28.88 19.26 29.1881 19.26 29.596H20.26ZM18.544 27.88H16.112V28.88H18.544V27.88ZM16.112 27.88C15.1519 27.88 14.396 28.6359 14.396 29.596H15.396C15.396 29.1881 15.7041 28.88 16.112 28.88V27.88ZM14.396 29.596C14.396 30.1176 14.3939 30.3053 14.3751 30.4116C14.3693 30.4447 14.3814 30.4368 14.268 30.588L15.068 31.188C15.1826 31.0352 15.3087 30.8753 15.3599 30.5854C15.3981 30.3687 15.396 30.0624 15.396 29.596H14.396ZM14.2693 30.5863L3.6293 44.6463L4.4267 45.2497L15.0667 31.1897L14.2693 30.5863ZM3.62645 44.6501C2.77253 45.801 2.26448 46.4721 1.99678 47.136C1.71718 47.8294 1.704 48.4978 1.704 49.584H2.704C2.704 48.4662 2.72882 47.9946 2.92422 47.51C3.13152 46.9959 3.53547 46.451 4.42955 45.2459L3.62645 44.6501ZM1.704 49.584V53.232H2.704V49.584H1.704ZM1.704 53.232C1.704 54.1921 2.45986 54.948 3.42 54.948V53.948C3.01214 53.948 2.704 53.6399 2.704 53.232H1.704ZM3.42 54.948H14.896V53.948H3.42V54.948ZM14.396 54.448V64.784H15.396V54.448H14.396ZM14.396 64.784C14.396 65.6479 15.132 66.5 16.112 66.5V65.5C15.724 65.5 15.396 65.1361 15.396 64.784H14.396ZM16.112 66.5H18.544V65.5H16.112V66.5ZM18.544 66.5C19.524 66.5 20.26 65.6479 20.26 64.784H19.26C19.26 65.1361 18.932 65.5 18.544 65.5V66.5ZM20.26 64.784V54.448H19.26V64.784H20.26ZM19.76 54.948H23.636V53.948H19.76V54.948ZM23.636 54.948C24.5961 54.948 25.352 54.1921 25.352 53.232H24.352C24.352 53.6399 24.0439 53.948 23.636 53.948V54.948ZM25.352 53.232V50.8H24.352V53.232H25.352ZM25.352 50.8C25.352 49.8399 24.5961 49.084 23.636 49.084V50.084C24.0439 50.084 24.352 50.3921 24.352 50.8H25.352Z" fill="#B9B9B9"/>
<g style="mix-blend-mode:overlay" filter="url(#filter0_d_2590_13936)">
<rect x="22" y="27" width="70" height="70" rx="35" fill="#383838"/>
</g>
<path d="M66.5039 42.0062C65.1893 42.0522 63.8636 42.3625 62.5997 42.952C62.4196 43.0293 62.2568 43.1421 62.121 43.2835C61.9852 43.4249 61.8792 43.5922 61.8093 43.7754C61.7393 43.9585 61.7069 44.1539 61.7138 44.3498C61.7207 44.5458 61.7669 44.7384 61.8497 44.9161C61.9324 45.0939 62.0499 45.2532 62.1954 45.3847C62.3408 45.5162 62.5112 45.6171 62.6963 45.6815C62.8815 45.7459 63.0777 45.7724 63.2733 45.7595C63.4689 45.7466 63.6599 45.6946 63.835 45.6065C67.4565 43.9173 71.7086 45.4622 73.3974 49.0848C74.2977 51.0161 74.2977 53.2405 73.3974 55.1718C73.2576 55.4602 73.2162 55.7864 73.2795 56.1006C73.3429 56.4147 73.5075 56.6994 73.7481 56.911C73.9205 57.0623 74.126 57.1711 74.3481 57.2284C74.5702 57.2857 74.8026 57.2901 75.0267 57.2411C75.2508 57.1921 75.4602 57.0912 75.6381 56.9464C75.816 56.8016 75.9575 56.617 76.051 56.4075C77.3163 53.6933 77.3163 50.5634 76.051 47.8491C74.2829 44.0562 70.448 41.8681 66.5039 42.0062ZM53.6932 43.8826C53.2213 43.8826 52.7432 44.0548 52.3816 44.4166C51.6583 45.14 51.6583 46.3018 52.3816 47.0253L53.5712 48.2152L40.1046 75.2941C39.3785 74.6224 38.2482 74.6492 37.5424 75.3551C36.8192 76.0786 36.8192 77.2403 37.5424 77.9638L41.0502 81.4574C41.7734 82.1809 42.9348 82.1809 43.6581 81.4574C44.3638 80.7514 44.3753 79.636 43.7038 78.9097L47.3488 77.0943C47.6332 77.6988 48.0218 78.2526 48.4926 78.7266C49.5765 79.8108 51.0928 80.4506 52.6256 80.4505C54.1584 80.4504 55.6748 79.8109 56.7586 78.7266C58.5018 76.9785 58.9523 74.0814 57.8109 71.8921L70.7894 65.4389L71.9638 66.6136C72.687 67.3371 73.8484 67.3371 74.5717 66.6136C75.2949 65.8901 75.2949 64.7284 74.5717 64.0049L54.9895 44.4166C54.6279 44.0548 54.1651 43.8826 53.6932 43.8826ZM66.0007 46.8575C65.2328 46.8835 64.4647 47.0632 63.7283 47.4067C63.399 47.5841 63.1499 47.8807 63.032 48.2358C62.9142 48.5909 62.9364 48.9776 63.0943 49.3168C63.2522 49.656 63.5336 49.922 63.8811 50.0604C64.2286 50.1987 64.6159 50.199 64.9636 50.0612C66.4751 49.3561 68.224 49.9985 68.9288 51.5105C69.3026 52.3122 69.3026 53.2412 68.9288 54.0429C68.8027 54.3095 68.76 54.6079 68.8063 54.8992C68.8526 55.1904 68.9856 55.4609 69.1881 55.6753C69.3526 55.8527 69.5584 55.9866 69.7873 56.065C70.0161 56.1434 70.2608 56.1638 70.4995 56.1245C70.7381 56.0853 70.9634 55.9874 71.155 55.8398C71.3467 55.6922 71.4988 55.4994 71.5977 55.2786C72.3365 53.694 72.3365 51.8594 71.5977 50.2748C70.5675 48.0648 68.3043 46.7794 66.0007 46.8575ZM55.6453 50.9613L60.8916 56.2092L42.6515 76.8959L41.5229 75.7518L55.6453 50.9613ZM55.3403 73.1278C55.9692 74.2869 55.7382 75.8407 54.8065 76.7739C53.6642 77.9165 51.587 77.9165 50.4447 76.7739C50.1845 76.5118 49.971 76.1954 49.8194 75.8585L55.3403 73.1278Z" fill="#F8ED1D"/>
<path d="M66.5039 42.0062C65.1893 42.0522 63.8636 42.3625 62.5997 42.952C62.4196 43.0293 62.2568 43.1421 62.121 43.2835C61.9852 43.4249 61.8792 43.5922 61.8093 43.7754C61.7393 43.9585 61.7069 44.1539 61.7138 44.3498C61.7207 44.5458 61.7669 44.7384 61.8497 44.9161C61.9324 45.0939 62.0499 45.2532 62.1954 45.3847C62.3408 45.5162 62.5112 45.6171 62.6963 45.6815C62.8815 45.7459 63.0777 45.7724 63.2733 45.7595C63.4689 45.7466 63.6599 45.6946 63.835 45.6065C67.4565 43.9173 71.7086 45.4622 73.3974 49.0848C74.2977 51.0161 74.2977 53.2405 73.3974 55.1718C73.2576 55.4602 73.2162 55.7864 73.2795 56.1006C73.3429 56.4147 73.5075 56.6994 73.7481 56.911C73.9205 57.0623 74.126 57.1711 74.3481 57.2284C74.5702 57.2857 74.8026 57.2901 75.0267 57.2411C75.2508 57.1921 75.4602 57.0912 75.6381 56.9464C75.816 56.8016 75.9575 56.617 76.051 56.4075C77.3163 53.6933 77.3163 50.5634 76.051 47.8491C74.2829 44.0562 70.448 41.8681 66.5039 42.0062ZM53.6932 43.8826C53.2213 43.8826 52.7432 44.0548 52.3816 44.4166C51.6583 45.14 51.6583 46.3018 52.3816 47.0253L53.5712 48.2152L40.1046 75.2941C39.3785 74.6224 38.2482 74.6492 37.5424 75.3551C36.8192 76.0786 36.8192 77.2403 37.5424 77.9638L41.0502 81.4574C41.7734 82.1809 42.9348 82.1809 43.6581 81.4574C44.3638 80.7514 44.3753 79.636 43.7038 78.9097L47.3488 77.0943C47.6332 77.6988 48.0218 78.2526 48.4926 78.7266C49.5765 79.8108 51.0928 80.4506 52.6256 80.4505C54.1584 80.4504 55.6748 79.8109 56.7586 78.7266C58.5018 76.9785 58.9523 74.0814 57.8109 71.8921L70.7894 65.4389L71.9638 66.6136C72.687 67.3371 73.8484 67.3371 74.5717 66.6136C75.2949 65.8901 75.2949 64.7284 74.5717 64.0049L54.9895 44.4166C54.6279 44.0548 54.1651 43.8826 53.6932 43.8826ZM66.0007 46.8575C65.2328 46.8835 64.4647 47.0632 63.7283 47.4067C63.399 47.5841 63.1499 47.8807 63.032 48.2358C62.9142 48.5909 62.9364 48.9776 63.0943 49.3168C63.2522 49.656 63.5336 49.922 63.8811 50.0604C64.2286 50.1987 64.6159 50.199 64.9636 50.0612C66.4751 49.3561 68.224 49.9985 68.9288 51.5105C69.3026 52.3122 69.3026 53.2412 68.9288 54.0429C68.8027 54.3095 68.76 54.6079 68.8063 54.8992C68.8526 55.1904 68.9856 55.4609 69.1881 55.6753C69.3526 55.8527 69.5584 55.9866 69.7873 56.065C70.0161 56.1434 70.2608 56.1638 70.4995 56.1245C70.7381 56.0853 70.9634 55.9874 71.155 55.8398C71.3467 55.6922 71.4988 55.4994 71.5977 55.2786C72.3365 53.694 72.3365 51.8594 71.5977 50.2748C70.5675 48.0648 68.3043 46.7794 66.0007 46.8575ZM55.6453 50.9613L60.8916 56.2092L42.6515 76.8959L41.5229 75.7518L55.6453 50.9613ZM55.3403 73.1278C55.9692 74.2869 55.7382 75.8407 54.8065 76.7739C53.6642 77.9165 51.587 77.9165 50.4447 76.7739C50.1845 76.5118 49.971 76.1954 49.8194 75.8585L55.3403 73.1278Z" fill="url(#paint0_linear_2590_13936)"/>
<defs>
<filter id="filter0_d_2590_13936" x="3" y="16" width="108" height="108" filterUnits="userSpaceOnUse" color-interpolation-filters="sRGB">
<feFlood flood-opacity="0" result="BackgroundImageFix"/>
<feColorMatrix in="SourceAlpha" type="matrix" values="0 0 0 0 0 0 0 0 0 0 0 0 0 0 0 0 0 0 127 0" result="hardAlpha"/>
<feMorphology radius="5" operator="erode" in="SourceAlpha" result="effect1_dropShadow_2590_13936"/>
<feOffset dy="8"/>
<feGaussianBlur stdDeviation="12"/>
<feComposite in2="hardAlpha" operator="out"/>
<feColorMatrix type="matrix" values="0 0 0 0 1 0 0 0 0 1 0 0 0 0 1 0 0 0 0.25 0"/>
<feBlend mode="normal" in2="BackgroundImageFix" result="effect1_dropShadow_2590_13936"/>
<feBlend mode="normal" in="SourceGraphic" in2="effect1_dropShadow_2590_13936" result="shape"/>
</filter>
<linearGradient id="paint0_linear_2590_13936" x1="37" y1="62" x2="77" y2="62" gradientUnits="userSpaceOnUse">
<stop stop-color="#F2B01C"/>
<stop offset="1" stop-color="#EBCE2C"/>
</linearGradient>
</defs>
</svg>
