<svg width="24" height="24" viewBox="0 0 24 24" fill="none" xmlns="http://www.w3.org/2000/svg">
<path d="M15.0541 10.4962L15.5378 9.19237C15.643 8.91893 15.4326 8.62451 15.1382 8.62451H5.96898C4.49689 8.62451 3.2771 9.71813 3.12981 11.1902L2.75134 14.6813C2.70924 15.0178 2.94058 15.3332 3.2771 15.4174C3.65557 15.5015 4.16037 15.5647 4.66514 15.6278L4.98053 21.1798C5.00151 21.6424 5.4011 22 5.8638 22H8.53469C8.99736 22 9.37583 21.6425 9.41796 21.1798L9.88063 11.653C9.88063 11.1694 10.2802 10.7908 10.7429 10.7908H14.6335C14.8437 10.7696 14.991 10.6645 15.0541 10.4962L15.0541 10.4962Z" fill="#CFBF8A"/>
<path d="M10.1541 4.92321C10.1541 6.53759 8.84525 7.84643 7.23088 7.84643C5.6165 7.84643 4.30766 6.53759 4.30766 4.92321C4.30766 3.30884 5.6165 2 7.23088 2C8.84525 2 10.1541 3.30884 10.1541 4.92321Z" fill="#CFBF8A"/>
<path d="M18.2718 12.4731H12.9511C12.173 12.4731 11.5631 13.1041 11.5631 13.8612V20.5699C11.5631 21.3479 12.194 21.9579 12.9511 21.9579H18.2508C19.0288 21.9579 19.6388 21.3269 19.6388 20.5699L19.6386 13.8822C19.6598 13.1041 19.0288 12.4732 18.2718 12.4732L18.2718 12.4731ZM16.7155 19.5183C16.4421 19.8127 16.0005 20.3385 15.2013 20.3385C14.7808 20.3385 14.4652 19.9389 14.5704 19.5183L15.2223 17.1629C15.2644 17.0368 15.1592 16.9316 15.033 16.9526C14.8858 16.9736 14.7176 17.0578 14.5283 17.1839C14.4442 17.247 14.36 17.226 14.2969 17.1629C14.2548 17.0999 14.2548 17.0157 14.2969 16.9526C14.5704 16.6582 15.0119 16.1324 15.8111 16.1324C16.2317 16.1324 16.5473 16.532 16.4421 16.9526L15.7902 19.3079C15.7481 19.4341 15.8532 19.5393 15.9794 19.5183C16.1267 19.4973 16.2948 19.4131 16.4842 19.287C16.5682 19.2239 16.6524 19.2449 16.7155 19.3079C16.7786 19.371 16.7786 19.4762 16.7155 19.5183ZM16.2318 15.5436C15.8322 15.5436 15.5169 15.2282 15.5169 14.8286C15.5169 14.429 15.8322 14.1136 16.2318 14.1136C16.6314 14.1136 16.9468 14.429 16.9468 14.8286C16.9468 15.228 16.6314 15.5436 16.2318 15.5436Z" fill="#CFBF8A"/>
</svg>
