<svg width="24" height="24" viewBox="0 0 24 24" fill="none" xmlns="http://www.w3.org/2000/svg">
<path d="M10.4605 19.3864C10.299 19.3864 10.1415 19.3356 10.0105 19.2413C9.87953 19.1468 9.78157 19.0135 9.73049 18.8603L6.61436 9.5111L5.8059 11.9373C5.75482 12.0906 5.65686 12.2238 5.52585 12.3183C5.39485 12.4127 5.23739 12.4635 5.07589 12.4635H2.76821C2.49343 12.4635 2.23952 12.3168 2.10206 12.0788C1.9646 11.8409 1.9646 11.5476 2.10206 11.3096C2.23953 11.0716 2.49345 10.925 2.76821 10.925H4.52121L5.88431 6.83579C5.95222 6.62921 6.10427 6.46109 6.30304 6.37291C6.50182 6.28472 6.7285 6.28471 6.92715 6.37291C7.12592 6.4611 7.27796 6.62922 7.34588 6.83579L10.3951 15.9842L13.5658 4.56503C13.6109 4.40307 13.7076 4.26049 13.8415 4.1588C13.9752 4.05709 14.1387 4.00195 14.3067 4.00195C14.4737 4.00195 14.6363 4.05649 14.7695 4.15715C14.903 4.25766 15 4.39904 15.0458 4.55965L17.5074 13.1658L18.2097 11.4081V11.408C18.2668 11.2657 18.3651 11.1435 18.492 11.0576C18.6188 10.9715 18.7686 10.9252 18.922 10.9249H21.2297C21.5045 10.9249 21.7584 11.0716 21.8959 11.3096C22.0333 11.5475 22.0333 11.8408 21.8959 12.0788C21.7584 12.3168 21.5045 12.4634 21.2297 12.4634H19.4428L18.0981 15.8258C18.0412 15.9766 17.9371 16.1051 17.8012 16.192C17.6654 16.279 17.5053 16.3201 17.3444 16.3088C17.184 16.3005 17.0304 16.2422 16.9049 16.1422C16.7793 16.0423 16.6882 15.9054 16.6444 15.7511L14.3175 7.60806L11.2013 18.8234V18.8232C11.1572 18.982 11.0633 19.1224 10.9333 19.2238C10.8035 19.3252 10.6444 19.3821 10.4797 19.3863L10.4605 19.3864Z" fill="#CFBF8A"/>
</svg>
