<svg width="24" height="24" viewBox="0 0 24 24" fill="none" xmlns="http://www.w3.org/2000/svg">
<path d="M11.3474 15.993C11.0131 15.9613 10.6969 15.8284 10.4425 15.6129L3.60946 9.85013C3.2656 9.57901 3.0484 9.18214 3.0071 8.7505C2.96602 8.31882 3.10447 7.8894 3.39113 7.55998C3.67756 7.23058 4.08768 7.02959 4.52735 7.00301C4.96722 6.97644 5.39914 7.12651 5.72458 7.41906L11.5 12.2916L17.2754 7.41906C17.6009 7.12673 18.0328 6.97666 18.4726 7.00324C18.9123 7.02959 19.3224 7.23058 19.6089 7.55998C19.8955 7.88938 20.034 8.31904 19.9929 8.75073C19.9516 9.18242 19.7344 9.57902 19.3905 9.85013L12.5575 15.6129C12.2232 15.8959 11.7865 16.033 11.3476 15.9933L11.3474 15.993Z" fill="#CFBF8A"/>
</svg>
