<svg width="24" height="24" viewBox="0 0 24 24" fill="none" xmlns="http://www.w3.org/2000/svg">
<path d="M11.3474 7.00697C11.0131 7.03868 10.6969 7.17156 10.4425 7.38706L3.60946 13.1499C3.2656 13.421 3.0484 13.8179 3.0071 14.2495C2.96602 14.6812 3.10447 15.1106 3.39113 15.44C3.67756 15.7694 4.08768 15.9704 4.52735 15.997C4.96722 16.0236 5.39914 15.8735 5.72458 15.5809L11.5 10.7084L17.2754 15.5809C17.6009 15.8733 18.0328 16.0233 18.4726 15.9968C18.9123 15.9704 19.3224 15.7694 19.6089 15.44C19.8955 15.1106 20.034 14.681 19.9929 14.2493C19.9516 13.8176 19.7344 13.421 19.3905 13.1499L12.5575 7.38706C12.2232 7.10411 11.7865 6.96699 11.3476 7.00675L11.3474 7.00697Z" fill="#CFBF8A"/>
</svg>
