<svg width="24" height="24" viewBox="0 0 24 24" fill="none" xmlns="http://www.w3.org/2000/svg">
<path d="M21.9975 9.3198L18.9979 18.3187C18.9284 18.5258 18.793 18.7042 18.6124 18.8271C18.4319 18.9498 18.2161 19.0101 17.998 18.9987H7.99935C7.77086 19.0054 7.54704 18.9336 7.36509 18.7953C7.18331 18.657 7.05408 18.4607 6.99934 18.2389L4.21965 7.00008H2.99987C2.64266 7.00008 2.31256 6.80959 2.13396 6.50025C1.95535 6.19092 1.95535 5.80961 2.13396 5.50026C2.31256 5.19091 2.64265 5.00043 2.99987 5.00043H4.99969C5.22801 4.99373 5.45182 5.06554 5.63377 5.20381C5.81573 5.34208 5.94479 5.53842 5.99952 5.7602L8.77921 16.999H17.2781L20.0477 8.68014C20.1326 8.42822 20.3141 8.22034 20.5522 8.10216C20.7904 7.98398 21.0656 7.96523 21.3175 8.0501C21.5695 8.13497 21.7773 8.31642 21.8955 8.5546C22.0137 8.79279 22.0324 9.06796 21.9476 9.31989L21.9975 9.3198ZM12.3386 13.7091C12.4337 13.8002 12.5459 13.8717 12.6686 13.9192C12.9106 14.0262 13.1865 14.0262 13.4285 13.9192C13.5512 13.8717 13.6634 13.8002 13.7584 13.7091L16.7581 10.7095C17.0117 10.4559 17.1108 10.0863 17.0179 9.7398C16.9251 9.3933 16.6545 9.12281 16.308 9.02991C15.9617 8.937 15.5919 9.0361 15.3383 9.2897L13.9985 10.5897V6.0002C13.9985 5.64299 13.8078 5.31289 13.4985 5.13429C13.1891 4.95568 12.808 4.95568 12.4986 5.13429C12.1893 5.31289 11.9986 5.64298 11.9986 6.0002V10.5897L10.7087 9.28987V9.2897C10.4551 9.0361 10.0855 8.93701 9.73901 9.02991C9.39252 9.12282 9.12203 9.39332 9.02913 9.7398C8.93622 10.0863 9.03532 10.4559 9.28892 10.7095L12.3386 13.7091Z" fill="#C7C7C7"/>
</svg>
