<svg width="24" height="24" viewBox="0 0 24 24" fill="none" xmlns="http://www.w3.org/2000/svg">
<rect width="24" height="24" rx="4" fill="#2D2D2D"/>
<path d="M15.4639 4.80005C13.73 4.80005 12.6355 5.62756 12.0001 6.37577C11.3649 5.62753 10.2705 4.80005 8.536 4.80005C5.58346 4.80005 3.6001 7.4822 3.6001 9.98713C3.6001 13.6339 10.7431 18.5212 11.5576 19.0663C11.691 19.1555 11.8455 19.2 12.0001 19.2C12.1547 19.2 12.3092 19.1553 12.4426 19.0663C13.257 18.5211 20.4001 13.6339 20.4001 9.98713C20.4001 7.4822 18.4165 4.80005 15.4639 4.80005ZM11.9998 17.4921C9.18694 15.5304 5.17 12.0191 5.17 9.98713C5.17 8.45784 6.33976 6.33923 8.536 6.33923C10.5338 6.33923 11.2391 8.03115 11.2664 8.09825C11.3811 8.39544 11.6716 8.58987 11.9956 8.59251H12.0011C12.3232 8.59251 12.6137 8.39693 12.7323 8.10343C12.7612 8.03126 13.4668 6.33935 15.4639 6.33935C17.6604 6.33935 18.8305 8.4576 18.8305 9.98725C18.8303 12.0168 14.8129 15.5291 11.9998 17.4922L11.9998 17.4921Z" fill="#C1C1C1"/>
</svg>
