<svg width="16" height="15" viewBox="0 0 16 15" fill="none" xmlns="http://www.w3.org/2000/svg">
<path d="M11.2989 0C9.64751 0 8.60511 0.861994 8 1.64137C7.39509 0.861964 6.3528 0 4.70086 0C1.88891 0 0 2.79391 0 5.40321C0 9.20188 6.80286 14.2928 7.57857 14.8607C7.70558 14.9536 7.85279 15 8 15C8.14721 15 8.29443 14.9534 8.42143 14.8607C9.19709 14.2928 16 9.20188 16 5.40321C16 2.79391 14.1108 0 11.2989 0ZM7.99971 13.2209C5.3208 11.1774 1.49514 7.51981 1.49514 5.40321C1.49514 3.81019 2.6092 1.60331 4.70086 1.60331C6.60354 1.60331 7.27529 3.36573 7.3012 3.43563C7.41046 3.7452 7.68714 3.94773 7.99574 3.95048H8.00099C8.30767 3.95048 8.58436 3.74675 8.6973 3.44102C8.72487 3.36585 9.39685 1.60343 11.2989 1.60343C13.3907 1.60343 14.5052 3.80995 14.5052 5.40333C14.5049 7.51742 10.6789 11.176 7.99971 13.2209Z" fill="#FFF86B"/>
</svg>
