<svg width="24" height="24" viewBox="0 0 24 24" fill="none" xmlns="http://www.w3.org/2000/svg">
<g clip-path="url(#clip0_67_7934)">
<path d="M0.177312 9.71475H1.1754C1.68434 9.71475 2.11987 9.28538 2.11987 8.77028C2.11987 8.24902 1.68459 7.82581 1.1754 7.82581L0.177312 7.82606C-0.331626 7.82606 -0.760986 8.24928 -0.760986 8.77054C-0.760986 9.28718 -0.331607 9.71475 0.177312 9.71475V9.71475Z" fill="#CFBF8A"/>
<path d="M6.969 21.7981H22.8283C23.3495 21.7981 23.7787 21.3687 23.7787 20.8477C23.7787 20.3326 23.3493 19.8958 22.8283 19.8958L6.969 19.8955C6.45852 19.8955 6.0307 20.3308 6.0307 20.8474C6.0307 21.3689 6.46008 21.7981 6.969 21.7981V21.7981Z" fill="#CFBF8A"/>
<path d="M0.177312 3.67469H1.1754C1.68434 3.67469 2.11987 3.25148 2.11987 2.73639C2.11987 2.21514 1.68459 1.7981 1.1754 1.7981L0.177312 1.79835C-0.331626 1.79835 -0.760986 2.21387 -0.760986 2.73665C-0.760986 3.25175 -0.331607 3.67469 0.177312 3.67469V3.67469Z" fill="#CFBF8A"/>
<path d="M6.969 15.7568H22.8283C23.3495 15.7568 23.7787 15.3351 23.7787 14.8185C23.7787 14.2957 23.3493 13.8666 22.8283 13.8666H6.969C6.45852 13.8666 6.0307 14.296 6.0307 14.8185C6.0307 15.3351 6.46008 15.7568 6.969 15.7568Z" fill="#CFBF8A"/>
<path d="M0.177312 15.7568H1.1754C1.68434 15.7568 2.11987 15.3351 2.11987 14.8185C2.11987 14.2957 1.68459 13.8666 1.1754 13.8666H0.177312C-0.331626 13.8666 -0.760986 14.296 -0.760986 14.8185C-0.760986 15.3351 -0.331607 15.7568 0.177312 15.7568Z" fill="#CFBF8A"/>
<path d="M0.177312 21.7981H1.1754C1.68434 21.7981 2.11987 21.3687 2.11987 20.8477C2.11987 20.3326 1.68459 19.8958 1.1754 19.8958L0.177312 19.8955C-0.331626 19.8955 -0.760986 20.3308 -0.760986 20.8474C-0.760986 21.3689 -0.331607 21.7981 0.177312 21.7981V21.7981Z" fill="#CFBF8A"/>
<path d="M6.969 3.67469H22.8283C23.3495 3.67469 23.7787 3.25148 23.7787 2.73639C23.7787 2.21514 23.3493 1.7981 22.8283 1.7981L6.969 1.79835C6.45852 1.79835 6.0307 2.21387 6.0307 2.73665C6.0307 3.25175 6.46008 3.67469 6.969 3.67469V3.67469Z" fill="#CFBF8A"/>
<path d="M6.969 9.71475H22.8283C23.3495 9.71475 23.7787 9.28538 23.7787 8.77028C23.7787 8.24902 23.3493 7.82581 22.8283 7.82581L6.969 7.82606C6.45852 7.82606 6.0307 8.24928 6.0307 8.77054C6.0307 9.28718 6.46008 9.71475 6.969 9.71475V9.71475Z" fill="#CFBF8A"/>
</g>
<defs>
<clipPath id="clip0_67_7934">
<rect width="24" height="24" fill="white"/>
</clipPath>
</defs>
</svg>
