<svg width="24" height="24" viewBox="0 0 24 24" fill="none" xmlns="http://www.w3.org/2000/svg">
<path d="M12.5741 2.30746C12.3234 2.05643 11.9627 1.94922 11.6156 2.02276L4.37151 3.56646C4.17416 3.60913 3.99342 3.7078 3.85069 3.85069C3.7078 3.99343 3.60913 4.17417 3.56647 4.37151L2.02276 11.6156C1.94922 11.9627 2.05643 12.3234 2.30746 12.5741L11.4266 21.6933C11.623 21.8897 11.8894 22 12.1673 22C12.445 22 12.7115 21.8897 12.9079 21.6933L21.6935 12.9077C21.8899 12.7113 22.0002 12.4448 22.0002 12.1671C22.0002 11.8892 21.8899 11.6228 21.6935 11.4264L12.5741 2.30746ZM7.37825 7.3786C7.12055 7.63645 6.77085 7.78122 6.4064 7.78122C6.04181 7.78122 5.69228 7.63647 5.43439 7.3786C5.17669 7.1209 5.03178 6.7712 5.03178 6.40675C5.03178 6.04215 5.17668 5.69247 5.43439 5.43474C5.69225 5.17689 6.04179 5.03212 6.4064 5.03212C6.77084 5.03212 7.12053 5.17687 7.37825 5.43474C7.63564 5.69275 7.78008 6.0423 7.78008 6.40675C7.78008 6.77104 7.63563 7.12059 7.37825 7.3786Z" fill="#CFBF8A"/>
</svg>
