<svg width="24" height="24" viewBox="0 0 24 24" fill="none" xmlns="http://www.w3.org/2000/svg">
<path d="M14.7789 11.779C14.7789 13.3138 13.5346 14.558 11.9999 14.558C10.4652 14.558 9.22089 13.3138 9.22089 11.779C9.22089 10.2443 10.4652 9 11.9999 9C13.5346 9 14.7789 10.2443 14.7789 11.779Z" fill="#CFBF8A"/>
<path d="M7.55789 11.779C7.55789 13.3138 6.31376 14.558 4.77902 14.558C3.24414 14.558 2 13.3138 2 11.779C2 10.2443 3.24414 9 4.77902 9C6.31376 9 7.55789 10.2443 7.55789 11.779Z" fill="#CFBF8A"/>
<path d="M22 11.779C22 13.3138 20.7559 14.558 19.221 14.558C17.6862 14.558 16.4421 13.3138 16.4421 11.779C16.4421 10.2443 17.6862 9 19.221 9C20.7559 9 22 10.2443 22 11.779Z" fill="#CFBF8A"/>
</svg>
