<svg xmlns="http://www.w3.org/2000/svg" xmlns:xlink="http://www.w3.org/1999/xlink" width="140.61" height="140.61" viewBox="0 0 140.61 140.61">
  <defs>
    <linearGradient id="linear-gradient" x1="0.416" y1="0.5" x2="1.448" y2="0.5" gradientUnits="objectBoundingBox">
      <stop offset="0" stop-color="#e90a63"/>
      <stop offset="1" stop-color="#481a7f"/>
    </linearGradient>
    <filter id="Rectangle_102" x="0" y="0" width="140.61" height="140.61" filterUnits="userSpaceOnUse">
      <feOffset input="SourceAlpha"/>
      <feGaussianBlur stdDeviation="10" result="blur"/>
      <feFlood flood-color="#ff0080" flood-opacity="0.812"/>
      <feComposite operator="in" in2="blur"/>
      <feComposite in="SourceGraphic"/>
    </filter>
    <filter id="Rectangle_102-2" x="0" y="0" width="140.61" height="140.61" filterUnits="userSpaceOnUse">
      <feOffset dy="3" input="SourceAlpha"/>
      <feGaussianBlur stdDeviation="9" result="blur-2"/>
      <feFlood flood-color="#481a7f" flood-opacity="0.451" result="color"/>
      <feComposite operator="out" in="SourceGraphic" in2="blur-2"/>
      <feComposite operator="in" in="color"/>
      <feComposite operator="in" in2="SourceGraphic"/>
    </filter>
  </defs>
  <g id="Button_Arrow_Right" data-name="Button Arrow Right" transform="translate(-1250 -4768)">
    <g data-type="innerShadowGroup">
      <g transform="matrix(1, 0, 0, 1, 1250, 4768)" filter="url(#Rectangle_102)">
        <path id="Rectangle_102-3" data-name="Rectangle 102" d="M1280,4838.305,1320.305,4798l40.305,40.305-40.305,40.3Z" transform="translate(-1250 -4768)" fill="url(#linear-gradient)"/>
      </g>
      <g transform="matrix(1, 0, 0, 1, 1250, 4768)" filter="url(#Rectangle_102-2)">
        <path id="Rectangle_102-4" data-name="Rectangle 102" d="M1280,4838.305,1320.305,4798l40.305,40.305-40.305,40.3Z" transform="translate(-1250 -4768)" fill="#fff"/>
      </g>
    </g>
    <g id="ri:arrow-right-s-line">
      <path id="Vector" d="M1321.953,4838l-8.25-8.25,2.357-2.356L1326.667,4838l-10.607,10.606-2.357-2.356Z" fill="#fff"/>
    </g>
  </g>
</svg>