<svg width="14" height="14" viewBox="0 0 14 14" fill="none" xmlns="http://www.w3.org/2000/svg">
<path d="M8.92991 6.13088C10.7061 5.37551 11.8845 3.68681 11.9924 1.77623H12.564C12.7274 1.77623 12.8557 1.64501 12.8557 1.48461V0.291622C12.8557 0.131224 12.7274 0 12.564 0H2.29162C2.13122 0 2 0.131224 2 0.291622V1.48449C2 1.64489 2.13122 1.77611 2.29162 1.77611H2.86609C2.97399 3.68944 4.15232 5.37826 5.92856 6.13357C6.27865 6.28237 6.50315 6.62369 6.50315 6.99991C6.50315 7.37612 6.27854 7.71743 5.9315 7.86318C4.15232 8.62148 2.97399 10.3103 2.86609 12.2238H2.29162C2.13122 12.2238 2 12.3521 2 12.5154V13.7084C2 13.8688 2.13122 14 2.29162 14H12.564C12.7274 14 12.8557 13.8688 12.8557 13.7084V12.5155C12.8557 12.3522 12.7274 12.2239 12.564 12.2239H11.9924C11.8845 10.3135 10.7061 8.62486 8.92991 7.86924C8.58288 7.72044 8.35826 7.38218 8.35826 6.99719C8.35826 6.61791 8.58274 6.27954 8.92991 6.13085V6.13088ZM8.70237 8.40589C10.2628 9.06801 11.3011 10.5468 11.409 12.2237H3.44939C3.5573 10.5436 4.59563 9.06495 6.15896 8.39996C6.72183 8.16082 7.08645 7.60956 7.08645 6.99994C7.08645 6.39032 6.72183 5.83907 6.15896 5.59698C4.59563 4.93486 3.55729 3.45319 3.44939 1.77608H11.409C11.3011 3.45319 10.2628 4.93199 8.70237 5.59386C8.1395 5.83311 7.77488 6.38438 7.77488 7.00266C7.77488 7.61509 8.1395 8.16633 8.70237 8.40561V8.40589Z" fill="url(#paint0_linear_2567_1532)"/>
<path d="M10.2217 3.40368C10.2916 3.31616 10.3063 3.19665 10.2596 3.09448C10.2101 2.99243 10.108 2.92822 9.99425 2.92822L4.86086 2.92834C4.75002 2.92834 4.64797 2.99255 4.59841 3.0946C4.54885 3.19665 4.56338 3.31628 4.63638 3.4038C5.45009 4.40708 7.1826 5.67588 7.25548 5.72838C7.30797 5.76622 7.36632 5.78379 7.42759 5.78379C7.48887 5.78379 7.55003 5.76634 7.59971 5.72838C7.67259 5.67576 9.40501 4.40417 10.2216 3.40368L10.2217 3.40368Z" fill="url(#paint1_linear_2567_1532)"/>
<path d="M7.25576 8.26861C6.98452 8.46991 4.57538 10.2491 4.23407 11.2553C4.20197 11.3428 4.21661 11.4419 4.27203 11.5177C4.32745 11.5935 4.41497 11.6402 4.50824 11.6402H10.3504C10.4467 11.6402 10.5341 11.5935 10.5895 11.5177C10.642 11.4419 10.6566 11.3427 10.6275 11.2553C10.2832 10.2491 7.87421 8.46989 7.60002 8.26861C7.49797 8.19562 7.35796 8.19562 7.2559 8.26861H7.25576Z" fill="url(#paint2_linear_2567_1532)"/>
<defs>
<linearGradient id="paint0_linear_2567_1532" x1="7.42783" y1="0" x2="7.42783" y2="14" gradientUnits="userSpaceOnUse">
<stop stop-color="#FCB632"/>
<stop offset="1" stop-color="#F0902E"/>
</linearGradient>
<linearGradient id="paint1_linear_2567_1532" x1="7.42796" y1="2.92822" x2="7.42796" y2="5.78379" gradientUnits="userSpaceOnUse">
<stop stop-color="#FCB632"/>
<stop offset="1" stop-color="#F0902E"/>
</linearGradient>
<linearGradient id="paint2_linear_2567_1532" x1="7.42977" y1="8.21387" x2="7.42977" y2="11.6402" gradientUnits="userSpaceOnUse">
<stop stop-color="#FCB632"/>
<stop offset="1" stop-color="#F0902E"/>
</linearGradient>
</defs>
</svg>
