<svg width="24" height="24" viewBox="0 0 24 24" fill="none" xmlns="http://www.w3.org/2000/svg">
<rect width="24" height="24" rx="4" fill="#2D2D2D"/>
<path d="M16.6765 4.80015C15.2897 4.80015 14.153 5.88122 14.153 7.20015C14.153 7.45577 14.1954 7.70701 14.2744 7.93853L10.1068 10.1423C9.67257 9.80695 9.12253 9.60002 8.52352 9.60002C7.13671 9.60002 6 10.6811 6 12C6 13.3189 7.13671 14.4 8.52352 14.4C9.12239 14.4 9.67253 14.1989 10.1068 13.8636L14.2802 16.0674C14.2009 16.2995 14.153 16.5436 14.153 16.8C14.153 18.119 15.2897 19.2 16.6765 19.2C18.0633 19.2 19.2 18.119 19.2 16.8C19.2 15.4811 18.0633 14.4 16.6765 14.4C15.98 14.4 15.3451 14.6769 14.887 15.1154L10.8286 12.9692C10.9673 12.6728 11.047 12.3436 11.047 12C11.047 11.6546 10.9688 11.3285 10.8286 11.0309L14.8808 8.88471C15.3392 9.32666 15.9767 9.60005 16.6763 9.60005C18.0631 9.60005 19.1999 8.51898 19.1999 7.20005C19.1999 5.88112 18.0631 4.80005 16.6763 4.80005L16.6765 4.80015ZM16.6765 5.90789C17.4339 5.90789 18.0353 6.47993 18.0353 7.20015C18.0353 7.92037 17.4338 8.4924 16.6765 8.4924C15.9192 8.4924 15.3178 7.92037 15.3178 7.20015C15.3178 6.47993 15.9193 5.90789 16.6765 5.90789ZM8.52376 10.7078C9.28108 10.7078 9.88252 11.2799 9.88252 12.0001C9.88252 12.7203 9.28105 13.2923 8.52376 13.2923C7.76644 13.2923 7.165 12.7203 7.165 12.0001C7.165 11.2799 7.76647 10.7078 8.52376 10.7078ZM16.6765 15.5078C17.4339 15.5078 18.0353 16.0798 18.0353 16.8C18.0353 17.5203 17.4338 18.0923 16.6765 18.0923C15.9193 18.0923 15.3178 17.5202 15.3178 16.8C15.3178 16.0798 15.9193 15.5078 16.6765 15.5078Z" fill="#C1C1C1" stroke="#C1C1C1" stroke-width="0.5"/>
</svg>
