<svg width="14" height="15" viewBox="0 0 14 15" fill="none" xmlns="http://www.w3.org/2000/svg">
<path d="M3.93731 14.7282H3.85784C3.63211 14.7291 3.41415 14.6451 3.24758 14.4928C3.08085 14.3406 2.97753 14.1313 2.95795 13.9063L1.86158 1.3437C1.85405 1.27691 1.85405 1.20949 1.86158 1.1427L0.496784 1.38412L0.496658 1.38425C0.339603 1.41161 0.199997 1.5005 0.108609 1.63107C0.0170858 1.76163 -0.0186921 1.92321 0.00930444 2.08015L2.19905 14.5033C2.22642 14.6603 2.31531 14.8001 2.44587 14.8914C2.57644 14.9828 2.73801 15.0186 2.89495 14.9908L4.80573 14.6518L3.93731 14.7282Z" fill="#7C7C7C"/>
<path d="M4.79514 14.1151C4.55648 14.1151 4.32761 14.0203 4.15888 13.8515C3.99014 13.6827 3.89523 13.4538 3.89523 13.2152V0.600161V0.562622L2.70595 0.667576C2.54714 0.681386 2.40025 0.757717 2.29794 0.879747C2.1955 1.0019 2.14578 1.15983 2.15997 1.31851L3.25936 13.884C3.27304 14.0419 3.34887 14.1881 3.4699 14.2904C3.59105 14.3927 3.74773 14.4428 3.90577 14.43L7.50537 14.115L4.79514 14.1151Z" fill="#7C7C7C"/>
<path d="M4.79511 0H12.6046C12.936 0 13.2046 0.331324 13.2046 0.599976V13.215C13.2046 13.5463 12.9361 13.8149 12.6046 13.8149H4.79511C4.46378 13.8149 4.19513 13.4836 4.19513 13.215V0.599976C4.19513 0.268652 4.46367 0 4.79511 0Z" fill="#7C7C7C"/>
</svg>
