<svg width="24" height="36" viewBox="0 0 24 36" fill="none" xmlns="http://www.w3.org/2000/svg">
<path d="M14.069 22.2243C13.1553 22.2243 12.4138 21.4828 12.4138 20.5692V18.914C12.4138 17.9996 13.1553 17.2588 14.069 17.2588H24V22.2243H14.069ZM15.3103 18.5689C14.6252 18.5689 14.069 19.1251 14.069 19.8103C14.069 20.4964 14.6252 21.0517 15.3103 21.0517C15.9964 21.0517 16.5517 20.4964 16.5517 19.8103C16.5517 19.1251 15.9964 18.5689 15.3103 18.5689ZM11.5862 18.914V20.5692C11.5862 21.9396 12.6985 23.0519 14.069 23.0519H22.3448V26.3623C22.3448 27.7327 21.2333 28.845 19.8621 28.845H2.48276C1.11228 28.845 0 27.7327 0 26.3623V10.6381C0 9.26688 1.11228 8.15536 2.48276 8.15536H10.4541L8.51 8.96559H2.06996C1.38481 8.96559 0.828579 9.52182 0.828579 10.207C0.828579 10.8921 1.38481 11.4484 2.06996 11.4484H22.3449V16.4314H14.069C12.6985 16.4314 11.5863 17.5429 11.5863 18.9141L11.5862 18.914ZM3.31129 13.1209H1.65612V14.7761H2.4837V13.9485H3.31129V13.1209ZM3.31129 15.6036H1.65612V17.2588H2.51771L2.48372 16.4312L3.3113 16.4486L3.31129 15.6036ZM3.31129 18.0864H1.65612V19.7416H2.50106L2.4837 18.914H3.31128L3.31129 18.0864ZM3.31129 20.5692H1.65612V22.2243H2.50106L2.4837 21.3967L3.31128 21.4141L3.31129 20.5692ZM3.31129 23.0519H1.65612V24.7071H2.4837V23.8795H3.31129V23.0519ZM3.31129 25.5347H1.65612V27.1898H2.50106L2.4837 26.3796H3.31128L3.31129 25.5347ZM6.62164 10.5866L16.3455 6.5L18.2076 10.5866H6.62164ZM17.9142 8.15517H19.8623C20.5872 8.15517 21.2328 8.47051 21.6871 8.9654H18.3097L17.9142 8.15517Z" fill="#232323"/>
</svg>
